<svg width="40" height="40" viewBox="0 0 40 40" fill="none" xmlns="http://www.w3.org/2000/svg">
<path fill-rule="evenodd" clip-rule="evenodd" d="M12.5 5H27.5067C31.645 5 35 8.355 35 12.4933V27.5083C35 31.645 31.645 35 27.5067 35H12.4933C8.355 35 5 31.645 5 27.5067V12.5C5 8.35833 8.35833 5 12.5 5V5Z" stroke="#D3A45D" stroke-width="2" stroke-linecap="round" stroke-linejoin="round"/>
<path d="M17.8066 16.0732H19.8316V26.1999H19.8283C17.7433 26.1999 15.4516 24.9332 13.8266 22.5999C11.3866 19.1799 10.72 16.5949 10.72 16.0749" stroke="#D3A45D" stroke-width="2" stroke-linecap="round" stroke-linejoin="round"/>
<path d="M27.7633 26.2C27.7633 26.2 27.0266 24.6466 25.5316 22.9383C24.535 21.77 23.1316 21.1383 21.855 21.1383C23.1316 21.1383 24.535 20.505 25.5316 19.3383C27.0266 17.6283 27.7633 16.075 27.7633 16.075" stroke="#D3A45D" stroke-width="2" stroke-linecap="round" stroke-linejoin="round"/>
<path d="M21.855 21.14H19.8283" stroke="#D3A45D" stroke-width="2" stroke-linecap="round" stroke-linejoin="round"/>
</svg>
