<svg width="22" height="22" viewBox="0 0 22 22" fill="none" xmlns="http://www.w3.org/2000/svg">
<path d="M12 0.999893C12 0.447608 11.5523 -0.000106812 11 -0.000106812C10.4477 -0.000106812 10 0.447608 10 0.999893H12ZM1 9.99989C0.447715 9.99989 0 10.4476 0 10.9999C0 11.5522 0.447715 11.9999 1 11.9999V9.99989ZM21 11.9999C21.5523 11.9999 22 11.5522 22 10.9999C22 10.4476 21.5523 9.99989 21 9.99989V11.9999ZM11 20.9998L10 20.9998C10 21.5521 10.4477 21.9998 11 21.9998C11.5523 21.9998 12 21.5521 12 20.9998L11 20.9998ZM10 0.999893C10 5.97046 5.97056 9.99989 1 9.99989V11.9999C7.07513 11.9999 12 7.07503 12 0.999893H10ZM21 9.99989C16.0294 9.99989 12 5.97046 12 0.999893H10C10 7.07503 14.9249 11.9999 21 11.9999V9.99989ZM12 20.9998C12.0001 16.0293 16.0295 11.9999 21 11.9999V9.99989C14.9249 9.99989 10.0001 14.9247 10 20.9998L12 20.9998ZM1 11.9999C5.97053 11.9999 9.99995 16.0293 10 20.9998L12 20.9998C11.9999 14.9247 7.07509 9.99989 1 9.99989V11.9999Z" fill="#F4F2EB"/>
</svg>
