<svg width="28" height="28" viewBox="0 0 28 28" fill="none" xmlns="http://www.w3.org/2000/svg">
<path d="M15.5 2C15.5 1.17157 14.8284 0.5 14 0.5C13.1716 0.5 12.5 1.17157 12.5 2H15.5ZM2 14V12.5C1.17157 12.5 0.5 13.1716 0.5 14H2ZM26 15.5004C26.8284 15.5004 27.5 14.8288 27.5 14.0004C27.5 13.172 26.8284 12.5004 26 12.5004V15.5004ZM14 26L12.5 26.0001C12.5 26.8285 13.1716 27.5 14 27.5C14.8284 27.5 15.5 26.8285 15.5 26.0001L14 26ZM2 14.0004H0.5C0.5 14.8288 1.17157 15.5004 2 15.5004L2 14.0004ZM12.5 2C12.5 7.79899 7.79899 12.5 2 12.5V15.5C9.45584 15.5 15.5 9.45584 15.5 2H12.5ZM15.5 2.00042V2H12.5V2.00042H15.5ZM26 12.5004C20.201 12.5004 15.5 7.79941 15.5 2.00042H12.5C12.5 9.45626 18.5442 15.5004 26 15.5004V12.5004ZM15.5 26.0001C15.5002 20.2012 20.2011 15.5004 26 15.5004V12.5004C18.5443 12.5004 12.5003 18.5443 12.5 25.9999L15.5 26.0001ZM2 15.5004C7.79887 15.5004 12.4998 20.2012 12.5 26.0001L15.5 25.9999C15.4997 18.5443 9.45569 12.5004 2 12.5004V15.5004ZM0.5 14V14C0.5 14 0.5 14 0.5 14C0.5 14 0.5 14 0.5 14C0.5 14 0.5 14 0.5 14C0.5 14 0.5 14 0.5 14V14V14C0.5 14 0.5 14 0.5 14C0.5 14 0.5 14 0.5 14C0.5 14 0.5 14 0.5 14C0.5 14 0.5 14 0.5 14V14V14C0.5 14 0.5 14 0.5 14C0.5 14 0.5 14 0.5 14C0.5 14 0.5 14 0.5 14C0.5 14 0.5 14 0.5 14V14V14C0.5 14 0.5 14 0.5 14C0.5 14 0.5 14 0.5 14C0.5 14 0.5 14 0.5 14C0.5 14 0.5 14 0.5 14V14V14C0.5 14 0.5 14 0.5 14C0.5 14 0.5 14 0.5 14C0.5 14 0.5 14 0.5 14C0.5 14 0.5 14 0.5 14V14V14C0.5 14 0.5 14 0.5 14C0.5 14 0.5 14 0.5 14C0.5 14 0.5 14 0.5 14C0.5 14 0.5 14 0.5 14V14V14C0.5 14 0.5 14 0.5 14C0.5 14 0.5 14 0.5 14C0.5 14 0.5 14 0.5 14C0.5 14 0.5 14 0.5 14V14V14C0.5 14 0.5 14 0.5 14C0.5 14 0.5 14 0.5 14C0.5 14 0.5 14 0.5 14C0.5 14 0.5 14 0.5 14V14V14C0.5 14 0.5 14 0.5 14C0.5 14 0.5 14 0.5 14C0.5 14 0.5 14 0.5 14C0.5 14.0001 0.5 14.0001 0.5 14.0001V14.0001V14.0001C0.5 14.0001 0.5 14.0001 0.5 14.0001C0.5 14.0001 0.5 14.0001 0.5 14.0001C0.5 14.0001 0.5 14.0001 0.5 14.0001C0.5 14.0001 0.5 14.0001 0.5 14.0001V14.0001V14.0001C0.5 14.0001 0.5 14.0001 0.5 14.0001C0.5 14.0001 0.5 14.0001 0.5 14.0001C0.5 14.0001 0.5 14.0001 0.5 14.0001C0.5 14.0001 0.5 14.0001 0.5 14.0001V14.0001V14.0001C0.5 14.0001 0.5 14.0001 0.5 14.0001C0.5 14.0001 0.5 14.0001 0.5 14.0001C0.5 14.0001 0.5 14.0001 0.5 14.0001C0.5 14.0001 0.5 14.0001 0.5 14.0001V14.0001V14.0001C0.5 14.0001 0.5 14.0001 0.5 14.0001C0.5 14.0001 0.5 14.0001 0.5 14.0001C0.5 14.0001 0.5 14.0001 0.5 14.0001C0.5 14.0001 0.5 14.0001 0.5 14.0001V14.0001V14.0001C0.5 14.0001 0.5 14.0001 0.5 14.0001C0.5 14.0001 0.5 14.0001 0.5 14.0001C0.5 14.0001 0.5 14.0001 0.5 14.0001C0.5 14.0001 0.5 14.0001 0.5 14.0001V14.0001V14.0001C0.5 14.0001 0.5 14.0001 0.5 14.0001C0.5 14.0001 0.5 14.0001 0.5 14.0001C0.5 14.0001 0.5 14.0001 0.5 14.0001C0.5 14.0001 0.5 14.0001 0.5 14.0001V14.0001V14.0001C0.5 14.0001 0.5 14.0001 0.5 14.0001C0.5 14.0001 0.5 14.0001 0.5 14.0001C0.5 14.0001 0.5 14.0001 0.5 14.0001C0.5 14.0001 0.5 14.0001 0.5 14.0001V14.0001V14.0001C0.5 14.0001 0.5 14.0001 0.5 14.0001C0.5 14.0001 0.5 14.0001 0.5 14.0001C0.5 14.0001 0.5 14.0001 0.5 14.0001C0.5 14.0001 0.5 14.0001 0.5 14.0001V14.0001V14.0001C0.5 14.0001 0.5 14.0001 0.5 14.0001C0.5 14.0001 0.5 14.0001 0.5 14.0001C0.5 14.0001 0.5 14.0001 0.5 14.0001C0.5 14.0001 0.5 14.0001 0.5 14.0001V14.0001V14.0001C0.5 14.0001 0.5 14.0001 0.5 14.0001C0.5 14.0001 0.5 14.0001 0.5 14.0001C0.5 14.0001 0.5 14.0001 0.5 14.0001C0.5 14.0001 0.5 14.0001 0.5 14.0001V14.0001V14.0001C0.5 14.0001 0.5 14.0001 0.5 14.0001C0.5 14.0001 0.5 14.0001 0.5 14.0001C0.5 14.0001 0.5 14.0001 0.5 14.0001C0.5 14.0001 0.5 14.0001 0.5 14.0001V14.0001V14.0001C0.5 14.0001 0.5 14.0001 0.5 14.0001C0.5 14.0001 0.5 14.0001 0.5 14.0001C0.5 14.0001 0.5 14.0001 0.5 14.0001C0.5 14.0001 0.5 14.0001 0.5 14.0001V14.0001V14.0001C0.5 14.0001 0.5 14.0001 0.5 14.0001C0.5 14.0001 0.5 14.0001 0.5 14.0001C0.5 14.0001 0.5 14.0001 0.5 14.0001C0.5 14.0001 0.5 14.0001 0.5 14.0001V14.0001V14.0001C0.5 14.0001 0.5 14.0001 0.5 14.0001C0.5 14.0001 0.5 14.0001 0.5 14.0001C0.5 14.0001 0.5 14.0001 0.5 14.0001C0.5 14.0001 0.5 14.0001 0.5 14.0001V14.0001V14.0001C0.5 14.0001 0.5 14.0001 0.5 14.0001C0.5 14.0001 0.5 14.0001 0.5 14.0001C0.5 14.0001 0.5 14.0001 0.5 14.0001C0.5 14.0001 0.5 14.0001 0.5 14.0001V14.0001V14.0001C0.5 14.0001 0.5 14.0001 0.5 14.0001C0.5 14.0001 0.5 14.0001 0.5 14.0001C0.5 14.0001 0.5 14.0001 0.5 14.0001C0.5 14.0001 0.5 14.0001 0.5 14.0001V14.0001V14.0001C0.5 14.0001 0.5 14.0001 0.5 14.0001C0.5 14.0001 0.5 14.0001 0.5 14.0001C0.5 14.0001 0.5 14.0001 0.5 14.0001C0.5 14.0001 0.5 14.0001 0.5 14.0001V14.0001V14.0001C0.5 14.0001 0.5 14.0001 0.5 14.0002C0.5 14.0002 0.5 14.0002 0.5 14.0002C0.5 14.0002 0.5 14.0002 0.5 14.0002C0.5 14.0002 0.5 14.0002 0.5 14.0002V14.0002V14.0002C0.5 14.0002 0.5 14.0002 0.5 14.0002C0.5 14.0002 0.5 14.0002 0.5 14.0002C0.5 14.0002 0.5 14.0002 0.5 14.0002C0.5 14.0002 0.5 14.0002 0.5 14.0002V14.0002V14.0002C0.5 14.0002 0.5 14.0002 0.5 14.0002C0.5 14.0002 0.5 14.0002 0.5 14.0002C0.5 14.0002 0.5 14.0002 0.5 14.0002C0.5 14.0002 0.5 14.0002 0.5 14.0002V14.0002V14.0002C0.5 14.0002 0.5 14.0002 0.5 14.0002C0.5 14.0002 0.5 14.0002 0.5 14.0002C0.5 14.0002 0.5 14.0002 0.5 14.0002C0.5 14.0002 0.5 14.0002 0.5 14.0002V14.0002V14.0002C0.5 14.0002 0.5 14.0002 0.5 14.0002C0.5 14.0002 0.5 14.0002 0.5 14.0002C0.5 14.0002 0.5 14.0002 0.5 14.0002C0.5 14.0002 0.5 14.0002 0.5 14.0002V14.0002V14.0002C0.5 14.0002 0.5 14.0002 0.5 14.0002C0.5 14.0002 0.5 14.0002 0.5 14.0002C0.5 14.0002 0.5 14.0002 0.5 14.0002C0.5 14.0002 0.5 14.0002 0.5 14.0002V14.0002V14.0002C0.5 14.0002 0.5 14.0002 0.5 14.0002C0.5 14.0002 0.5 14.0002 0.5 14.0002C0.5 14.0002 0.5 14.0002 0.5 14.0002C0.5 14.0002 0.5 14.0002 0.5 14.0002V14.0002V14.0002C0.5 14.0002 0.5 14.0002 0.5 14.0002C0.5 14.0002 0.5 14.0002 0.5 14.0002C0.5 14.0002 0.5 14.0002 0.5 14.0002C0.5 14.0002 0.5 14.0002 0.5 14.0002V14.0002V14.0002C0.5 14.0002 0.5 14.0002 0.5 14.0002C0.5 14.0002 0.5 14.0002 0.5 14.0002C0.5 14.0002 0.5 14.0002 0.5 14.0002C0.5 14.0002 0.5 14.0002 0.5 14.0002V14.0002V14.0002C0.5 14.0002 0.5 14.0002 0.5 14.0002C0.5 14.0002 0.5 14.0002 0.5 14.0002C0.5 14.0002 0.5 14.0002 0.5 14.0002C0.5 14.0002 0.5 14.0002 0.5 14.0002V14.0002V14.0002C0.5 14.0002 0.5 14.0002 0.5 14.0002C0.5 14.0002 0.5 14.0002 0.5 14.0002C0.5 14.0002 0.5 14.0002 0.5 14.0002C0.5 14.0002 0.5 14.0002 0.5 14.0002C0.5 14.0002 0.5 14.0002 0.5 14.0002V14.0002V14.0002C0.5 14.0002 0.5 14.0002 0.5 14.0002C0.5 14.0002 0.5 14.0002 0.5 14.0002C0.5 14.0002 0.5 14.0002 0.5 14.0002C0.5 14.0002 0.5 14.0002 0.5 14.0002V14.0002V14.0002C0.5 14.0002 0.5 14.0002 0.5 14.0002C0.5 14.0002 0.5 14.0002 0.5 14.0002C0.5 14.0002 0.5 14.0002 0.5 14.0002C0.5 14.0002 0.5 14.0002 0.5 14.0002V14.0002V14.0002C0.5 14.0002 0.5 14.0002 0.5 14.0002C0.5 14.0002 0.5 14.0002 0.5 14.0002C0.5 14.0002 0.5 14.0002 0.5 14.0002C0.5 14.0002 0.5 14.0002 0.5 14.0002V14.0002V14.0002C0.5 14.0002 0.5 14.0002 0.5 14.0002C0.5 14.0002 0.5 14.0002 0.5 14.0002C0.5 14.0002 0.5 14.0002 0.5 14.0002C0.5 14.0002 0.5 14.0002 0.5 14.0002V14.0002V14.0002C0.5 14.0002 0.5 14.0002 0.5 14.0002C0.5 14.0002 0.5 14.0002 0.5 14.0002C0.5 14.0002 0.5 14.0002 0.5 14.0002C0.5 14.0002 0.5 14.0002 0.5 14.0002V14.0002V14.0002C0.5 14.0002 0.5 14.0002 0.5 14.0002C0.5 14.0002 0.5 14.0002 0.5 14.0002C0.5 14.0002 0.5 14.0002 0.5 14.0002C0.5 14.0002 0.5 14.0002 0.5 14.0002V14.0002V14.0002C0.5 14.0002 0.5 14.0002 0.5 14.0002C0.5 14.0002 0.5 14.0002 0.5 14.0002C0.5 14.0003 0.5 14.0003 0.5 14.0003C0.5 14.0003 0.5 14.0003 0.5 14.0003V14.0003V14.0003C0.5 14.0003 0.5 14.0003 0.5 14.0003C0.5 14.0003 0.5 14.0003 0.5 14.0003C0.5 14.0003 0.5 14.0003 0.5 14.0003C0.5 14.0003 0.5 14.0003 0.5 14.0003V14.0003V14.0003C0.5 14.0003 0.5 14.0003 0.5 14.0003C0.5 14.0003 0.5 14.0003 0.5 14.0003C0.5 14.0003 0.5 14.0003 0.5 14.0003C0.5 14.0003 0.5 14.0003 0.5 14.0003V14.0003V14.0003C0.5 14.0003 0.5 14.0003 0.5 14.0003C0.5 14.0003 0.5 14.0003 0.5 14.0003C0.5 14.0003 0.5 14.0003 0.5 14.0003C0.5 14.0003 0.5 14.0003 0.5 14.0003V14.0003V14.0003C0.5 14.0003 0.5 14.0003 0.5 14.0003C0.5 14.0003 0.5 14.0003 0.5 14.0003C0.5 14.0003 0.5 14.0003 0.5 14.0003C0.5 14.0003 0.5 14.0003 0.5 14.0003V14.0003V14.0003C0.5 14.0003 0.5 14.0003 0.5 14.0003C0.5 14.0003 0.5 14.0003 0.5 14.0003C0.5 14.0003 0.5 14.0003 0.5 14.0003C0.5 14.0003 0.5 14.0003 0.5 14.0003V14.0003V14.0003C0.5 14.0003 0.5 14.0003 0.5 14.0003C0.5 14.0003 0.5 14.0003 0.5 14.0003C0.5 14.0003 0.5 14.0003 0.5 14.0003C0.5 14.0003 0.5 14.0003 0.5 14.0003V14.0003V14.0003C0.5 14.0003 0.5 14.0003 0.5 14.0003C0.5 14.0003 0.5 14.0003 0.5 14.0003C0.5 14.0003 0.5 14.0003 0.5 14.0003C0.5 14.0003 0.5 14.0003 0.5 14.0003V14.0003V14.0003C0.5 14.0003 0.5 14.0003 0.5 14.0003C0.5 14.0003 0.5 14.0003 0.5 14.0003C0.5 14.0003 0.5 14.0003 0.5 14.0003C0.5 14.0003 0.5 14.0003 0.5 14.0003V14.0003V14.0003C0.5 14.0003 0.5 14.0003 0.5 14.0003C0.5 14.0003 0.5 14.0003 0.5 14.0003C0.5 14.0003 0.5 14.0003 0.5 14.0003C0.5 14.0003 0.5 14.0003 0.5 14.0003V14.0003V14.0003C0.5 14.0003 0.5 14.0003 0.5 14.0003C0.5 14.0003 0.5 14.0003 0.5 14.0003C0.5 14.0003 0.5 14.0003 0.5 14.0003C0.5 14.0003 0.5 14.0003 0.5 14.0003V14.0003V14.0003C0.5 14.0003 0.5 14.0003 0.5 14.0003C0.5 14.0003 0.5 14.0003 0.5 14.0003C0.5 14.0003 0.5 14.0003 0.5 14.0003C0.5 14.0003 0.5 14.0003 0.5 14.0003V14.0003V14.0003C0.5 14.0003 0.5 14.0003 0.5 14.0003C0.5 14.0003 0.5 14.0003 0.5 14.0003C0.5 14.0003 0.5 14.0003 0.5 14.0003C0.5 14.0003 0.5 14.0003 0.5 14.0003V14.0003V14.0003C0.5 14.0003 0.5 14.0003 0.5 14.0003C0.5 14.0003 0.5 14.0003 0.5 14.0003C0.5 14.0003 0.5 14.0003 0.5 14.0003C0.5 14.0003 0.5 14.0003 0.5 14.0003V14.0003V14.0003C0.5 14.0003 0.5 14.0003 0.5 14.0003C0.5 14.0003 0.5 14.0003 0.5 14.0003C0.5 14.0003 0.5 14.0003 0.5 14.0003C0.5 14.0003 0.5 14.0003 0.5 14.0003V14.0003V14.0003C0.5 14.0003 0.5 14.0003 0.5 14.0003C0.5 14.0003 0.5 14.0003 0.5 14.0003C0.5 14.0003 0.5 14.0003 0.5 14.0003C0.5 14.0003 0.5 14.0003 0.5 14.0003V14.0003V14.0003C0.5 14.0003 0.5 14.0003 0.5 14.0003C0.5 14.0003 0.5 14.0003 0.5 14.0003C0.5 14.0003 0.5 14.0003 0.5 14.0003C0.5 14.0003 0.5 14.0003 0.5 14.0003V14.0003V14.0003C0.5 14.0003 0.5 14.0003 0.5 14.0003C0.5 14.0003 0.5 14.0003 0.5 14.0003C0.5 14.0003 0.5 14.0003 0.5 14.0003C0.5 14.0003 0.5 14.0003 0.5 14.0003V14.0003V14.0004C0.5 14.0004 0.5 14.0004 0.5 14.0004C0.5 14.0004 0.5 14.0004 0.5 14.0004C0.5 14.0004 0.5 14.0004 0.5 14.0004C0.5 14.0004 0.5 14.0004 0.5 14.0004V14.0004V14.0004C0.5 14.0004 0.5 14.0004 0.5 14.0004C0.5 14.0004 0.5 14.0004 0.5 14.0004C0.5 14.0004 0.5 14.0004 0.5 14.0004C0.5 14.0004 0.5 14.0004 0.5 14.0004V14.0004V14.0004C0.5 14.0004 0.5 14.0004 0.5 14.0004C0.5 14.0004 0.5 14.0004 0.5 14.0004C0.5 14.0004 0.5 14.0004 0.5 14.0004C0.5 14.0004 0.5 14.0004 0.5 14.0004V14.0004V14.0004C0.5 14.0004 0.5 14.0004 0.5 14.0004C0.5 14.0004 0.5 14.0004 0.5 14.0004C0.5 14.0004 0.5 14.0004 0.5 14.0004C0.5 14.0004 0.5 14.0004 0.5 14.0004V14.0004V14.0004C0.5 14.0004 0.5 14.0004 0.5 14.0004C0.5 14.0004 0.5 14.0004 0.5 14.0004C0.5 14.0004 0.5 14.0004 0.5 14.0004C0.5 14.0004 0.5 14.0004 0.5 14.0004V14.0004V14.0004C0.5 14.0004 0.5 14.0004 0.5 14.0004C0.5 14.0004 0.5 14.0004 0.5 14.0004C0.5 14.0004 0.5 14.0004 0.5 14.0004C0.5 14.0004 0.5 14.0004 0.5 14.0004V14.0004V14.0004C0.5 14.0004 0.5 14.0004 0.5 14.0004C0.5 14.0004 0.5 14.0004 0.5 14.0004C0.5 14.0004 0.5 14.0004 0.5 14.0004C0.5 14.0004 0.5 14.0004 0.5 14.0004V14.0004V14.0004C0.5 14.0004 0.5 14.0004 0.5 14.0004C0.5 14.0004 0.5 14.0004 0.5 14.0004C0.5 14.0004 0.5 14.0004 0.5 14.0004C0.5 14.0004 0.5 14.0004 0.5 14.0004V14.0004V14.0004C0.5 14.0004 0.5 14.0004 0.5 14.0004C0.5 14.0004 0.5 14.0004 0.5 14.0004C0.5 14.0004 0.5 14.0004 0.5 14.0004C0.5 14.0004 0.5 14.0004 0.5 14.0004V14.0004V14.0004C0.5 14.0004 0.5 14.0004 0.5 14.0004C0.5 14.0004 0.5 14.0004 0.5 14.0004C0.5 14.0004 0.5 14.0004 0.5 14.0004C0.5 14.0004 0.5 14.0004 0.5 14.0004V14.0004V14.0004C0.5 14.0004 0.5 14.0004 0.5 14.0004C0.5 14.0004 0.5 14.0004 0.5 14.0004C0.5 14.0004 0.5 14.0004 0.5 14.0004C0.5 14.0004 0.5 14.0004 0.5 14.0004V14.0004V14.0004C0.5 14.0004 0.5 14.0004 0.5 14.0004C0.5 14.0004 0.5 14.0004 0.5 14.0004C0.5 14.0004 0.5 14.0004 0.5 14.0004C0.5 14.0004 0.5 14.0004 0.5 14.0004V14.0004H3.5V14.0004C3.5 14.0004 3.5 14.0004 3.5 14.0004C3.5 14.0004 3.5 14.0004 3.5 14.0004C3.5 14.0004 3.5 14.0004 3.5 14.0004C3.5 14.0004 3.5 14.0004 3.5 14.0004V14.0004V14.0004C3.5 14.0004 3.5 14.0004 3.5 14.0004C3.5 14.0004 3.5 14.0004 3.5 14.0004C3.5 14.0004 3.5 14.0004 3.5 14.0004C3.5 14.0004 3.5 14.0004 3.5 14.0004V14.0004V14.0004C3.5 14.0004 3.5 14.0004 3.5 14.0004C3.5 14.0004 3.5 14.0004 3.5 14.0004C3.5 14.0004 3.5 14.0004 3.5 14.0004C3.5 14.0004 3.5 14.0004 3.5 14.0004V14.0004V14.0004C3.5 14.0004 3.5 14.0004 3.5 14.0004C3.5 14.0004 3.5 14.0004 3.5 14.0004C3.5 14.0004 3.5 14.0004 3.5 14.0004C3.5 14.0004 3.5 14.0004 3.5 14.0004V14.0004V14.0004C3.5 14.0004 3.5 14.0004 3.5 14.0004C3.5 14.0004 3.5 14.0004 3.5 14.0004C3.5 14.0004 3.5 14.0004 3.5 14.0004C3.5 14.0004 3.5 14.0004 3.5 14.0004V14.0004V14.0004C3.5 14.0004 3.5 14.0004 3.5 14.0004C3.5 14.0004 3.5 14.0004 3.5 14.0004C3.5 14.0004 3.5 14.0004 3.5 14.0004C3.5 14.0004 3.5 14.0004 3.5 14.0004V14.0004V14.0004C3.5 14.0004 3.5 14.0004 3.5 14.0004C3.5 14.0004 3.5 14.0004 3.5 14.0004C3.5 14.0004 3.5 14.0004 3.5 14.0004C3.5 14.0004 3.5 14.0004 3.5 14.0004V14.0004V14.0004C3.5 14.0004 3.5 14.0004 3.5 14.0004C3.5 14.0004 3.5 14.0004 3.5 14.0004C3.5 14.0004 3.5 14.0004 3.5 14.0004C3.5 14.0004 3.5 14.0004 3.5 14.0004V14.0004V14.0004C3.5 14.0004 3.5 14.0004 3.5 14.0004C3.5 14.0004 3.5 14.0004 3.5 14.0004C3.5 14.0004 3.5 14.0004 3.5 14.0004C3.5 14.0004 3.5 14.0004 3.5 14.0004V14.0004V14.0004C3.5 14.0004 3.5 14.0004 3.5 14.0004C3.5 14.0004 3.5 14.0004 3.5 14.0004C3.5 14.0004 3.5 14.0004 3.5 14.0004C3.5 14.0004 3.5 14.0004 3.5 14.0004V14.0004V14.0004C3.5 14.0004 3.5 14.0004 3.5 14.0004C3.5 14.0004 3.5 14.0004 3.5 14.0004C3.5 14.0004 3.5 14.0004 3.5 14.0004C3.5 14.0004 3.5 14.0004 3.5 14.0004V14.0004V14.0004C3.5 14.0004 3.5 14.0004 3.5 14.0004C3.5 14.0004 3.5 14.0004 3.5 14.0004C3.5 14.0004 3.5 14.0004 3.5 14.0004C3.5 14.0004 3.5 14.0004 3.5 14.0004V14.0003V14.0003C3.5 14.0003 3.5 14.0003 3.5 14.0003C3.5 14.0003 3.5 14.0003 3.5 14.0003C3.5 14.0003 3.5 14.0003 3.5 14.0003C3.5 14.0003 3.5 14.0003 3.5 14.0003V14.0003V14.0003C3.5 14.0003 3.5 14.0003 3.5 14.0003C3.5 14.0003 3.5 14.0003 3.5 14.0003C3.5 14.0003 3.5 14.0003 3.5 14.0003C3.5 14.0003 3.5 14.0003 3.5 14.0003V14.0003V14.0003C3.5 14.0003 3.5 14.0003 3.5 14.0003C3.5 14.0003 3.5 14.0003 3.5 14.0003C3.5 14.0003 3.5 14.0003 3.5 14.0003C3.5 14.0003 3.5 14.0003 3.5 14.0003V14.0003V14.0003C3.5 14.0003 3.5 14.0003 3.5 14.0003C3.5 14.0003 3.5 14.0003 3.5 14.0003C3.5 14.0003 3.5 14.0003 3.5 14.0003C3.5 14.0003 3.5 14.0003 3.5 14.0003V14.0003V14.0003C3.5 14.0003 3.5 14.0003 3.5 14.0003C3.5 14.0003 3.5 14.0003 3.5 14.0003C3.5 14.0003 3.5 14.0003 3.5 14.0003C3.5 14.0003 3.5 14.0003 3.5 14.0003V14.0003V14.0003C3.5 14.0003 3.5 14.0003 3.5 14.0003C3.5 14.0003 3.5 14.0003 3.5 14.0003C3.5 14.0003 3.5 14.0003 3.5 14.0003C3.5 14.0003 3.5 14.0003 3.5 14.0003V14.0003V14.0003C3.5 14.0003 3.5 14.0003 3.5 14.0003C3.5 14.0003 3.5 14.0003 3.5 14.0003C3.5 14.0003 3.5 14.0003 3.5 14.0003C3.5 14.0003 3.5 14.0003 3.5 14.0003V14.0003V14.0003C3.5 14.0003 3.5 14.0003 3.5 14.0003C3.5 14.0003 3.5 14.0003 3.5 14.0003C3.5 14.0003 3.5 14.0003 3.5 14.0003C3.5 14.0003 3.5 14.0003 3.5 14.0003V14.0003V14.0003C3.5 14.0003 3.5 14.0003 3.5 14.0003C3.5 14.0003 3.5 14.0003 3.5 14.0003C3.5 14.0003 3.5 14.0003 3.5 14.0003C3.5 14.0003 3.5 14.0003 3.5 14.0003V14.0003V14.0003C3.5 14.0003 3.5 14.0003 3.5 14.0003C3.5 14.0003 3.5 14.0003 3.5 14.0003C3.5 14.0003 3.5 14.0003 3.5 14.0003C3.5 14.0003 3.5 14.0003 3.5 14.0003V14.0003V14.0003C3.5 14.0003 3.5 14.0003 3.5 14.0003C3.5 14.0003 3.5 14.0003 3.5 14.0003C3.5 14.0003 3.5 14.0003 3.5 14.0003C3.5 14.0003 3.5 14.0003 3.5 14.0003V14.0003V14.0003C3.5 14.0003 3.5 14.0003 3.5 14.0003C3.5 14.0003 3.5 14.0003 3.5 14.0003C3.5 14.0003 3.5 14.0003 3.5 14.0003C3.5 14.0003 3.5 14.0003 3.5 14.0003V14.0003V14.0003C3.5 14.0003 3.5 14.0003 3.5 14.0003C3.5 14.0003 3.5 14.0003 3.5 14.0003C3.5 14.0003 3.5 14.0003 3.5 14.0003C3.5 14.0003 3.5 14.0003 3.5 14.0003V14.0003V14.0003C3.5 14.0003 3.5 14.0003 3.5 14.0003C3.5 14.0003 3.5 14.0003 3.5 14.0003C3.5 14.0003 3.5 14.0003 3.5 14.0003C3.5 14.0003 3.5 14.0003 3.5 14.0003V14.0003V14.0003C3.5 14.0003 3.5 14.0003 3.5 14.0003C3.5 14.0003 3.5 14.0003 3.5 14.0003C3.5 14.0003 3.5 14.0003 3.5 14.0003C3.5 14.0003 3.5 14.0003 3.5 14.0003V14.0003V14.0003C3.5 14.0003 3.5 14.0003 3.5 14.0003C3.5 14.0003 3.5 14.0003 3.5 14.0003C3.5 14.0003 3.5 14.0003 3.5 14.0003C3.5 14.0003 3.5 14.0003 3.5 14.0003V14.0003V14.0003C3.5 14.0003 3.5 14.0003 3.5 14.0003C3.5 14.0003 3.5 14.0003 3.5 14.0003C3.5 14.0003 3.5 14.0003 3.5 14.0003C3.5 14.0003 3.5 14.0003 3.5 14.0003V14.0003V14.0003C3.5 14.0003 3.5 14.0003 3.5 14.0003C3.5 14.0003 3.5 14.0003 3.5 14.0002C3.5 14.0002 3.5 14.0002 3.5 14.0002C3.5 14.0002 3.5 14.0002 3.5 14.0002V14.0002V14.0002C3.5 14.0002 3.5 14.0002 3.5 14.0002C3.5 14.0002 3.5 14.0002 3.5 14.0002C3.5 14.0002 3.5 14.0002 3.5 14.0002C3.5 14.0002 3.5 14.0002 3.5 14.0002V14.0002V14.0002C3.5 14.0002 3.5 14.0002 3.5 14.0002C3.5 14.0002 3.5 14.0002 3.5 14.0002C3.5 14.0002 3.5 14.0002 3.5 14.0002C3.5 14.0002 3.5 14.0002 3.5 14.0002V14.0002V14.0002C3.5 14.0002 3.5 14.0002 3.5 14.0002C3.5 14.0002 3.5 14.0002 3.5 14.0002C3.5 14.0002 3.5 14.0002 3.5 14.0002C3.5 14.0002 3.5 14.0002 3.5 14.0002V14.0002V14.0002C3.5 14.0002 3.5 14.0002 3.5 14.0002C3.5 14.0002 3.5 14.0002 3.5 14.0002C3.5 14.0002 3.5 14.0002 3.5 14.0002C3.5 14.0002 3.5 14.0002 3.5 14.0002V14.0002V14.0002C3.5 14.0002 3.5 14.0002 3.5 14.0002C3.5 14.0002 3.5 14.0002 3.5 14.0002C3.5 14.0002 3.5 14.0002 3.5 14.0002C3.5 14.0002 3.5 14.0002 3.5 14.0002V14.0002V14.0002C3.5 14.0002 3.5 14.0002 3.5 14.0002C3.5 14.0002 3.5 14.0002 3.5 14.0002C3.5 14.0002 3.5 14.0002 3.5 14.0002C3.5 14.0002 3.5 14.0002 3.5 14.0002V14.0002V14.0002C3.5 14.0002 3.5 14.0002 3.5 14.0002C3.5 14.0002 3.5 14.0002 3.5 14.0002C3.5 14.0002 3.5 14.0002 3.5 14.0002C3.5 14.0002 3.5 14.0002 3.5 14.0002C3.5 14.0002 3.5 14.0002 3.5 14.0002V14.0002V14.0002C3.5 14.0002 3.5 14.0002 3.5 14.0002C3.5 14.0002 3.5 14.0002 3.5 14.0002C3.5 14.0002 3.5 14.0002 3.5 14.0002C3.5 14.0002 3.5 14.0002 3.5 14.0002V14.0002V14.0002C3.5 14.0002 3.5 14.0002 3.5 14.0002C3.5 14.0002 3.5 14.0002 3.5 14.0002C3.5 14.0002 3.5 14.0002 3.5 14.0002C3.5 14.0002 3.5 14.0002 3.5 14.0002V14.0002V14.0002C3.5 14.0002 3.5 14.0002 3.5 14.0002C3.5 14.0002 3.5 14.0002 3.5 14.0002C3.5 14.0002 3.5 14.0002 3.5 14.0002C3.5 14.0002 3.5 14.0002 3.5 14.0002V14.0002V14.0002C3.5 14.0002 3.5 14.0002 3.5 14.0002C3.5 14.0002 3.5 14.0002 3.5 14.0002C3.5 14.0002 3.5 14.0002 3.5 14.0002C3.5 14.0002 3.5 14.0002 3.5 14.0002V14.0002V14.0002C3.5 14.0002 3.5 14.0002 3.5 14.0002C3.5 14.0002 3.5 14.0002 3.5 14.0002C3.5 14.0002 3.5 14.0002 3.5 14.0002C3.5 14.0002 3.5 14.0002 3.5 14.0002V14.0002V14.0002C3.5 14.0002 3.5 14.0002 3.5 14.0002C3.5 14.0002 3.5 14.0002 3.5 14.0002C3.5 14.0002 3.5 14.0002 3.5 14.0002C3.5 14.0002 3.5 14.0002 3.5 14.0002V14.0002V14.0002C3.5 14.0002 3.5 14.0002 3.5 14.0002C3.5 14.0002 3.5 14.0002 3.5 14.0002C3.5 14.0002 3.5 14.0002 3.5 14.0002C3.5 14.0002 3.5 14.0002 3.5 14.0002V14.0002V14.0002C3.5 14.0002 3.5 14.0002 3.5 14.0002C3.5 14.0002 3.5 14.0002 3.5 14.0002C3.5 14.0002 3.5 14.0002 3.5 14.0002C3.5 14.0002 3.5 14.0002 3.5 14.0002V14.0002V14.0002C3.5 14.0002 3.5 14.0002 3.5 14.0002C3.5 14.0002 3.5 14.0002 3.5 14.0002C3.5 14.0002 3.5 14.0002 3.5 14.0002C3.5 14.0002 3.5 14.0002 3.5 14.0002V14.0002V14.0002C3.5 14.0002 3.5 14.0002 3.5 14.0002C3.5 14.0002 3.5 14.0002 3.5 14.0002C3.5 14.0002 3.5 14.0002 3.5 14.0002C3.5 14.0001 3.5 14.0001 3.5 14.0001V14.0001V14.0001C3.5 14.0001 3.5 14.0001 3.5 14.0001C3.5 14.0001 3.5 14.0001 3.5 14.0001C3.5 14.0001 3.5 14.0001 3.5 14.0001C3.5 14.0001 3.5 14.0001 3.5 14.0001V14.0001V14.0001C3.5 14.0001 3.5 14.0001 3.5 14.0001C3.5 14.0001 3.5 14.0001 3.5 14.0001C3.5 14.0001 3.5 14.0001 3.5 14.0001C3.5 14.0001 3.5 14.0001 3.5 14.0001V14.0001V14.0001C3.5 14.0001 3.5 14.0001 3.5 14.0001C3.5 14.0001 3.5 14.0001 3.5 14.0001C3.5 14.0001 3.5 14.0001 3.5 14.0001C3.5 14.0001 3.5 14.0001 3.5 14.0001V14.0001V14.0001C3.5 14.0001 3.5 14.0001 3.5 14.0001C3.5 14.0001 3.5 14.0001 3.5 14.0001C3.5 14.0001 3.5 14.0001 3.5 14.0001C3.5 14.0001 3.5 14.0001 3.5 14.0001V14.0001V14.0001C3.5 14.0001 3.5 14.0001 3.5 14.0001C3.5 14.0001 3.5 14.0001 3.5 14.0001C3.5 14.0001 3.5 14.0001 3.5 14.0001C3.5 14.0001 3.5 14.0001 3.5 14.0001V14.0001V14.0001C3.5 14.0001 3.5 14.0001 3.5 14.0001C3.5 14.0001 3.5 14.0001 3.5 14.0001C3.5 14.0001 3.5 14.0001 3.5 14.0001C3.5 14.0001 3.5 14.0001 3.5 14.0001V14.0001V14.0001C3.5 14.0001 3.5 14.0001 3.5 14.0001C3.5 14.0001 3.5 14.0001 3.5 14.0001C3.5 14.0001 3.5 14.0001 3.5 14.0001C3.5 14.0001 3.5 14.0001 3.5 14.0001V14.0001V14.0001C3.5 14.0001 3.5 14.0001 3.5 14.0001C3.5 14.0001 3.5 14.0001 3.5 14.0001C3.5 14.0001 3.5 14.0001 3.5 14.0001C3.5 14.0001 3.5 14.0001 3.5 14.0001V14.0001V14.0001C3.5 14.0001 3.5 14.0001 3.5 14.0001C3.5 14.0001 3.5 14.0001 3.5 14.0001C3.5 14.0001 3.5 14.0001 3.5 14.0001C3.5 14.0001 3.5 14.0001 3.5 14.0001V14.0001V14.0001C3.5 14.0001 3.5 14.0001 3.5 14.0001C3.5 14.0001 3.5 14.0001 3.5 14.0001C3.5 14.0001 3.5 14.0001 3.5 14.0001C3.5 14.0001 3.5 14.0001 3.5 14.0001V14.0001V14.0001C3.5 14.0001 3.5 14.0001 3.5 14.0001C3.5 14.0001 3.5 14.0001 3.5 14.0001C3.5 14.0001 3.5 14.0001 3.5 14.0001C3.5 14.0001 3.5 14.0001 3.5 14.0001V14.0001V14.0001C3.5 14.0001 3.5 14.0001 3.5 14.0001C3.5 14.0001 3.5 14.0001 3.5 14.0001C3.5 14.0001 3.5 14.0001 3.5 14.0001C3.5 14.0001 3.5 14.0001 3.5 14.0001V14.0001V14.0001C3.5 14.0001 3.5 14.0001 3.5 14.0001C3.5 14.0001 3.5 14.0001 3.5 14.0001C3.5 14.0001 3.5 14.0001 3.5 14.0001C3.5 14.0001 3.5 14.0001 3.5 14.0001V14.0001V14.0001C3.5 14.0001 3.5 14.0001 3.5 14.0001C3.5 14.0001 3.5 14.0001 3.5 14.0001C3.5 14.0001 3.5 14.0001 3.5 14.0001C3.5 14.0001 3.5 14.0001 3.5 14.0001V14.0001V14.0001C3.5 14.0001 3.5 14.0001 3.5 14.0001C3.5 14.0001 3.5 14.0001 3.5 14.0001C3.5 14.0001 3.5 14.0001 3.5 14.0001C3.5 14.0001 3.5 14.0001 3.5 14.0001V14.0001V14.0001C3.5 14.0001 3.5 14.0001 3.5 14.0001C3.5 14.0001 3.5 14.0001 3.5 14.0001C3.5 14.0001 3.5 14.0001 3.5 14.0001C3.5 14.0001 3.5 14.0001 3.5 14.0001V14.0001V14.0001C3.5 14.0001 3.5 14.0001 3.5 14.0001C3.5 14.0001 3.5 14.0001 3.5 14.0001C3.5 14.0001 3.5 14.0001 3.5 14.0001C3.5 14.0001 3.5 14.0001 3.5 14.0001V14.0001V14.0001C3.5 14.0001 3.5 14.0001 3.5 14C3.5 14 3.5 14 3.5 14C3.5 14 3.5 14 3.5 14C3.5 14 3.5 14 3.5 14V14V14C3.5 14 3.5 14 3.5 14C3.5 14 3.5 14 3.5 14C3.5 14 3.5 14 3.5 14C3.5 14 3.5 14 3.5 14V14V14C3.5 14 3.5 14 3.5 14C3.5 14 3.5 14 3.5 14C3.5 14 3.5 14 3.5 14C3.5 14 3.5 14 3.5 14V14V14C3.5 14 3.5 14 3.5 14C3.5 14 3.5 14 3.5 14C3.5 14 3.5 14 3.5 14C3.5 14 3.5 14 3.5 14V14V14C3.5 14 3.5 14 3.5 14C3.5 14 3.5 14 3.5 14C3.5 14 3.5 14 3.5 14C3.5 14 3.5 14 3.5 14V14V14C3.5 14 3.5 14 3.5 14C3.5 14 3.5 14 3.5 14C3.5 14 3.5 14 3.5 14C3.5 14 3.5 14 3.5 14V14V14C3.5 14 3.5 14 3.5 14C3.5 14 3.5 14 3.5 14C3.5 14 3.5 14 3.5 14C3.5 14 3.5 14 3.5 14V14V14C3.5 14 3.5 14 3.5 14C3.5 14 3.5 14 3.5 14C3.5 14 3.5 14 3.5 14C3.5 14 3.5 14 3.5 14V14V14C3.5 14 3.5 14 3.5 14C3.5 14 3.5 14 3.5 14C3.5 14 3.5 14 3.5 14C3.5 14 3.5 14 3.5 14V14H0.5Z" fill="#D3A45D"/>
</svg>
