<svg width="39" height="39" viewBox="0 0 39 39" fill="none" xmlns="http://www.w3.org/2000/svg">
<path d="M2.48877 19.4877L2.48699 17.9877C1.65926 17.9887 0.98877 18.6599 0.98877 19.4877C0.98877 20.3154 1.65926 20.9867 2.48699 20.9877L2.48877 19.4877ZM19.9764 36.9753L18.4764 36.9771C18.4774 37.8048 19.1487 38.4753 19.9764 38.4753C20.8042 38.4753 21.4755 37.8048 21.4764 36.9771L19.9764 36.9753ZM37.4641 19.4877L37.4659 20.9877C38.2936 20.9867 38.9641 20.3154 38.9641 19.4877C38.9641 18.6599 38.2936 17.9887 37.4659 17.9877L37.4641 19.4877ZM19.9764 2L21.4764 1.99822C21.4755 1.17049 20.8042 0.5 19.9764 0.5C19.1487 0.5 18.4774 1.17049 18.4764 1.99822L19.9764 2ZM2.48699 20.9877C11.313 20.9982 18.4659 28.1511 18.4764 36.9771L21.4764 36.9735C21.464 26.4935 12.9706 18.0001 2.49055 17.9877L2.48699 20.9877ZM37.4623 17.9877C26.9822 18.0001 18.4889 26.4935 18.4764 36.9735L21.4764 36.9771C21.4869 28.1511 28.6399 20.9982 37.4659 20.9877L37.4623 17.9877ZM18.4764 2.00178C18.4889 12.4819 26.9822 20.9752 37.4623 20.9877L37.4659 17.9877C28.6399 17.9772 21.4869 10.8242 21.4764 1.99822L18.4764 2.00178ZM2.49055 20.9877C12.9706 20.9752 21.464 12.4819 21.4764 2.00178L18.4764 1.99822C18.4659 10.8242 11.313 17.9772 2.48699 17.9877L2.49055 20.9877Z" fill="#F4F2EB"/>
</svg>
