<svg width="40" height="200" viewBox="0 0 40 200" fill="none" xmlns="http://www.w3.org/2000/svg">
<path fill-rule="evenodd" clip-rule="evenodd" d="M12.4933 5H27.5083C31.645 5 35 8.35333 35 12.4933V27.5083C35 31.645 31.6467 35 27.5067 35H12.4933C8.355 35 5 31.6467 5 27.5067V12.4933C5 8.355 8.35333 5 12.4933 5V5Z" stroke="#D3A45D" stroke-width="2" stroke-linecap="round" stroke-linejoin="round"/>
<path d="M28.2483 11.1883C27.9383 11.19 27.6866 11.4416 27.6866 11.7516C27.6866 12.0616 27.9399 12.3133 28.2499 12.3133C28.5599 12.3133 28.8116 12.0616 28.8116 11.7516C28.8133 11.44 28.5599 11.1883 28.2483 11.1883" stroke="#D3A45D" stroke-width="2" stroke-linecap="round" stroke-linejoin="round"/>
<path d="M24.2426 15.7574C26.5858 18.1005 26.5858 21.8995 24.2426 24.2426C21.8995 26.5858 18.1005 26.5858 15.7574 24.2426C13.4142 21.8995 13.4142 18.1005 15.7574 15.7574C18.1005 13.4142 21.8995 13.4142 24.2426 15.7574" stroke="#D3A45D" stroke-width="2" stroke-linecap="round" stroke-linejoin="round"/>
<path fill-rule="evenodd" clip-rule="evenodd" d="M12.4933 85H27.5083C31.645 85 35 88.3533 35 92.4933V107.508C35 111.645 31.6467 115 27.5067 115H12.4933C8.355 115 5 111.647 5 107.507V92.4933C5 88.355 8.35333 85 12.4933 85V85Z" fill="#D3A45D"/>
<path d="M28.2483 91.1883C27.9383 91.19 27.6866 91.4416 27.6866 91.7516C27.6866 92.0616 27.9399 92.3133 28.2499 92.3133C28.5599 92.3133 28.8116 92.0616 28.8116 91.7516C28.8133 91.44 28.5599 91.1883 28.2483 91.1883" stroke="white" stroke-width="2" stroke-linecap="round" stroke-linejoin="round"/>
<path d="M24.2426 95.7574C26.5858 98.1005 26.5858 101.899 24.2426 104.243C21.8995 106.586 18.1005 106.586 15.7574 104.243C13.4142 101.899 13.4142 98.1005 15.7574 95.7574C18.1005 93.4142 21.8995 93.4142 24.2426 95.7574" stroke="white" stroke-width="2" stroke-linecap="round" stroke-linejoin="round"/>
<path fill-rule="evenodd" clip-rule="evenodd" d="M12.4933 165H27.5083C31.645 165 35 168.353 35 172.493V187.508C35 191.645 31.6467 195 27.5067 195H12.4933C8.355 195 5 191.647 5 187.507V172.493C5 168.355 8.35333 165 12.4933 165V165Z" fill="#AB7C44"/>
<path d="M28.2483 171.188C27.9383 171.19 27.6866 171.442 27.6866 171.752C27.6866 172.062 27.9399 172.313 28.2499 172.313C28.5599 172.313 28.8116 172.062 28.8116 171.752C28.8133 171.44 28.5599 171.188 28.2483 171.188" stroke="white" stroke-width="2" stroke-linecap="round" stroke-linejoin="round"/>
<path d="M24.2426 175.757C26.5858 178.101 26.5858 181.899 24.2426 184.243C21.8995 186.586 18.1005 186.586 15.7574 184.243C13.4142 181.899 13.4142 178.101 15.7574 175.757C18.1005 173.414 21.8995 173.414 24.2426 175.757" stroke="white" stroke-width="2" stroke-linecap="round" stroke-linejoin="round"/>
</svg>
