<svg width="94" height="71" viewBox="0 0 94 71" fill="none" xmlns="http://www.w3.org/2000/svg">
<path d="M92 28.9995L85.9993 35.0002" stroke="#D3A45D" stroke-width="2" stroke-linecap="square"/>
<path d="M92 35.0005L85.9993 28.9998" stroke="#D3A45D" stroke-width="2" stroke-linecap="square"/>
<path d="M15.9993 40L1.99999 53.9993" stroke="#D3A45D" stroke-width="2" stroke-linecap="square"/>
<path d="M15.9993 54L1.99999 40.0007" stroke="#D3A45D" stroke-width="2" stroke-linecap="square"/>
<path d="M29.4958 48.4368L28.4352 47.3762L29.4958 48.4368ZM41.8702 36.0624L42.9308 37.1231L41.8702 36.0624ZM51.0626 26.8701L52.1232 27.9307L51.0626 26.8701ZM63.4369 14.4957L62.3763 13.435L63.4369 14.4957ZM63.7905 15.5563L70.1545 21.9203L72.2758 19.799L65.9118 13.435L63.7905 15.5563ZM52.1232 27.9307L64.4976 15.5563L62.3763 13.435L50.0019 25.8094L52.1232 27.9307ZM36.2133 15.5563L48.5877 27.9307L50.709 25.8094L38.3347 13.435L36.2133 15.5563ZM30.5565 21.9203L36.9204 15.5563L34.7991 13.435L28.4352 19.799L30.5565 21.9203ZM42.9308 33.5876L30.5565 21.2132L28.4352 23.3345L40.8095 35.7089L42.9308 33.5876ZM30.5565 49.4975L42.9308 37.1231L40.8095 35.0018L28.4352 47.3762L30.5565 49.4975ZM36.9204 55.1543L30.5565 48.7904L28.4352 50.9117L34.7991 57.2756L36.9204 55.1543ZM48.5877 42.78L36.2133 55.1543L38.3347 57.2756L50.709 44.9013L48.5877 42.78ZM64.4976 55.1543L52.1232 42.78L50.0019 44.9013L62.3763 57.2756L64.4976 55.1543ZM70.1545 48.7904L63.7905 55.1543L65.9118 57.2756L72.2758 50.9117L70.1545 48.7904ZM57.7801 37.1231L70.1545 49.4975L72.2758 47.3762L59.9014 35.0018L57.7801 37.1231ZM70.1545 21.2132L57.7801 33.5876L59.9014 35.7089L72.2758 23.3345L70.1545 21.2132ZM59.9014 35.0018C60.0967 35.197 60.0967 35.5136 59.9014 35.7089L57.7801 33.5876C56.8038 34.5639 56.8038 36.1468 57.7801 37.1231L59.9014 35.0018ZM72.2758 50.9117C73.2521 49.9354 73.2521 48.3525 72.2758 47.3762L70.1545 49.4975C69.9592 49.3022 69.9592 48.9856 70.1545 48.7904L72.2758 50.9117ZM62.3763 57.2756C63.3526 58.252 64.9355 58.252 65.9118 57.2756L63.7905 55.1543C63.9858 54.9591 64.3023 54.9591 64.4976 55.1543L62.3763 57.2756ZM50.709 44.9013C50.5138 45.0965 50.1972 45.0965 50.0019 44.9013L52.1232 42.78C51.1469 41.8036 49.564 41.8036 48.5877 42.78L50.709 44.9013ZM34.7991 57.2756C35.7754 58.252 37.3583 58.252 38.3347 57.2756L36.2133 55.1543C36.4086 54.9591 36.7252 54.9591 36.9204 55.1543L34.7991 57.2756ZM28.4352 47.3762C27.4588 48.3525 27.4588 49.9354 28.4352 50.9117L30.5565 48.7904C30.7517 48.9856 30.7517 49.3022 30.5565 49.4975L28.4352 47.3762ZM40.8095 35.7089C40.6143 35.5136 40.6143 35.197 40.8095 35.0018L42.9308 37.1231C43.9072 36.1468 43.9072 34.5639 42.9308 33.5876L40.8095 35.7089ZM28.4352 19.799C27.4588 20.7753 27.4588 22.3582 28.4352 23.3345L30.5565 21.2132C30.7517 21.4085 30.7517 21.725 30.5565 21.9203L28.4352 19.799ZM38.3347 13.435C37.3583 12.4587 35.7754 12.4587 34.7991 13.435L36.9204 15.5563C36.7252 15.7516 36.4086 15.7516 36.2133 15.5563L38.3347 13.435ZM50.0019 25.8094C50.1972 25.6141 50.5138 25.6141 50.709 25.8094L48.5877 27.9307C49.564 28.907 51.1469 28.907 52.1232 27.9307L50.0019 25.8094ZM70.1545 21.9203C69.9592 21.725 69.9592 21.4085 70.1545 21.2132L72.2758 23.3345C73.2521 22.3582 73.2521 20.7753 72.2758 19.799L70.1545 21.9203ZM65.9118 13.435C64.9355 12.4587 63.3526 12.4587 62.3763 13.435L64.4976 15.5563C64.3023 15.7516 63.9858 15.7516 63.7905 15.5563L65.9118 13.435Z" fill="#D3A45D"/>
</svg>
