<svg width="100" height="76" viewBox="0 0 100 76" fill="none" xmlns="http://www.w3.org/2000/svg">
<path d="M15.5 50C15.5 49.1716 14.8284 48.5 14 48.5C13.1716 48.5 12.5 49.1716 12.5 50H15.5ZM2 62V60.5C1.17157 60.5 0.5 61.1716 0.5 62H2ZM26 63.5004C26.8284 63.5004 27.5 62.8288 27.5 62.0004C27.5 61.172 26.8284 60.5004 26 60.5004V63.5004ZM14 74L12.5 74.0001C12.5 74.8285 13.1716 75.5 14 75.5C14.8284 75.5 15.5 74.8285 15.5 74.0001L14 74ZM2 62.0004H0.5C0.5 62.8288 1.17157 63.5004 2 63.5004L2 62.0004ZM12.5 50C12.5 55.799 7.79899 60.5 2 60.5V63.5C9.45584 63.5 15.5 57.4558 15.5 50H12.5ZM15.5 50.0004V50H12.5V50.0004H15.5ZM26 60.5004C20.201 60.5004 15.5 55.7994 15.5 50.0004H12.5C12.5 57.4563 18.5442 63.5004 26 63.5004V60.5004ZM15.5 74.0001C15.5002 68.2012 20.2011 63.5004 26 63.5004V60.5004C18.5443 60.5004 12.5003 66.5443 12.5 73.9999L15.5 74.0001ZM2 63.5004C7.79887 63.5004 12.4998 68.2012 12.5 74.0001L15.5 73.9999C15.4997 66.5443 9.45569 60.5004 2 60.5004V63.5004ZM0.5 62V62C0.5 62 0.5 62 0.5 62C0.5 62 0.5 62 0.5 62C0.5 62 0.5 62 0.5 62C0.5 62 0.5 62 0.5 62V62V62C0.5 62 0.5 62 0.5 62C0.5 62 0.5 62 0.5 62C0.5 62 0.5 62 0.5 62C0.5 62 0.5 62 0.5 62V62V62C0.5 62 0.5 62 0.5 62C0.5 62 0.5 62 0.5 62C0.5 62 0.5 62 0.5 62C0.5 62 0.5 62 0.5 62V62V62C0.5 62 0.5 62 0.5 62C0.5 62 0.5 62 0.5 62C0.5 62 0.5 62 0.5 62C0.5 62 0.5 62 0.5 62V62V62C0.5 62 0.5 62 0.5 62C0.5 62 0.5 62 0.5 62C0.5 62 0.5 62 0.5 62C0.5 62 0.5 62 0.5 62V62V62C0.5 62 0.5 62 0.5 62C0.5 62 0.5 62 0.5 62C0.5 62 0.5 62 0.5 62C0.5 62 0.5 62 0.5 62V62V62C0.5 62 0.5 62 0.5 62C0.5 62 0.5 62 0.5 62C0.5 62 0.5 62 0.5 62C0.5 62 0.5 62 0.5 62V62V62C0.5 62 0.5 62 0.5 62C0.5 62 0.5 62 0.5 62C0.5 62 0.5 62 0.5 62C0.5 62 0.5 62 0.5 62V62V62C0.5 62 0.5 62 0.5 62C0.5 62 0.5 62 0.5 62C0.5 62 0.5 62 0.5 62C0.5 62.0001 0.5 62.0001 0.5 62.0001V62.0001V62.0001C0.5 62.0001 0.5 62.0001 0.5 62.0001C0.5 62.0001 0.5 62.0001 0.5 62.0001C0.5 62.0001 0.5 62.0001 0.5 62.0001C0.5 62.0001 0.5 62.0001 0.5 62.0001V62.0001V62.0001C0.5 62.0001 0.5 62.0001 0.5 62.0001C0.5 62.0001 0.5 62.0001 0.5 62.0001C0.5 62.0001 0.5 62.0001 0.5 62.0001C0.5 62.0001 0.5 62.0001 0.5 62.0001V62.0001V62.0001C0.5 62.0001 0.5 62.0001 0.5 62.0001C0.5 62.0001 0.5 62.0001 0.5 62.0001C0.5 62.0001 0.5 62.0001 0.5 62.0001C0.5 62.0001 0.5 62.0001 0.5 62.0001V62.0001V62.0001C0.5 62.0001 0.5 62.0001 0.5 62.0001C0.5 62.0001 0.5 62.0001 0.5 62.0001C0.5 62.0001 0.5 62.0001 0.5 62.0001C0.5 62.0001 0.5 62.0001 0.5 62.0001V62.0001V62.0001C0.5 62.0001 0.5 62.0001 0.5 62.0001C0.5 62.0001 0.5 62.0001 0.5 62.0001C0.5 62.0001 0.5 62.0001 0.5 62.0001C0.5 62.0001 0.5 62.0001 0.5 62.0001V62.0001V62.0001C0.5 62.0001 0.5 62.0001 0.5 62.0001C0.5 62.0001 0.5 62.0001 0.5 62.0001C0.5 62.0001 0.5 62.0001 0.5 62.0001C0.5 62.0001 0.5 62.0001 0.5 62.0001V62.0001V62.0001C0.5 62.0001 0.5 62.0001 0.5 62.0001C0.5 62.0001 0.5 62.0001 0.5 62.0001C0.5 62.0001 0.5 62.0001 0.5 62.0001C0.5 62.0001 0.5 62.0001 0.5 62.0001V62.0001V62.0001C0.5 62.0001 0.5 62.0001 0.5 62.0001C0.5 62.0001 0.5 62.0001 0.5 62.0001C0.5 62.0001 0.5 62.0001 0.5 62.0001C0.5 62.0001 0.5 62.0001 0.5 62.0001V62.0001V62.0001C0.5 62.0001 0.5 62.0001 0.5 62.0001C0.5 62.0001 0.5 62.0001 0.5 62.0001C0.5 62.0001 0.5 62.0001 0.5 62.0001C0.5 62.0001 0.5 62.0001 0.5 62.0001V62.0001V62.0001C0.5 62.0001 0.5 62.0001 0.5 62.0001C0.5 62.0001 0.5 62.0001 0.5 62.0001C0.5 62.0001 0.5 62.0001 0.5 62.0001C0.5 62.0001 0.5 62.0001 0.5 62.0001V62.0001V62.0001C0.5 62.0001 0.5 62.0001 0.5 62.0001C0.5 62.0001 0.5 62.0001 0.5 62.0001C0.5 62.0001 0.5 62.0001 0.5 62.0001C0.5 62.0001 0.5 62.0001 0.5 62.0001V62.0001V62.0001C0.5 62.0001 0.5 62.0001 0.5 62.0001C0.5 62.0001 0.5 62.0001 0.5 62.0001C0.5 62.0001 0.5 62.0001 0.5 62.0001C0.5 62.0001 0.5 62.0001 0.5 62.0001V62.0001V62.0001C0.5 62.0001 0.5 62.0001 0.5 62.0001C0.5 62.0001 0.5 62.0001 0.5 62.0001C0.5 62.0001 0.5 62.0001 0.5 62.0001C0.5 62.0001 0.5 62.0001 0.5 62.0001V62.0001V62.0001C0.5 62.0001 0.5 62.0001 0.5 62.0001C0.5 62.0001 0.5 62.0001 0.5 62.0001C0.5 62.0001 0.5 62.0001 0.5 62.0001C0.5 62.0001 0.5 62.0001 0.5 62.0001V62.0001V62.0001C0.5 62.0001 0.5 62.0001 0.5 62.0001C0.5 62.0001 0.5 62.0001 0.5 62.0001C0.5 62.0001 0.5 62.0001 0.5 62.0001C0.5 62.0001 0.5 62.0001 0.5 62.0001V62.0001V62.0001C0.5 62.0001 0.5 62.0001 0.5 62.0001C0.5 62.0001 0.5 62.0001 0.5 62.0001C0.5 62.0001 0.5 62.0001 0.5 62.0001C0.5 62.0001 0.5 62.0001 0.5 62.0001V62.0001V62.0001C0.5 62.0001 0.5 62.0001 0.5 62.0001C0.5 62.0001 0.5 62.0001 0.5 62.0001C0.5 62.0001 0.5 62.0001 0.5 62.0001C0.5 62.0001 0.5 62.0001 0.5 62.0001V62.0001V62.0001C0.5 62.0001 0.5 62.0001 0.5 62.0002C0.5 62.0002 0.5 62.0002 0.5 62.0002C0.5 62.0002 0.5 62.0002 0.5 62.0002C0.5 62.0002 0.5 62.0002 0.5 62.0002V62.0002V62.0002C0.5 62.0002 0.5 62.0002 0.5 62.0002C0.5 62.0002 0.5 62.0002 0.5 62.0002C0.5 62.0002 0.5 62.0002 0.5 62.0002C0.5 62.0002 0.5 62.0002 0.5 62.0002V62.0002V62.0002C0.5 62.0002 0.5 62.0002 0.5 62.0002C0.5 62.0002 0.5 62.0002 0.5 62.0002C0.5 62.0002 0.5 62.0002 0.5 62.0002C0.5 62.0002 0.5 62.0002 0.5 62.0002V62.0002V62.0002C0.5 62.0002 0.5 62.0002 0.5 62.0002C0.5 62.0002 0.5 62.0002 0.5 62.0002C0.5 62.0002 0.5 62.0002 0.5 62.0002C0.5 62.0002 0.5 62.0002 0.5 62.0002V62.0002V62.0002C0.5 62.0002 0.5 62.0002 0.5 62.0002C0.5 62.0002 0.5 62.0002 0.5 62.0002C0.5 62.0002 0.5 62.0002 0.5 62.0002C0.5 62.0002 0.5 62.0002 0.5 62.0002V62.0002V62.0002C0.5 62.0002 0.5 62.0002 0.5 62.0002C0.5 62.0002 0.5 62.0002 0.5 62.0002C0.5 62.0002 0.5 62.0002 0.5 62.0002C0.5 62.0002 0.5 62.0002 0.5 62.0002V62.0002V62.0002C0.5 62.0002 0.5 62.0002 0.5 62.0002C0.5 62.0002 0.5 62.0002 0.5 62.0002C0.5 62.0002 0.5 62.0002 0.5 62.0002C0.5 62.0002 0.5 62.0002 0.5 62.0002V62.0002V62.0002C0.5 62.0002 0.5 62.0002 0.5 62.0002C0.5 62.0002 0.5 62.0002 0.5 62.0002C0.5 62.0002 0.5 62.0002 0.5 62.0002C0.5 62.0002 0.5 62.0002 0.5 62.0002V62.0002V62.0002C0.5 62.0002 0.5 62.0002 0.5 62.0002C0.5 62.0002 0.5 62.0002 0.5 62.0002C0.5 62.0002 0.5 62.0002 0.5 62.0002C0.5 62.0002 0.5 62.0002 0.5 62.0002V62.0002V62.0002C0.5 62.0002 0.5 62.0002 0.5 62.0002C0.5 62.0002 0.5 62.0002 0.5 62.0002C0.5 62.0002 0.5 62.0002 0.5 62.0002C0.5 62.0002 0.5 62.0002 0.5 62.0002V62.0002V62.0002C0.5 62.0002 0.5 62.0002 0.5 62.0002C0.5 62.0002 0.5 62.0002 0.5 62.0002C0.5 62.0002 0.5 62.0002 0.5 62.0002C0.5 62.0002 0.5 62.0002 0.5 62.0002C0.5 62.0002 0.5 62.0002 0.5 62.0002V62.0002V62.0002C0.5 62.0002 0.5 62.0002 0.5 62.0002C0.5 62.0002 0.5 62.0002 0.5 62.0002C0.5 62.0002 0.5 62.0002 0.5 62.0002C0.5 62.0002 0.5 62.0002 0.5 62.0002V62.0002V62.0002C0.5 62.0002 0.5 62.0002 0.5 62.0002C0.5 62.0002 0.5 62.0002 0.5 62.0002C0.5 62.0002 0.5 62.0002 0.5 62.0002C0.5 62.0002 0.5 62.0002 0.5 62.0002V62.0002V62.0002C0.5 62.0002 0.5 62.0002 0.5 62.0002C0.5 62.0002 0.5 62.0002 0.5 62.0002C0.5 62.0002 0.5 62.0002 0.5 62.0002C0.5 62.0002 0.5 62.0002 0.5 62.0002V62.0002V62.0002C0.5 62.0002 0.5 62.0002 0.5 62.0002C0.5 62.0002 0.5 62.0002 0.5 62.0002C0.5 62.0002 0.5 62.0002 0.5 62.0002C0.5 62.0002 0.5 62.0002 0.5 62.0002V62.0002V62.0002C0.5 62.0002 0.5 62.0002 0.5 62.0002C0.5 62.0002 0.5 62.0002 0.5 62.0002C0.5 62.0002 0.5 62.0002 0.5 62.0002C0.5 62.0002 0.5 62.0002 0.5 62.0002V62.0002V62.0002C0.5 62.0002 0.5 62.0002 0.5 62.0002C0.5 62.0002 0.5 62.0002 0.5 62.0002C0.5 62.0002 0.5 62.0002 0.5 62.0002C0.5 62.0002 0.5 62.0002 0.5 62.0002V62.0002V62.0002C0.5 62.0002 0.5 62.0002 0.5 62.0002C0.5 62.0002 0.5 62.0002 0.5 62.0002C0.5 62.0003 0.5 62.0003 0.5 62.0003C0.5 62.0003 0.5 62.0003 0.5 62.0003V62.0003V62.0003C0.5 62.0003 0.5 62.0003 0.5 62.0003C0.5 62.0003 0.5 62.0003 0.5 62.0003C0.5 62.0003 0.5 62.0003 0.5 62.0003C0.5 62.0003 0.5 62.0003 0.5 62.0003V62.0003V62.0003C0.5 62.0003 0.5 62.0003 0.5 62.0003C0.5 62.0003 0.5 62.0003 0.5 62.0003C0.5 62.0003 0.5 62.0003 0.5 62.0003C0.5 62.0003 0.5 62.0003 0.5 62.0003V62.0003V62.0003C0.5 62.0003 0.5 62.0003 0.5 62.0003C0.5 62.0003 0.5 62.0003 0.5 62.0003C0.5 62.0003 0.5 62.0003 0.5 62.0003C0.5 62.0003 0.5 62.0003 0.5 62.0003V62.0003V62.0003C0.5 62.0003 0.5 62.0003 0.5 62.0003C0.5 62.0003 0.5 62.0003 0.5 62.0003C0.5 62.0003 0.5 62.0003 0.5 62.0003C0.5 62.0003 0.5 62.0003 0.5 62.0003V62.0003V62.0003C0.5 62.0003 0.5 62.0003 0.5 62.0003C0.5 62.0003 0.5 62.0003 0.5 62.0003C0.5 62.0003 0.5 62.0003 0.5 62.0003C0.5 62.0003 0.5 62.0003 0.5 62.0003V62.0003V62.0003C0.5 62.0003 0.5 62.0003 0.5 62.0003C0.5 62.0003 0.5 62.0003 0.5 62.0003C0.5 62.0003 0.5 62.0003 0.5 62.0003C0.5 62.0003 0.5 62.0003 0.5 62.0003V62.0003V62.0003C0.5 62.0003 0.5 62.0003 0.5 62.0003C0.5 62.0003 0.5 62.0003 0.5 62.0003C0.5 62.0003 0.5 62.0003 0.5 62.0003C0.5 62.0003 0.5 62.0003 0.5 62.0003V62.0003V62.0003C0.5 62.0003 0.5 62.0003 0.5 62.0003C0.5 62.0003 0.5 62.0003 0.5 62.0003C0.5 62.0003 0.5 62.0003 0.5 62.0003C0.5 62.0003 0.5 62.0003 0.5 62.0003V62.0003V62.0003C0.5 62.0003 0.5 62.0003 0.5 62.0003C0.5 62.0003 0.5 62.0003 0.5 62.0003C0.5 62.0003 0.5 62.0003 0.5 62.0003C0.5 62.0003 0.5 62.0003 0.5 62.0003V62.0003V62.0003C0.5 62.0003 0.5 62.0003 0.5 62.0003C0.5 62.0003 0.5 62.0003 0.5 62.0003C0.5 62.0003 0.5 62.0003 0.5 62.0003C0.5 62.0003 0.5 62.0003 0.5 62.0003V62.0003V62.0003C0.5 62.0003 0.5 62.0003 0.5 62.0003C0.5 62.0003 0.5 62.0003 0.5 62.0003C0.5 62.0003 0.5 62.0003 0.5 62.0003C0.5 62.0003 0.5 62.0003 0.5 62.0003V62.0003V62.0003C0.5 62.0003 0.5 62.0003 0.5 62.0003C0.5 62.0003 0.5 62.0003 0.5 62.0003C0.5 62.0003 0.5 62.0003 0.5 62.0003C0.5 62.0003 0.5 62.0003 0.5 62.0003V62.0003V62.0003C0.5 62.0003 0.5 62.0003 0.5 62.0003C0.5 62.0003 0.5 62.0003 0.5 62.0003C0.5 62.0003 0.5 62.0003 0.5 62.0003C0.5 62.0003 0.5 62.0003 0.5 62.0003V62.0003V62.0003C0.5 62.0003 0.5 62.0003 0.5 62.0003C0.5 62.0003 0.5 62.0003 0.5 62.0003C0.5 62.0003 0.5 62.0003 0.5 62.0003C0.5 62.0003 0.5 62.0003 0.5 62.0003V62.0003V62.0003C0.5 62.0003 0.5 62.0003 0.5 62.0003C0.5 62.0003 0.5 62.0003 0.5 62.0003C0.5 62.0003 0.5 62.0003 0.5 62.0003C0.5 62.0003 0.5 62.0003 0.5 62.0003V62.0003V62.0003C0.5 62.0003 0.5 62.0003 0.5 62.0003C0.5 62.0003 0.5 62.0003 0.5 62.0003C0.5 62.0003 0.5 62.0003 0.5 62.0003C0.5 62.0003 0.5 62.0003 0.5 62.0003V62.0003V62.0003C0.5 62.0003 0.5 62.0003 0.5 62.0003C0.5 62.0003 0.5 62.0003 0.5 62.0003C0.5 62.0003 0.5 62.0003 0.5 62.0003C0.5 62.0003 0.5 62.0003 0.5 62.0003V62.0003V62.0004C0.5 62.0004 0.5 62.0004 0.5 62.0004C0.5 62.0004 0.5 62.0004 0.5 62.0004C0.5 62.0004 0.5 62.0004 0.5 62.0004C0.5 62.0004 0.5 62.0004 0.5 62.0004V62.0004V62.0004C0.5 62.0004 0.5 62.0004 0.5 62.0004C0.5 62.0004 0.5 62.0004 0.5 62.0004C0.5 62.0004 0.5 62.0004 0.5 62.0004C0.5 62.0004 0.5 62.0004 0.5 62.0004V62.0004V62.0004C0.5 62.0004 0.5 62.0004 0.5 62.0004C0.5 62.0004 0.5 62.0004 0.5 62.0004C0.5 62.0004 0.5 62.0004 0.5 62.0004C0.5 62.0004 0.5 62.0004 0.5 62.0004V62.0004V62.0004C0.5 62.0004 0.5 62.0004 0.5 62.0004C0.5 62.0004 0.5 62.0004 0.5 62.0004C0.5 62.0004 0.5 62.0004 0.5 62.0004C0.5 62.0004 0.5 62.0004 0.5 62.0004V62.0004V62.0004C0.5 62.0004 0.5 62.0004 0.5 62.0004C0.5 62.0004 0.5 62.0004 0.5 62.0004C0.5 62.0004 0.5 62.0004 0.5 62.0004C0.5 62.0004 0.5 62.0004 0.5 62.0004V62.0004V62.0004C0.5 62.0004 0.5 62.0004 0.5 62.0004C0.5 62.0004 0.5 62.0004 0.5 62.0004C0.5 62.0004 0.5 62.0004 0.5 62.0004C0.5 62.0004 0.5 62.0004 0.5 62.0004V62.0004V62.0004C0.5 62.0004 0.5 62.0004 0.5 62.0004C0.5 62.0004 0.5 62.0004 0.5 62.0004C0.5 62.0004 0.5 62.0004 0.5 62.0004C0.5 62.0004 0.5 62.0004 0.5 62.0004V62.0004V62.0004C0.5 62.0004 0.5 62.0004 0.5 62.0004C0.5 62.0004 0.5 62.0004 0.5 62.0004C0.5 62.0004 0.5 62.0004 0.5 62.0004C0.5 62.0004 0.5 62.0004 0.5 62.0004V62.0004V62.0004C0.5 62.0004 0.5 62.0004 0.5 62.0004C0.5 62.0004 0.5 62.0004 0.5 62.0004C0.5 62.0004 0.5 62.0004 0.5 62.0004C0.5 62.0004 0.5 62.0004 0.5 62.0004V62.0004V62.0004C0.5 62.0004 0.5 62.0004 0.5 62.0004C0.5 62.0004 0.5 62.0004 0.5 62.0004C0.5 62.0004 0.5 62.0004 0.5 62.0004C0.5 62.0004 0.5 62.0004 0.5 62.0004V62.0004V62.0004C0.5 62.0004 0.5 62.0004 0.5 62.0004C0.5 62.0004 0.5 62.0004 0.5 62.0004C0.5 62.0004 0.5 62.0004 0.5 62.0004C0.5 62.0004 0.5 62.0004 0.5 62.0004V62.0004V62.0004C0.5 62.0004 0.5 62.0004 0.5 62.0004C0.5 62.0004 0.5 62.0004 0.5 62.0004C0.5 62.0004 0.5 62.0004 0.5 62.0004C0.5 62.0004 0.5 62.0004 0.5 62.0004V62.0004H3.5V62.0004C3.5 62.0004 3.5 62.0004 3.5 62.0004C3.5 62.0004 3.5 62.0004 3.5 62.0004C3.5 62.0004 3.5 62.0004 3.5 62.0004C3.5 62.0004 3.5 62.0004 3.5 62.0004V62.0004V62.0004C3.5 62.0004 3.5 62.0004 3.5 62.0004C3.5 62.0004 3.5 62.0004 3.5 62.0004C3.5 62.0004 3.5 62.0004 3.5 62.0004C3.5 62.0004 3.5 62.0004 3.5 62.0004V62.0004V62.0004C3.5 62.0004 3.5 62.0004 3.5 62.0004C3.5 62.0004 3.5 62.0004 3.5 62.0004C3.5 62.0004 3.5 62.0004 3.5 62.0004C3.5 62.0004 3.5 62.0004 3.5 62.0004V62.0004V62.0004C3.5 62.0004 3.5 62.0004 3.5 62.0004C3.5 62.0004 3.5 62.0004 3.5 62.0004C3.5 62.0004 3.5 62.0004 3.5 62.0004C3.5 62.0004 3.5 62.0004 3.5 62.0004V62.0004V62.0004C3.5 62.0004 3.5 62.0004 3.5 62.0004C3.5 62.0004 3.5 62.0004 3.5 62.0004C3.5 62.0004 3.5 62.0004 3.5 62.0004C3.5 62.0004 3.5 62.0004 3.5 62.0004V62.0004V62.0004C3.5 62.0004 3.5 62.0004 3.5 62.0004C3.5 62.0004 3.5 62.0004 3.5 62.0004C3.5 62.0004 3.5 62.0004 3.5 62.0004C3.5 62.0004 3.5 62.0004 3.5 62.0004V62.0004V62.0004C3.5 62.0004 3.5 62.0004 3.5 62.0004C3.5 62.0004 3.5 62.0004 3.5 62.0004C3.5 62.0004 3.5 62.0004 3.5 62.0004C3.5 62.0004 3.5 62.0004 3.5 62.0004V62.0004V62.0004C3.5 62.0004 3.5 62.0004 3.5 62.0004C3.5 62.0004 3.5 62.0004 3.5 62.0004C3.5 62.0004 3.5 62.0004 3.5 62.0004C3.5 62.0004 3.5 62.0004 3.5 62.0004V62.0004V62.0004C3.5 62.0004 3.5 62.0004 3.5 62.0004C3.5 62.0004 3.5 62.0004 3.5 62.0004C3.5 62.0004 3.5 62.0004 3.5 62.0004C3.5 62.0004 3.5 62.0004 3.5 62.0004V62.0004V62.0004C3.5 62.0004 3.5 62.0004 3.5 62.0004C3.5 62.0004 3.5 62.0004 3.5 62.0004C3.5 62.0004 3.5 62.0004 3.5 62.0004C3.5 62.0004 3.5 62.0004 3.5 62.0004V62.0004V62.0004C3.5 62.0004 3.5 62.0004 3.5 62.0004C3.5 62.0004 3.5 62.0004 3.5 62.0004C3.5 62.0004 3.5 62.0004 3.5 62.0004C3.5 62.0004 3.5 62.0004 3.5 62.0004V62.0004V62.0004C3.5 62.0004 3.5 62.0004 3.5 62.0004C3.5 62.0004 3.5 62.0004 3.5 62.0004C3.5 62.0004 3.5 62.0004 3.5 62.0004C3.5 62.0004 3.5 62.0004 3.5 62.0004V62.0003V62.0003C3.5 62.0003 3.5 62.0003 3.5 62.0003C3.5 62.0003 3.5 62.0003 3.5 62.0003C3.5 62.0003 3.5 62.0003 3.5 62.0003C3.5 62.0003 3.5 62.0003 3.5 62.0003V62.0003V62.0003C3.5 62.0003 3.5 62.0003 3.5 62.0003C3.5 62.0003 3.5 62.0003 3.5 62.0003C3.5 62.0003 3.5 62.0003 3.5 62.0003C3.5 62.0003 3.5 62.0003 3.5 62.0003V62.0003V62.0003C3.5 62.0003 3.5 62.0003 3.5 62.0003C3.5 62.0003 3.5 62.0003 3.5 62.0003C3.5 62.0003 3.5 62.0003 3.5 62.0003C3.5 62.0003 3.5 62.0003 3.5 62.0003V62.0003V62.0003C3.5 62.0003 3.5 62.0003 3.5 62.0003C3.5 62.0003 3.5 62.0003 3.5 62.0003C3.5 62.0003 3.5 62.0003 3.5 62.0003C3.5 62.0003 3.5 62.0003 3.5 62.0003V62.0003V62.0003C3.5 62.0003 3.5 62.0003 3.5 62.0003C3.5 62.0003 3.5 62.0003 3.5 62.0003C3.5 62.0003 3.5 62.0003 3.5 62.0003C3.5 62.0003 3.5 62.0003 3.5 62.0003V62.0003V62.0003C3.5 62.0003 3.5 62.0003 3.5 62.0003C3.5 62.0003 3.5 62.0003 3.5 62.0003C3.5 62.0003 3.5 62.0003 3.5 62.0003C3.5 62.0003 3.5 62.0003 3.5 62.0003V62.0003V62.0003C3.5 62.0003 3.5 62.0003 3.5 62.0003C3.5 62.0003 3.5 62.0003 3.5 62.0003C3.5 62.0003 3.5 62.0003 3.5 62.0003C3.5 62.0003 3.5 62.0003 3.5 62.0003V62.0003V62.0003C3.5 62.0003 3.5 62.0003 3.5 62.0003C3.5 62.0003 3.5 62.0003 3.5 62.0003C3.5 62.0003 3.5 62.0003 3.5 62.0003C3.5 62.0003 3.5 62.0003 3.5 62.0003V62.0003V62.0003C3.5 62.0003 3.5 62.0003 3.5 62.0003C3.5 62.0003 3.5 62.0003 3.5 62.0003C3.5 62.0003 3.5 62.0003 3.5 62.0003C3.5 62.0003 3.5 62.0003 3.5 62.0003V62.0003V62.0003C3.5 62.0003 3.5 62.0003 3.5 62.0003C3.5 62.0003 3.5 62.0003 3.5 62.0003C3.5 62.0003 3.5 62.0003 3.5 62.0003C3.5 62.0003 3.5 62.0003 3.5 62.0003V62.0003V62.0003C3.5 62.0003 3.5 62.0003 3.5 62.0003C3.5 62.0003 3.5 62.0003 3.5 62.0003C3.5 62.0003 3.5 62.0003 3.5 62.0003C3.5 62.0003 3.5 62.0003 3.5 62.0003V62.0003V62.0003C3.5 62.0003 3.5 62.0003 3.5 62.0003C3.5 62.0003 3.5 62.0003 3.5 62.0003C3.5 62.0003 3.5 62.0003 3.5 62.0003C3.5 62.0003 3.5 62.0003 3.5 62.0003V62.0003V62.0003C3.5 62.0003 3.5 62.0003 3.5 62.0003C3.5 62.0003 3.5 62.0003 3.5 62.0003C3.5 62.0003 3.5 62.0003 3.5 62.0003C3.5 62.0003 3.5 62.0003 3.5 62.0003V62.0003V62.0003C3.5 62.0003 3.5 62.0003 3.5 62.0003C3.5 62.0003 3.5 62.0003 3.5 62.0003C3.5 62.0003 3.5 62.0003 3.5 62.0003C3.5 62.0003 3.5 62.0003 3.5 62.0003V62.0003V62.0003C3.5 62.0003 3.5 62.0003 3.5 62.0003C3.5 62.0003 3.5 62.0003 3.5 62.0003C3.5 62.0003 3.5 62.0003 3.5 62.0003C3.5 62.0003 3.5 62.0003 3.5 62.0003V62.0003V62.0003C3.5 62.0003 3.5 62.0003 3.5 62.0003C3.5 62.0003 3.5 62.0003 3.5 62.0003C3.5 62.0003 3.5 62.0003 3.5 62.0003C3.5 62.0003 3.5 62.0003 3.5 62.0003V62.0003V62.0003C3.5 62.0003 3.5 62.0003 3.5 62.0003C3.5 62.0003 3.5 62.0003 3.5 62.0003C3.5 62.0003 3.5 62.0003 3.5 62.0003C3.5 62.0003 3.5 62.0003 3.5 62.0003V62.0003V62.0003C3.5 62.0003 3.5 62.0003 3.5 62.0003C3.5 62.0003 3.5 62.0003 3.5 62.0002C3.5 62.0002 3.5 62.0002 3.5 62.0002C3.5 62.0002 3.5 62.0002 3.5 62.0002V62.0002V62.0002C3.5 62.0002 3.5 62.0002 3.5 62.0002C3.5 62.0002 3.5 62.0002 3.5 62.0002C3.5 62.0002 3.5 62.0002 3.5 62.0002C3.5 62.0002 3.5 62.0002 3.5 62.0002V62.0002V62.0002C3.5 62.0002 3.5 62.0002 3.5 62.0002C3.5 62.0002 3.5 62.0002 3.5 62.0002C3.5 62.0002 3.5 62.0002 3.5 62.0002C3.5 62.0002 3.5 62.0002 3.5 62.0002V62.0002V62.0002C3.5 62.0002 3.5 62.0002 3.5 62.0002C3.5 62.0002 3.5 62.0002 3.5 62.0002C3.5 62.0002 3.5 62.0002 3.5 62.0002C3.5 62.0002 3.5 62.0002 3.5 62.0002V62.0002V62.0002C3.5 62.0002 3.5 62.0002 3.5 62.0002C3.5 62.0002 3.5 62.0002 3.5 62.0002C3.5 62.0002 3.5 62.0002 3.5 62.0002C3.5 62.0002 3.5 62.0002 3.5 62.0002V62.0002V62.0002C3.5 62.0002 3.5 62.0002 3.5 62.0002C3.5 62.0002 3.5 62.0002 3.5 62.0002C3.5 62.0002 3.5 62.0002 3.5 62.0002C3.5 62.0002 3.5 62.0002 3.5 62.0002V62.0002V62.0002C3.5 62.0002 3.5 62.0002 3.5 62.0002C3.5 62.0002 3.5 62.0002 3.5 62.0002C3.5 62.0002 3.5 62.0002 3.5 62.0002C3.5 62.0002 3.5 62.0002 3.5 62.0002V62.0002V62.0002C3.5 62.0002 3.5 62.0002 3.5 62.0002C3.5 62.0002 3.5 62.0002 3.5 62.0002C3.5 62.0002 3.5 62.0002 3.5 62.0002C3.5 62.0002 3.5 62.0002 3.5 62.0002C3.5 62.0002 3.5 62.0002 3.5 62.0002V62.0002V62.0002C3.5 62.0002 3.5 62.0002 3.5 62.0002C3.5 62.0002 3.5 62.0002 3.5 62.0002C3.5 62.0002 3.5 62.0002 3.5 62.0002C3.5 62.0002 3.5 62.0002 3.5 62.0002V62.0002V62.0002C3.5 62.0002 3.5 62.0002 3.5 62.0002C3.5 62.0002 3.5 62.0002 3.5 62.0002C3.5 62.0002 3.5 62.0002 3.5 62.0002C3.5 62.0002 3.5 62.0002 3.5 62.0002V62.0002V62.0002C3.5 62.0002 3.5 62.0002 3.5 62.0002C3.5 62.0002 3.5 62.0002 3.5 62.0002C3.5 62.0002 3.5 62.0002 3.5 62.0002C3.5 62.0002 3.5 62.0002 3.5 62.0002V62.0002V62.0002C3.5 62.0002 3.5 62.0002 3.5 62.0002C3.5 62.0002 3.5 62.0002 3.5 62.0002C3.5 62.0002 3.5 62.0002 3.5 62.0002C3.5 62.0002 3.5 62.0002 3.5 62.0002V62.0002V62.0002C3.5 62.0002 3.5 62.0002 3.5 62.0002C3.5 62.0002 3.5 62.0002 3.5 62.0002C3.5 62.0002 3.5 62.0002 3.5 62.0002C3.5 62.0002 3.5 62.0002 3.5 62.0002V62.0002V62.0002C3.5 62.0002 3.5 62.0002 3.5 62.0002C3.5 62.0002 3.5 62.0002 3.5 62.0002C3.5 62.0002 3.5 62.0002 3.5 62.0002C3.5 62.0002 3.5 62.0002 3.5 62.0002V62.0002V62.0002C3.5 62.0002 3.5 62.0002 3.5 62.0002C3.5 62.0002 3.5 62.0002 3.5 62.0002C3.5 62.0002 3.5 62.0002 3.5 62.0002C3.5 62.0002 3.5 62.0002 3.5 62.0002V62.0002V62.0002C3.5 62.0002 3.5 62.0002 3.5 62.0002C3.5 62.0002 3.5 62.0002 3.5 62.0002C3.5 62.0002 3.5 62.0002 3.5 62.0002C3.5 62.0002 3.5 62.0002 3.5 62.0002V62.0002V62.0002C3.5 62.0002 3.5 62.0002 3.5 62.0002C3.5 62.0002 3.5 62.0002 3.5 62.0002C3.5 62.0002 3.5 62.0002 3.5 62.0002C3.5 62.0002 3.5 62.0002 3.5 62.0002V62.0002V62.0002C3.5 62.0002 3.5 62.0002 3.5 62.0002C3.5 62.0002 3.5 62.0002 3.5 62.0002C3.5 62.0002 3.5 62.0002 3.5 62.0002C3.5 62.0001 3.5 62.0001 3.5 62.0001V62.0001V62.0001C3.5 62.0001 3.5 62.0001 3.5 62.0001C3.5 62.0001 3.5 62.0001 3.5 62.0001C3.5 62.0001 3.5 62.0001 3.5 62.0001C3.5 62.0001 3.5 62.0001 3.5 62.0001V62.0001V62.0001C3.5 62.0001 3.5 62.0001 3.5 62.0001C3.5 62.0001 3.5 62.0001 3.5 62.0001C3.5 62.0001 3.5 62.0001 3.5 62.0001C3.5 62.0001 3.5 62.0001 3.5 62.0001V62.0001V62.0001C3.5 62.0001 3.5 62.0001 3.5 62.0001C3.5 62.0001 3.5 62.0001 3.5 62.0001C3.5 62.0001 3.5 62.0001 3.5 62.0001C3.5 62.0001 3.5 62.0001 3.5 62.0001V62.0001V62.0001C3.5 62.0001 3.5 62.0001 3.5 62.0001C3.5 62.0001 3.5 62.0001 3.5 62.0001C3.5 62.0001 3.5 62.0001 3.5 62.0001C3.5 62.0001 3.5 62.0001 3.5 62.0001V62.0001V62.0001C3.5 62.0001 3.5 62.0001 3.5 62.0001C3.5 62.0001 3.5 62.0001 3.5 62.0001C3.5 62.0001 3.5 62.0001 3.5 62.0001C3.5 62.0001 3.5 62.0001 3.5 62.0001V62.0001V62.0001C3.5 62.0001 3.5 62.0001 3.5 62.0001C3.5 62.0001 3.5 62.0001 3.5 62.0001C3.5 62.0001 3.5 62.0001 3.5 62.0001C3.5 62.0001 3.5 62.0001 3.5 62.0001V62.0001V62.0001C3.5 62.0001 3.5 62.0001 3.5 62.0001C3.5 62.0001 3.5 62.0001 3.5 62.0001C3.5 62.0001 3.5 62.0001 3.5 62.0001C3.5 62.0001 3.5 62.0001 3.5 62.0001V62.0001V62.0001C3.5 62.0001 3.5 62.0001 3.5 62.0001C3.5 62.0001 3.5 62.0001 3.5 62.0001C3.5 62.0001 3.5 62.0001 3.5 62.0001C3.5 62.0001 3.5 62.0001 3.5 62.0001V62.0001V62.0001C3.5 62.0001 3.5 62.0001 3.5 62.0001C3.5 62.0001 3.5 62.0001 3.5 62.0001C3.5 62.0001 3.5 62.0001 3.5 62.0001C3.5 62.0001 3.5 62.0001 3.5 62.0001V62.0001V62.0001C3.5 62.0001 3.5 62.0001 3.5 62.0001C3.5 62.0001 3.5 62.0001 3.5 62.0001C3.5 62.0001 3.5 62.0001 3.5 62.0001C3.5 62.0001 3.5 62.0001 3.5 62.0001V62.0001V62.0001C3.5 62.0001 3.5 62.0001 3.5 62.0001C3.5 62.0001 3.5 62.0001 3.5 62.0001C3.5 62.0001 3.5 62.0001 3.5 62.0001C3.5 62.0001 3.5 62.0001 3.5 62.0001V62.0001V62.0001C3.5 62.0001 3.5 62.0001 3.5 62.0001C3.5 62.0001 3.5 62.0001 3.5 62.0001C3.5 62.0001 3.5 62.0001 3.5 62.0001C3.5 62.0001 3.5 62.0001 3.5 62.0001V62.0001V62.0001C3.5 62.0001 3.5 62.0001 3.5 62.0001C3.5 62.0001 3.5 62.0001 3.5 62.0001C3.5 62.0001 3.5 62.0001 3.5 62.0001C3.5 62.0001 3.5 62.0001 3.5 62.0001V62.0001V62.0001C3.5 62.0001 3.5 62.0001 3.5 62.0001C3.5 62.0001 3.5 62.0001 3.5 62.0001C3.5 62.0001 3.5 62.0001 3.5 62.0001C3.5 62.0001 3.5 62.0001 3.5 62.0001V62.0001V62.0001C3.5 62.0001 3.5 62.0001 3.5 62.0001C3.5 62.0001 3.5 62.0001 3.5 62.0001C3.5 62.0001 3.5 62.0001 3.5 62.0001C3.5 62.0001 3.5 62.0001 3.5 62.0001V62.0001V62.0001C3.5 62.0001 3.5 62.0001 3.5 62.0001C3.5 62.0001 3.5 62.0001 3.5 62.0001C3.5 62.0001 3.5 62.0001 3.5 62.0001C3.5 62.0001 3.5 62.0001 3.5 62.0001V62.0001V62.0001C3.5 62.0001 3.5 62.0001 3.5 62.0001C3.5 62.0001 3.5 62.0001 3.5 62.0001C3.5 62.0001 3.5 62.0001 3.5 62.0001C3.5 62.0001 3.5 62.0001 3.5 62.0001V62.0001V62.0001C3.5 62.0001 3.5 62.0001 3.5 62C3.5 62 3.5 62 3.5 62C3.5 62 3.5 62 3.5 62C3.5 62 3.5 62 3.5 62V62V62C3.5 62 3.5 62 3.5 62C3.5 62 3.5 62 3.5 62C3.5 62 3.5 62 3.5 62C3.5 62 3.5 62 3.5 62V62V62C3.5 62 3.5 62 3.5 62C3.5 62 3.5 62 3.5 62C3.5 62 3.5 62 3.5 62C3.5 62 3.5 62 3.5 62V62V62C3.5 62 3.5 62 3.5 62C3.5 62 3.5 62 3.5 62C3.5 62 3.5 62 3.5 62C3.5 62 3.5 62 3.5 62V62V62C3.5 62 3.5 62 3.5 62C3.5 62 3.5 62 3.5 62C3.5 62 3.5 62 3.5 62C3.5 62 3.5 62 3.5 62V62V62C3.5 62 3.5 62 3.5 62C3.5 62 3.5 62 3.5 62C3.5 62 3.5 62 3.5 62C3.5 62 3.5 62 3.5 62V62V62C3.5 62 3.5 62 3.5 62C3.5 62 3.5 62 3.5 62C3.5 62 3.5 62 3.5 62C3.5 62 3.5 62 3.5 62V62V62C3.5 62 3.5 62 3.5 62C3.5 62 3.5 62 3.5 62C3.5 62 3.5 62 3.5 62C3.5 62 3.5 62 3.5 62V62V62C3.5 62 3.5 62 3.5 62C3.5 62 3.5 62 3.5 62C3.5 62 3.5 62 3.5 62C3.5 62 3.5 62 3.5 62V62H0.5Z" fill="#D3A45D"/>
<path d="M54.5 2C54.5 1.17157 53.8284 0.5 53 0.5C52.1716 0.5 51.5 1.17157 51.5 2H54.5ZM22 33V31.5C21.1716 31.5 20.5 32.1716 20.5 33H22ZM84 34.5013C84.8284 34.5013 85.5 33.8297 85.5 33.0013C85.5 32.1728 84.8284 31.5013 84 31.5013V34.5013ZM53 64L51.5 64.0001C51.5 64.8285 52.1716 65.5 53 65.5C53.8284 65.5 54.5 64.8285 54.5 64.0001L53 64ZM22 33.0013H20.5C20.5 33.8297 21.1716 34.5013 22 34.5013V33.0013ZM51.5 2C51.5 18.2924 38.2924 31.5 22 31.5V34.5C39.9493 34.5 54.5 19.9493 54.5 2H51.5ZM54.5 2.00126V2H51.5V2.00126H54.5ZM84 31.5013C67.7076 31.5013 54.5 18.2937 54.5 2.00126H51.5C51.5 19.9505 66.0507 34.5013 84 34.5013V31.5013ZM54.5 64.0001C54.5006 47.7082 67.708 34.5013 84 34.5013V31.5013C66.0512 31.5013 51.5007 46.0513 51.5 63.9999L54.5 64.0001ZM22 34.5013C38.292 34.5013 51.4994 47.7082 51.5 64.0001L54.5 63.9999C54.4993 46.0513 39.9488 31.5013 22 31.5013V34.5013ZM20.5 33V33C20.5 33 20.5 33 20.5 33C20.5 33 20.5 33 20.5 33V33C20.5 33 20.5 33 20.5 33C20.5 33 20.5 33 20.5 33V33V33C20.5 33 20.5 33 20.5 33C20.5 33 20.5 33 20.5 33V33C20.5 33 20.5 33 20.5 33C20.5 33 20.5 33 20.5 33V33V33C20.5 33 20.5 33 20.5 33C20.5 33 20.5 33 20.5 33V33C20.5 33 20.5 33 20.5 33C20.5 33 20.5 33 20.5 33V33.0001C20.5 33.0001 20.5 33.0001 20.5 33.0001C20.5 33.0001 20.5 33.0001 20.5 33.0001V33.0001V33.0001C20.5 33.0001 20.5 33.0001 20.5 33.0001C20.5 33.0001 20.5 33.0001 20.5 33.0001V33.0001C20.5 33.0001 20.5 33.0001 20.5 33.0001C20.5 33.0001 20.5 33.0001 20.5 33.0001V33.0001V33.0001C20.5 33.0001 20.5 33.0001 20.5 33.0001C20.5 33.0001 20.5 33.0001 20.5 33.0001V33.0001C20.5 33.0001 20.5 33.0001 20.5 33.0001C20.5 33.0001 20.5 33.0001 20.5 33.0001V33.0001V33.0001C20.5 33.0001 20.5 33.0001 20.5 33.0001C20.5 33.0001 20.5 33.0001 20.5 33.0001V33.0001C20.5 33.0001 20.5 33.0001 20.5 33.0001C20.5 33.0001 20.5 33.0001 20.5 33.0001V33.0001V33.0001C20.5 33.0001 20.5 33.0001 20.5 33.0001C20.5 33.0001 20.5 33.0001 20.5 33.0001V33.0001C20.5 33.0001 20.5 33.0001 20.5 33.0001C20.5 33.0001 20.5 33.0001 20.5 33.0001V33.0001V33.0001C20.5 33.0001 20.5 33.0001 20.5 33.0001V33.0001V33.0001C20.5 33.0001 20.5 33.0001 20.5 33.0001C20.5 33.0001 20.5 33.0001 20.5 33.0001V33.0001C20.5 33.0001 20.5 33.0001 20.5 33.0001C20.5 33.0001 20.5 33.0001 20.5 33.0002V33.0002V33.0002C20.5 33.0002 20.5 33.0002 20.5 33.0002C20.5 33.0002 20.5 33.0002 20.5 33.0002V33.0002C20.5 33.0002 20.5 33.0002 20.5 33.0002C20.5 33.0002 20.5 33.0002 20.5 33.0002V33.0002V33.0002C20.5 33.0002 20.5 33.0002 20.5 33.0002C20.5 33.0002 20.5 33.0002 20.5 33.0002V33.0002C20.5 33.0002 20.5 33.0002 20.5 33.0002C20.5 33.0002 20.5 33.0002 20.5 33.0002V33.0002V33.0002C20.5 33.0002 20.5 33.0002 20.5 33.0002C20.5 33.0002 20.5 33.0002 20.5 33.0002V33.0002C20.5 33.0002 20.5 33.0002 20.5 33.0002C20.5 33.0002 20.5 33.0002 20.5 33.0002V33.0002V33.0002C20.5 33.0002 20.5 33.0002 20.5 33.0002V33.0002V33.0002C20.5 33.0002 20.5 33.0002 20.5 33.0002C20.5 33.0002 20.5 33.0002 20.5 33.0002V33.0002C20.5 33.0002 20.5 33.0002 20.5 33.0002C20.5 33.0002 20.5 33.0002 20.5 33.0002V33.0002V33.0002C20.5 33.0002 20.5 33.0002 20.5 33.0002C20.5 33.0002 20.5 33.0002 20.5 33.0002V33.0002C20.5 33.0002 20.5 33.0002 20.5 33.0002C20.5 33.0002 20.5 33.0002 20.5 33.0002V33.0002V33.0002C20.5 33.0002 20.5 33.0002 20.5 33.0003C20.5 33.0003 20.5 33.0003 20.5 33.0003V33.0003C20.5 33.0003 20.5 33.0003 20.5 33.0003C20.5 33.0003 20.5 33.0003 20.5 33.0003V33.0003V33.0003C20.5 33.0003 20.5 33.0003 20.5 33.0003C20.5 33.0003 20.5 33.0003 20.5 33.0003V33.0003C20.5 33.0003 20.5 33.0003 20.5 33.0003C20.5 33.0003 20.5 33.0003 20.5 33.0003V33.0003C20.5 33.0003 20.5 33.0003 20.5 33.0003C20.5 33.0003 20.5 33.0003 20.5 33.0003V33.0003V33.0003C20.5 33.0003 20.5 33.0003 20.5 33.0003C20.5 33.0003 20.5 33.0003 20.5 33.0003V33.0003C20.5 33.0003 20.5 33.0003 20.5 33.0003C20.5 33.0003 20.5 33.0003 20.5 33.0003V33.0003V33.0003C20.5 33.0003 20.5 33.0003 20.5 33.0003C20.5 33.0003 20.5 33.0003 20.5 33.0003V33.0003C20.5 33.0003 20.5 33.0003 20.5 33.0003C20.5 33.0003 20.5 33.0003 20.5 33.0003V33.0003V33.0003C20.5 33.0003 20.5 33.0003 20.5 33.0003C20.5 33.0003 20.5 33.0003 20.5 33.0003V33.0003C20.5 33.0003 20.5 33.0003 20.5 33.0003C20.5 33.0003 20.5 33.0003 20.5 33.0003V33.0003V33.0003C20.5 33.0003 20.5 33.0003 20.5 33.0003V33.0003V33.0003C20.5 33.0004 20.5 33.0004 20.5 33.0004C20.5 33.0004 20.5 33.0004 20.5 33.0004V33.0004C20.5 33.0004 20.5 33.0004 20.5 33.0004C20.5 33.0004 20.5 33.0004 20.5 33.0004V33.0004V33.0004C20.5 33.0004 20.5 33.0004 20.5 33.0004C20.5 33.0004 20.5 33.0004 20.5 33.0004V33.0004C20.5 33.0004 20.5 33.0004 20.5 33.0004C20.5 33.0004 20.5 33.0004 20.5 33.0004V33.0004V33.0004C20.5 33.0004 20.5 33.0004 20.5 33.0004C20.5 33.0004 20.5 33.0004 20.5 33.0004V33.0004C20.5 33.0004 20.5 33.0004 20.5 33.0004C20.5 33.0004 20.5 33.0004 20.5 33.0004V33.0004V33.0004C20.5 33.0004 20.5 33.0004 20.5 33.0004V33.0004V33.0004C20.5 33.0004 20.5 33.0004 20.5 33.0004C20.5 33.0004 20.5 33.0004 20.5 33.0004V33.0004C20.5 33.0004 20.5 33.0004 20.5 33.0004C20.5 33.0004 20.5 33.0004 20.5 33.0004V33.0004V33.0004C20.5 33.0004 20.5 33.0004 20.5 33.0004C20.5 33.0004 20.5 33.0004 20.5 33.0004V33.0004C20.5 33.0004 20.5 33.0004 20.5 33.0004C20.5 33.0004 20.5 33.0004 20.5 33.0004V33.0004V33.0004C20.5 33.0004 20.5 33.0004 20.5 33.0004C20.5 33.0004 20.5 33.0004 20.5 33.0004V33.0005C20.5 33.0005 20.5 33.0005 20.5 33.0005C20.5 33.0005 20.5 33.0005 20.5 33.0005V33.0005V33.0005C20.5 33.0005 20.5 33.0005 20.5 33.0005V33.0005V33.0005C20.5 33.0005 20.5 33.0005 20.5 33.0005C20.5 33.0005 20.5 33.0005 20.5 33.0005V33.0005C20.5 33.0005 20.5 33.0005 20.5 33.0005C20.5 33.0005 20.5 33.0005 20.5 33.0005V33.0005V33.0005C20.5 33.0005 20.5 33.0005 20.5 33.0005C20.5 33.0005 20.5 33.0005 20.5 33.0005V33.0005C20.5 33.0005 20.5 33.0005 20.5 33.0005C20.5 33.0005 20.5 33.0005 20.5 33.0005V33.0005V33.0005C20.5 33.0005 20.5 33.0005 20.5 33.0005C20.5 33.0005 20.5 33.0005 20.5 33.0005V33.0005C20.5 33.0005 20.5 33.0005 20.5 33.0005C20.5 33.0005 20.5 33.0005 20.5 33.0005V33.0005C20.5 33.0005 20.5 33.0005 20.5 33.0005C20.5 33.0005 20.5 33.0005 20.5 33.0005V33.0005V33.0005C20.5 33.0005 20.5 33.0005 20.5 33.0005C20.5 33.0005 20.5 33.0005 20.5 33.0005V33.0005C20.5 33.0005 20.5 33.0005 20.5 33.0005C20.5 33.0005 20.5 33.0005 20.5 33.0005V33.0005V33.0005C20.5 33.0005 20.5 33.0005 20.5 33.0005C20.5 33.0005 20.5 33.0005 20.5 33.0005V33.0006C20.5 33.0006 20.5 33.0006 20.5 33.0006C20.5 33.0006 20.5 33.0006 20.5 33.0006V33.0006V33.0006C20.5 33.0006 20.5 33.0006 20.5 33.0006C20.5 33.0006 20.5 33.0006 20.5 33.0006V33.0006C20.5 33.0006 20.5 33.0006 20.5 33.0006C20.5 33.0006 20.5 33.0006 20.5 33.0006V33.0006C20.5 33.0006 20.5 33.0006 20.5 33.0006C20.5 33.0006 20.5 33.0006 20.5 33.0006V33.0006V33.0006C20.5 33.0006 20.5 33.0006 20.5 33.0006C20.5 33.0006 20.5 33.0006 20.5 33.0006V33.0006C20.5 33.0006 20.5 33.0006 20.5 33.0006C20.5 33.0006 20.5 33.0006 20.5 33.0006V33.0006V33.0006C20.5 33.0006 20.5 33.0006 20.5 33.0006C20.5 33.0006 20.5 33.0006 20.5 33.0006V33.0006C20.5 33.0006 20.5 33.0006 20.5 33.0006C20.5 33.0006 20.5 33.0006 20.5 33.0006V33.0006V33.0006C20.5 33.0006 20.5 33.0006 20.5 33.0006C20.5 33.0006 20.5 33.0006 20.5 33.0006V33.0006C20.5 33.0006 20.5 33.0006 20.5 33.0006C20.5 33.0006 20.5 33.0006 20.5 33.0006V33.0006C20.5 33.0006 20.5 33.0006 20.5 33.0006C20.5 33.0006 20.5 33.0006 20.5 33.0006V33.0006V33.0006C20.5 33.0006 20.5 33.0006 20.5 33.0006C20.5 33.0006 20.5 33.0006 20.5 33.0007V33.0007C20.5 33.0007 20.5 33.0007 20.5 33.0007C20.5 33.0007 20.5 33.0007 20.5 33.0007V33.0007V33.0007C20.5 33.0007 20.5 33.0007 20.5 33.0007C20.5 33.0007 20.5 33.0007 20.5 33.0007V33.0007C20.5 33.0007 20.5 33.0007 20.5 33.0007C20.5 33.0007 20.5 33.0007 20.5 33.0007V33.0007V33.0007C20.5 33.0007 20.5 33.0007 20.5 33.0007C20.5 33.0007 20.5 33.0007 20.5 33.0007V33.0007C20.5 33.0007 20.5 33.0007 20.5 33.0007C20.5 33.0007 20.5 33.0007 20.5 33.0007V33.0007C20.5 33.0007 20.5 33.0007 20.5 33.0007C20.5 33.0007 20.5 33.0007 20.5 33.0007V33.0007V33.0007C20.5 33.0007 20.5 33.0007 20.5 33.0007C20.5 33.0007 20.5 33.0007 20.5 33.0007V33.0007C20.5 33.0007 20.5 33.0007 20.5 33.0007C20.5 33.0007 20.5 33.0007 20.5 33.0007V33.0007V33.0007C20.5 33.0007 20.5 33.0007 20.5 33.0007C20.5 33.0007 20.5 33.0007 20.5 33.0007V33.0007C20.5 33.0007 20.5 33.0007 20.5 33.0007C20.5 33.0007 20.5 33.0007 20.5 33.0007V33.0007V33.0007C20.5 33.0007 20.5 33.0007 20.5 33.0007C20.5 33.0007 20.5 33.0007 20.5 33.0007V33.0007C20.5 33.0007 20.5 33.0007 20.5 33.0007C20.5 33.0007 20.5 33.0007 20.5 33.0008V33.0008C20.5 33.0008 20.5 33.0008 20.5 33.0008C20.5 33.0008 20.5 33.0008 20.5 33.0008V33.0008V33.0008C20.5 33.0008 20.5 33.0008 20.5 33.0008C20.5 33.0008 20.5 33.0008 20.5 33.0008V33.0008C20.5 33.0008 20.5 33.0008 20.5 33.0008C20.5 33.0008 20.5 33.0008 20.5 33.0008V33.0008V33.0008C20.5 33.0008 20.5 33.0008 20.5 33.0008C20.5 33.0008 20.5 33.0008 20.5 33.0008V33.0008C20.5 33.0008 20.5 33.0008 20.5 33.0008C20.5 33.0008 20.5 33.0008 20.5 33.0008V33.0008V33.0008C20.5 33.0008 20.5 33.0008 20.5 33.0008V33.0008V33.0008C20.5 33.0008 20.5 33.0008 20.5 33.0008C20.5 33.0008 20.5 33.0008 20.5 33.0008V33.0008C20.5 33.0008 20.5 33.0008 20.5 33.0008C20.5 33.0008 20.5 33.0008 20.5 33.0008V33.0008V33.0008C20.5 33.0008 20.5 33.0008 20.5 33.0008C20.5 33.0008 20.5 33.0008 20.5 33.0008V33.0008C20.5 33.0008 20.5 33.0008 20.5 33.0008C20.5 33.0008 20.5 33.0008 20.5 33.0008V33.0008V33.0008C20.5 33.0008 20.5 33.0008 20.5 33.0008C20.5 33.0008 20.5 33.0008 20.5 33.0008V33.0008C20.5 33.0008 20.5 33.0008 20.5 33.0008C20.5 33.0009 20.5 33.0009 20.5 33.0009V33.0009V33.0009C20.5 33.0009 20.5 33.0009 20.5 33.0009V33.0009V33.0009C20.5 33.0009 20.5 33.0009 20.5 33.0009C20.5 33.0009 20.5 33.0009 20.5 33.0009V33.0009C20.5 33.0009 20.5 33.0009 20.5 33.0009C20.5 33.0009 20.5 33.0009 20.5 33.0009V33.0009V33.0009C20.5 33.0009 20.5 33.0009 20.5 33.0009C20.5 33.0009 20.5 33.0009 20.5 33.0009V33.0009C20.5 33.0009 20.5 33.0009 20.5 33.0009C20.5 33.0009 20.5 33.0009 20.5 33.0009V33.0009V33.0009C20.5 33.0009 20.5 33.0009 20.5 33.0009C20.5 33.0009 20.5 33.0009 20.5 33.0009V33.0009C20.5 33.0009 20.5 33.0009 20.5 33.0009C20.5 33.0009 20.5 33.0009 20.5 33.0009V33.0009V33.0009C20.5 33.0009 20.5 33.0009 20.5 33.0009V33.0009V33.0009C20.5 33.0009 20.5 33.0009 20.5 33.0009C20.5 33.0009 20.5 33.0009 20.5 33.0009V33.0009C20.5 33.0009 20.5 33.0009 20.5 33.0009C20.5 33.0009 20.5 33.0009 20.5 33.0009V33.0009V33.0009C20.5 33.0009 20.5 33.0009 20.5 33.0009C20.5 33.0009 20.5 33.0009 20.5 33.0009V33.0009C20.5 33.0009 20.5 33.0009 20.5 33.0009C20.5 33.001 20.5 33.001 20.5 33.001V33.001V33.001C20.5 33.001 20.5 33.001 20.5 33.001C20.5 33.001 20.5 33.001 20.5 33.001V33.001C20.5 33.001 20.5 33.001 20.5 33.001C20.5 33.001 20.5 33.001 20.5 33.001V33.001V33.001C20.5 33.001 20.5 33.001 20.5 33.001C20.5 33.001 20.5 33.001 20.5 33.001V33.001C20.5 33.001 20.5 33.001 20.5 33.001C20.5 33.001 20.5 33.001 20.5 33.001V33.001C20.5 33.001 20.5 33.001 20.5 33.001C20.5 33.001 20.5 33.001 20.5 33.001V33.001V33.001C20.5 33.001 20.5 33.001 20.5 33.001C20.5 33.001 20.5 33.001 20.5 33.001V33.001C20.5 33.001 20.5 33.001 20.5 33.001C20.5 33.001 20.5 33.001 20.5 33.001V33.001V33.001C20.5 33.001 20.5 33.001 20.5 33.001C20.5 33.001 20.5 33.001 20.5 33.001V33.001C20.5 33.001 20.5 33.001 20.5 33.001C20.5 33.001 20.5 33.001 20.5 33.001V33.001V33.001C20.5 33.001 20.5 33.001 20.5 33.001C20.5 33.001 20.5 33.001 20.5 33.001V33.001C20.5 33.001 20.5 33.001 20.5 33.001C20.5 33.001 20.5 33.001 20.5 33.001V33.001V33.0011C20.5 33.0011 20.5 33.0011 20.5 33.0011V33.0011V33.0011C20.5 33.0011 20.5 33.0011 20.5 33.0011C20.5 33.0011 20.5 33.0011 20.5 33.0011V33.0011C20.5 33.0011 20.5 33.0011 20.5 33.0011C20.5 33.0011 20.5 33.0011 20.5 33.0011V33.0011V33.0011C20.5 33.0011 20.5 33.0011 20.5 33.0011C20.5 33.0011 20.5 33.0011 20.5 33.0011V33.0011C20.5 33.0011 20.5 33.0011 20.5 33.0011C20.5 33.0011 20.5 33.0011 20.5 33.0011V33.0011V33.0011C20.5 33.0011 20.5 33.0011 20.5 33.0011C20.5 33.0011 20.5 33.0011 20.5 33.0011V33.0011C20.5 33.0011 20.5 33.0011 20.5 33.0011C20.5 33.0011 20.5 33.0011 20.5 33.0011V33.0011V33.0011C20.5 33.0011 20.5 33.0011 20.5 33.0011C20.5 33.0011 20.5 33.0011 20.5 33.0011V33.0011C20.5 33.0011 20.5 33.0011 20.5 33.0011C20.5 33.0011 20.5 33.0011 20.5 33.0011V33.0011V33.0011C20.5 33.0011 20.5 33.0011 20.5 33.0011V33.0011V33.0011C20.5 33.0011 20.5 33.0011 20.5 33.0011C20.5 33.0011 20.5 33.0011 20.5 33.0011V33.0011C20.5 33.0011 20.5 33.0011 20.5 33.0011C20.5 33.0011 20.5 33.0011 20.5 33.0011V33.0012V33.0012C20.5 33.0012 20.5 33.0012 20.5 33.0012C20.5 33.0012 20.5 33.0012 20.5 33.0012V33.0012C20.5 33.0012 20.5 33.0012 20.5 33.0012C20.5 33.0012 20.5 33.0012 20.5 33.0012V33.0012V33.0012C20.5 33.0012 20.5 33.0012 20.5 33.0012C20.5 33.0012 20.5 33.0012 20.5 33.0012V33.0012C20.5 33.0012 20.5 33.0012 20.5 33.0012C20.5 33.0012 20.5 33.0012 20.5 33.0012V33.0012V33.0012C20.5 33.0012 20.5 33.0012 20.5 33.0012C20.5 33.0012 20.5 33.0012 20.5 33.0012V33.0012C20.5 33.0012 20.5 33.0012 20.5 33.0012C20.5 33.0012 20.5 33.0012 20.5 33.0012V33.0012V33.0012C20.5 33.0012 20.5 33.0012 20.5 33.0012C20.5 33.0012 20.5 33.0012 20.5 33.0012V33.0012C20.5 33.0012 20.5 33.0012 20.5 33.0012C20.5 33.0012 20.5 33.0012 20.5 33.0012V33.0012C20.5 33.0012 20.5 33.0012 20.5 33.0012C20.5 33.0012 20.5 33.0012 20.5 33.0012V33.0012V33.0012C20.5 33.0012 20.5 33.0012 20.5 33.0012C20.5 33.0012 20.5 33.0012 20.5 33.0012V33.0012C20.5 33.0012 20.5 33.0012 20.5 33.0012C20.5 33.0012 20.5 33.0012 20.5 33.0012V33.0012V33.0012C20.5 33.0012 20.5 33.0012 20.5 33.0012C20.5 33.0012 20.5 33.0012 20.5 33.0013V33.0013C20.5 33.0013 20.5 33.0013 20.5 33.0013C20.5 33.0013 20.5 33.0013 20.5 33.0013V33.0013H23.5V33.0013C23.5 33.0013 23.5 33.0013 23.5 33.0013C23.5 33.0013 23.5 33.0013 23.5 33.0013V33.0013C23.5 33.0012 23.5 33.0012 23.5 33.0012C23.5 33.0012 23.5 33.0012 23.5 33.0012V33.0012V33.0012C23.5 33.0012 23.5 33.0012 23.5 33.0012C23.5 33.0012 23.5 33.0012 23.5 33.0012V33.0012C23.5 33.0012 23.5 33.0012 23.5 33.0012C23.5 33.0012 23.5 33.0012 23.5 33.0012V33.0012V33.0012C23.5 33.0012 23.5 33.0012 23.5 33.0012C23.5 33.0012 23.5 33.0012 23.5 33.0012V33.0012C23.5 33.0012 23.5 33.0012 23.5 33.0012C23.5 33.0012 23.5 33.0012 23.5 33.0012V33.0012C23.5 33.0012 23.5 33.0012 23.5 33.0012C23.5 33.0012 23.5 33.0012 23.5 33.0012V33.0012V33.0012C23.5 33.0012 23.5 33.0012 23.5 33.0012C23.5 33.0012 23.5 33.0012 23.5 33.0012V33.0012C23.5 33.0012 23.5 33.0012 23.5 33.0012C23.5 33.0012 23.5 33.0012 23.5 33.0012V33.0012V33.0012C23.5 33.0012 23.5 33.0012 23.5 33.0012C23.5 33.0012 23.5 33.0012 23.5 33.0012V33.0012C23.5 33.0012 23.5 33.0012 23.5 33.0012C23.5 33.0012 23.5 33.0012 23.5 33.0012V33.0012V33.0012C23.5 33.0012 23.5 33.0012 23.5 33.0012C23.5 33.0012 23.5 33.0012 23.5 33.0012V33.0012C23.5 33.0012 23.5 33.0012 23.5 33.0012C23.5 33.0012 23.5 33.0012 23.5 33.0012V33.0012V33.0011C23.5 33.0011 23.5 33.0011 23.5 33.0011C23.5 33.0011 23.5 33.0011 23.5 33.0011V33.0011C23.5 33.0011 23.5 33.0011 23.5 33.0011C23.5 33.0011 23.5 33.0011 23.5 33.0011V33.0011V33.0011C23.5 33.0011 23.5 33.0011 23.5 33.0011V33.0011V33.0011C23.5 33.0011 23.5 33.0011 23.5 33.0011C23.5 33.0011 23.5 33.0011 23.5 33.0011V33.0011C23.5 33.0011 23.5 33.0011 23.5 33.0011C23.5 33.0011 23.5 33.0011 23.5 33.0011V33.0011V33.0011C23.5 33.0011 23.5 33.0011 23.5 33.0011C23.5 33.0011 23.5 33.0011 23.5 33.0011V33.0011C23.5 33.0011 23.5 33.0011 23.5 33.0011C23.5 33.0011 23.5 33.0011 23.5 33.0011V33.0011V33.0011C23.5 33.0011 23.5 33.0011 23.5 33.0011C23.5 33.0011 23.5 33.0011 23.5 33.0011V33.0011C23.5 33.0011 23.5 33.0011 23.5 33.0011C23.5 33.0011 23.5 33.0011 23.5 33.0011V33.0011V33.0011C23.5 33.0011 23.5 33.0011 23.5 33.0011C23.5 33.0011 23.5 33.0011 23.5 33.0011V33.0011C23.5 33.0011 23.5 33.0011 23.5 33.0011C23.5 33.0011 23.5 33.0011 23.5 33.0011V33.0011V33.0011C23.5 33.0011 23.5 33.0011 23.5 33.0011V33.001V33.001C23.5 33.001 23.5 33.001 23.5 33.001C23.5 33.001 23.5 33.001 23.5 33.001V33.001C23.5 33.001 23.5 33.001 23.5 33.001C23.5 33.001 23.5 33.001 23.5 33.001V33.001V33.001C23.5 33.001 23.5 33.001 23.5 33.001C23.5 33.001 23.5 33.001 23.5 33.001V33.001C23.5 33.001 23.5 33.001 23.5 33.001C23.5 33.001 23.5 33.001 23.5 33.001V33.001V33.001C23.5 33.001 23.5 33.001 23.5 33.001C23.5 33.001 23.5 33.001 23.5 33.001V33.001C23.5 33.001 23.5 33.001 23.5 33.001C23.5 33.001 23.5 33.001 23.5 33.001V33.001V33.001C23.5 33.001 23.5 33.001 23.5 33.001C23.5 33.001 23.5 33.001 23.5 33.001V33.001C23.5 33.001 23.5 33.001 23.5 33.001C23.5 33.001 23.5 33.001 23.5 33.001V33.001C23.5 33.001 23.5 33.001 23.5 33.001C23.5 33.001 23.5 33.001 23.5 33.001V33.001V33.001C23.5 33.001 23.5 33.001 23.5 33.001C23.5 33.001 23.5 33.001 23.5 33.001V33.001C23.5 33.001 23.5 33.001 23.5 33.001C23.5 33.001 23.5 33.001 23.5 33.001V33.001V33.001C23.5 33.001 23.5 33.001 23.5 33.0009C23.5 33.0009 23.5 33.0009 23.5 33.0009V33.0009C23.5 33.0009 23.5 33.0009 23.5 33.0009C23.5 33.0009 23.5 33.0009 23.5 33.0009V33.0009V33.0009C23.5 33.0009 23.5 33.0009 23.5 33.0009C23.5 33.0009 23.5 33.0009 23.5 33.0009V33.0009C23.5 33.0009 23.5 33.0009 23.5 33.0009C23.5 33.0009 23.5 33.0009 23.5 33.0009V33.0009V33.0009C23.5 33.0009 23.5 33.0009 23.5 33.0009V33.0009V33.0009C23.5 33.0009 23.5 33.0009 23.5 33.0009C23.5 33.0009 23.5 33.0009 23.5 33.0009V33.0009C23.5 33.0009 23.5 33.0009 23.5 33.0009C23.5 33.0009 23.5 33.0009 23.5 33.0009V33.0009V33.0009C23.5 33.0009 23.5 33.0009 23.5 33.0009C23.5 33.0009 23.5 33.0009 23.5 33.0009V33.0009C23.5 33.0009 23.5 33.0009 23.5 33.0009C23.5 33.0009 23.5 33.0009 23.5 33.0009V33.0009V33.0009C23.5 33.0009 23.5 33.0009 23.5 33.0009C23.5 33.0009 23.5 33.0009 23.5 33.0009V33.0009C23.5 33.0009 23.5 33.0009 23.5 33.0009C23.5 33.0009 23.5 33.0009 23.5 33.0009V33.0009V33.0009C23.5 33.0009 23.5 33.0009 23.5 33.0009V33.0009V33.0009C23.5 33.0009 23.5 33.0009 23.5 33.0008C23.5 33.0008 23.5 33.0008 23.5 33.0008V33.0008C23.5 33.0008 23.5 33.0008 23.5 33.0008C23.5 33.0008 23.5 33.0008 23.5 33.0008V33.0008V33.0008C23.5 33.0008 23.5 33.0008 23.5 33.0008C23.5 33.0008 23.5 33.0008 23.5 33.0008V33.0008C23.5 33.0008 23.5 33.0008 23.5 33.0008C23.5 33.0008 23.5 33.0008 23.5 33.0008V33.0008V33.0008C23.5 33.0008 23.5 33.0008 23.5 33.0008C23.5 33.0008 23.5 33.0008 23.5 33.0008V33.0008C23.5 33.0008 23.5 33.0008 23.5 33.0008C23.5 33.0008 23.5 33.0008 23.5 33.0008V33.0008V33.0008C23.5 33.0008 23.5 33.0008 23.5 33.0008V33.0008V33.0008C23.5 33.0008 23.5 33.0008 23.5 33.0008C23.5 33.0008 23.5 33.0008 23.5 33.0008V33.0008C23.5 33.0008 23.5 33.0008 23.5 33.0008C23.5 33.0008 23.5 33.0008 23.5 33.0008V33.0008V33.0008C23.5 33.0008 23.5 33.0008 23.5 33.0008C23.5 33.0008 23.5 33.0008 23.5 33.0008V33.0008C23.5 33.0008 23.5 33.0008 23.5 33.0008C23.5 33.0008 23.5 33.0008 23.5 33.0008V33.0008V33.0008C23.5 33.0008 23.5 33.0008 23.5 33.0008C23.5 33.0008 23.5 33.0008 23.5 33.0008V33.0008C23.5 33.0007 23.5 33.0007 23.5 33.0007C23.5 33.0007 23.5 33.0007 23.5 33.0007V33.0007C23.5 33.0007 23.5 33.0007 23.5 33.0007C23.5 33.0007 23.5 33.0007 23.5 33.0007V33.0007V33.0007C23.5 33.0007 23.5 33.0007 23.5 33.0007C23.5 33.0007 23.5 33.0007 23.5 33.0007V33.0007C23.5 33.0007 23.5 33.0007 23.5 33.0007C23.5 33.0007 23.5 33.0007 23.5 33.0007V33.0007V33.0007C23.5 33.0007 23.5 33.0007 23.5 33.0007C23.5 33.0007 23.5 33.0007 23.5 33.0007V33.0007C23.5 33.0007 23.5 33.0007 23.5 33.0007C23.5 33.0007 23.5 33.0007 23.5 33.0007V33.0007V33.0007C23.5 33.0007 23.5 33.0007 23.5 33.0007C23.5 33.0007 23.5 33.0007 23.5 33.0007V33.0007C23.5 33.0007 23.5 33.0007 23.5 33.0007C23.5 33.0007 23.5 33.0007 23.5 33.0007V33.0007C23.5 33.0007 23.5 33.0007 23.5 33.0007C23.5 33.0007 23.5 33.0007 23.5 33.0007V33.0007V33.0007C23.5 33.0007 23.5 33.0007 23.5 33.0007C23.5 33.0007 23.5 33.0007 23.5 33.0007V33.0007C23.5 33.0007 23.5 33.0007 23.5 33.0007C23.5 33.0007 23.5 33.0007 23.5 33.0007V33.0007V33.0007C23.5 33.0007 23.5 33.0007 23.5 33.0007C23.5 33.0007 23.5 33.0007 23.5 33.0007V33.0007C23.5 33.0006 23.5 33.0006 23.5 33.0006C23.5 33.0006 23.5 33.0006 23.5 33.0006V33.0006V33.0006C23.5 33.0006 23.5 33.0006 23.5 33.0006C23.5 33.0006 23.5 33.0006 23.5 33.0006V33.0006C23.5 33.0006 23.5 33.0006 23.5 33.0006C23.5 33.0006 23.5 33.0006 23.5 33.0006V33.0006C23.5 33.0006 23.5 33.0006 23.5 33.0006C23.5 33.0006 23.5 33.0006 23.5 33.0006V33.0006V33.0006C23.5 33.0006 23.5 33.0006 23.5 33.0006C23.5 33.0006 23.5 33.0006 23.5 33.0006V33.0006C23.5 33.0006 23.5 33.0006 23.5 33.0006C23.5 33.0006 23.5 33.0006 23.5 33.0006V33.0006V33.0006C23.5 33.0006 23.5 33.0006 23.5 33.0006C23.5 33.0006 23.5 33.0006 23.5 33.0006V33.0006C23.5 33.0006 23.5 33.0006 23.5 33.0006C23.5 33.0006 23.5 33.0006 23.5 33.0006V33.0006V33.0006C23.5 33.0006 23.5 33.0006 23.5 33.0006C23.5 33.0006 23.5 33.0006 23.5 33.0006V33.0006C23.5 33.0006 23.5 33.0006 23.5 33.0006C23.5 33.0006 23.5 33.0006 23.5 33.0006V33.0006C23.5 33.0006 23.5 33.0006 23.5 33.0006C23.5 33.0006 23.5 33.0006 23.5 33.0006V33.0006V33.0006C23.5 33.0006 23.5 33.0006 23.5 33.0006C23.5 33.0006 23.5 33.0006 23.5 33.0006V33.0005C23.5 33.0005 23.5 33.0005 23.5 33.0005C23.5 33.0005 23.5 33.0005 23.5 33.0005V33.0005V33.0005C23.5 33.0005 23.5 33.0005 23.5 33.0005C23.5 33.0005 23.5 33.0005 23.5 33.0005V33.0005C23.5 33.0005 23.5 33.0005 23.5 33.0005C23.5 33.0005 23.5 33.0005 23.5 33.0005V33.0005V33.0005C23.5 33.0005 23.5 33.0005 23.5 33.0005C23.5 33.0005 23.5 33.0005 23.5 33.0005V33.0005C23.5 33.0005 23.5 33.0005 23.5 33.0005C23.5 33.0005 23.5 33.0005 23.5 33.0005V33.0005C23.5 33.0005 23.5 33.0005 23.5 33.0005C23.5 33.0005 23.5 33.0005 23.5 33.0005V33.0005V33.0005C23.5 33.0005 23.5 33.0005 23.5 33.0005C23.5 33.0005 23.5 33.0005 23.5 33.0005V33.0005C23.5 33.0005 23.5 33.0005 23.5 33.0005C23.5 33.0005 23.5 33.0005 23.5 33.0005V33.0005V33.0005C23.5 33.0005 23.5 33.0005 23.5 33.0005C23.5 33.0005 23.5 33.0005 23.5 33.0005V33.0005C23.5 33.0005 23.5 33.0005 23.5 33.0005C23.5 33.0005 23.5 33.0005 23.5 33.0005V33.0005V33.0005C23.5 33.0005 23.5 33.0005 23.5 33.0005V33.0005V33.0005C23.5 33.0005 23.5 33.0005 23.5 33.0005C23.5 33.0005 23.5 33.0005 23.5 33.0005V33.0004C23.5 33.0004 23.5 33.0004 23.5 33.0004C23.5 33.0004 23.5 33.0004 23.5 33.0004V33.0004V33.0004C23.5 33.0004 23.5 33.0004 23.5 33.0004C23.5 33.0004 23.5 33.0004 23.5 33.0004V33.0004C23.5 33.0004 23.5 33.0004 23.5 33.0004C23.5 33.0004 23.5 33.0004 23.5 33.0004V33.0004V33.0004C23.5 33.0004 23.5 33.0004 23.5 33.0004C23.5 33.0004 23.5 33.0004 23.5 33.0004V33.0004C23.5 33.0004 23.5 33.0004 23.5 33.0004C23.5 33.0004 23.5 33.0004 23.5 33.0004V33.0004V33.0004C23.5 33.0004 23.5 33.0004 23.5 33.0004V33.0004V33.0004C23.5 33.0004 23.5 33.0004 23.5 33.0004C23.5 33.0004 23.5 33.0004 23.5 33.0004V33.0004C23.5 33.0004 23.5 33.0004 23.5 33.0004C23.5 33.0004 23.5 33.0004 23.5 33.0004V33.0004V33.0004C23.5 33.0004 23.5 33.0004 23.5 33.0004C23.5 33.0004 23.5 33.0004 23.5 33.0004V33.0004C23.5 33.0004 23.5 33.0004 23.5 33.0004C23.5 33.0004 23.5 33.0004 23.5 33.0004V33.0004V33.0004C23.5 33.0004 23.5 33.0004 23.5 33.0004C23.5 33.0004 23.5 33.0004 23.5 33.0004V33.0004C23.5 33.0004 23.5 33.0004 23.5 33.0004C23.5 33.0004 23.5 33.0004 23.5 33.0003V33.0003V33.0003C23.5 33.0003 23.5 33.0003 23.5 33.0003V33.0003V33.0003C23.5 33.0003 23.5 33.0003 23.5 33.0003C23.5 33.0003 23.5 33.0003 23.5 33.0003V33.0003C23.5 33.0003 23.5 33.0003 23.5 33.0003C23.5 33.0003 23.5 33.0003 23.5 33.0003V33.0003V33.0003C23.5 33.0003 23.5 33.0003 23.5 33.0003C23.5 33.0003 23.5 33.0003 23.5 33.0003V33.0003C23.5 33.0003 23.5 33.0003 23.5 33.0003C23.5 33.0003 23.5 33.0003 23.5 33.0003V33.0003V33.0003C23.5 33.0003 23.5 33.0003 23.5 33.0003C23.5 33.0003 23.5 33.0003 23.5 33.0003V33.0003C23.5 33.0003 23.5 33.0003 23.5 33.0003C23.5 33.0003 23.5 33.0003 23.5 33.0003V33.0003V33.0003C23.5 33.0003 23.5 33.0003 23.5 33.0003C23.5 33.0003 23.5 33.0003 23.5 33.0003V33.0003C23.5 33.0003 23.5 33.0003 23.5 33.0003C23.5 33.0003 23.5 33.0003 23.5 33.0003V33.0003C23.5 33.0003 23.5 33.0003 23.5 33.0003C23.5 33.0003 23.5 33.0003 23.5 33.0003V33.0003V33.0003C23.5 33.0003 23.5 33.0003 23.5 33.0003C23.5 33.0003 23.5 33.0003 23.5 33.0003V33.0003C23.5 33.0003 23.5 33.0003 23.5 33.0003C23.5 33.0002 23.5 33.0002 23.5 33.0002V33.0002V33.0002C23.5 33.0002 23.5 33.0002 23.5 33.0002C23.5 33.0002 23.5 33.0002 23.5 33.0002V33.0002C23.5 33.0002 23.5 33.0002 23.5 33.0002C23.5 33.0002 23.5 33.0002 23.5 33.0002V33.0002V33.0002C23.5 33.0002 23.5 33.0002 23.5 33.0002C23.5 33.0002 23.5 33.0002 23.5 33.0002V33.0002C23.5 33.0002 23.5 33.0002 23.5 33.0002C23.5 33.0002 23.5 33.0002 23.5 33.0002V33.0002V33.0002C23.5 33.0002 23.5 33.0002 23.5 33.0002V33.0002V33.0002C23.5 33.0002 23.5 33.0002 23.5 33.0002C23.5 33.0002 23.5 33.0002 23.5 33.0002V33.0002C23.5 33.0002 23.5 33.0002 23.5 33.0002C23.5 33.0002 23.5 33.0002 23.5 33.0002V33.0002V33.0002C23.5 33.0002 23.5 33.0002 23.5 33.0002C23.5 33.0002 23.5 33.0002 23.5 33.0002V33.0002C23.5 33.0002 23.5 33.0002 23.5 33.0002C23.5 33.0002 23.5 33.0002 23.5 33.0002V33.0002V33.0002C23.5 33.0002 23.5 33.0002 23.5 33.0002C23.5 33.0002 23.5 33.0002 23.5 33.0002V33.0002C23.5 33.0002 23.5 33.0002 23.5 33.0002C23.5 33.0002 23.5 33.0002 23.5 33.0002V33.0002V33.0002C23.5 33.0001 23.5 33.0001 23.5 33.0001C23.5 33.0001 23.5 33.0001 23.5 33.0001V33.0001C23.5 33.0001 23.5 33.0001 23.5 33.0001C23.5 33.0001 23.5 33.0001 23.5 33.0001V33.0001V33.0001C23.5 33.0001 23.5 33.0001 23.5 33.0001V33.0001V33.0001C23.5 33.0001 23.5 33.0001 23.5 33.0001C23.5 33.0001 23.5 33.0001 23.5 33.0001V33.0001C23.5 33.0001 23.5 33.0001 23.5 33.0001C23.5 33.0001 23.5 33.0001 23.5 33.0001V33.0001V33.0001C23.5 33.0001 23.5 33.0001 23.5 33.0001C23.5 33.0001 23.5 33.0001 23.5 33.0001V33.0001C23.5 33.0001 23.5 33.0001 23.5 33.0001C23.5 33.0001 23.5 33.0001 23.5 33.0001V33.0001V33.0001C23.5 33.0001 23.5 33.0001 23.5 33.0001C23.5 33.0001 23.5 33.0001 23.5 33.0001V33.0001C23.5 33.0001 23.5 33.0001 23.5 33.0001C23.5 33.0001 23.5 33.0001 23.5 33.0001V33.0001V33.0001C23.5 33.0001 23.5 33.0001 23.5 33.0001C23.5 33.0001 23.5 33.0001 23.5 33.0001V33.0001C23.5 33.0001 23.5 33.0001 23.5 33.0001C23.5 33.0001 23.5 33.0001 23.5 33.0001V33.0001V33.0001C23.5 33.0001 23.5 33.0001 23.5 33.0001C23.5 33.0001 23.5 33.0001 23.5 33.0001V33C23.5 33 23.5 33 23.5 33C23.5 33 23.5 33 23.5 33V33C23.5 33 23.5 33 23.5 33C23.5 33 23.5 33 23.5 33V33V33C23.5 33 23.5 33 23.5 33C23.5 33 23.5 33 23.5 33V33C23.5 33 23.5 33 23.5 33C23.5 33 23.5 33 23.5 33V33V33C23.5 33 23.5 33 23.5 33C23.5 33 23.5 33 23.5 33V33C23.5 33 23.5 33 23.5 33C23.5 33 23.5 33 23.5 33V33H20.5Z" fill="#D3A45D"/>
<path d="M92 43C92 42.1716 91.3284 41.5 90.5 41.5C89.6716 41.5 89 42.1716 89 43H92ZM83 50.5V49C82.1716 49 81.5 49.6716 81.5 50.5H83ZM98 52.0004C98.8284 52.0004 99.5 51.3288 99.5 50.5004C99.5 49.6719 98.8284 49.0004 98 49.0004V52.0004ZM90.5 58L89 58.0001C89 58.8285 89.6716 59.5 90.5 59.5C91.3284 59.5 92 58.8285 92 58.0001L90.5 58ZM83 50.5004H81.5C81.5 51.3288 82.1716 52.0004 83 52.0004V50.5004ZM89 43C89 46.3137 86.3137 49 83 49V52C87.9706 52 92 47.9706 92 43H89ZM92 43.0004V43H89V43.0004H92ZM98 49.0004C94.6863 49.0004 92 46.3141 92 43.0004H89C89 47.9709 93.0294 52.0004 98 52.0004V49.0004ZM92 58.0001C92.0002 54.6865 94.6864 52.0004 98 52.0004V49.0004C93.0296 49.0004 89.0002 53.0296 89 57.9999L92 58.0001ZM83 52.0004C86.3136 52.0004 88.9998 54.6865 89 58.0001L92 57.9999C91.9998 53.0296 87.9704 49.0004 83 49.0004V52.0004ZM81.5 50.5V50.5C81.5 50.5 81.5 50.5 81.5 50.5V50.5C81.5 50.5 81.5 50.5 81.5 50.5V50.5C81.5 50.5 81.5 50.5 81.5 50.5V50.5C81.5 50.5 81.5 50.5 81.5 50.5V50.5C81.5 50.5 81.5 50.5 81.5 50.5C81.5 50.5 81.5 50.5 81.5 50.5V50.5C81.5 50.5 81.5 50.5 81.5 50.5V50.5C81.5 50.5 81.5 50.5 81.5 50.5V50.5C81.5 50.5 81.5 50.5 81.5 50.5V50.5C81.5 50.5 81.5 50.5 81.5 50.5V50.5C81.5 50.5 81.5 50.5 81.5 50.5C81.5 50.5 81.5 50.5 81.5 50.5V50.5C81.5 50.5 81.5 50.5 81.5 50.5V50.5C81.5 50.5 81.5 50.5 81.5 50.5V50.5C81.5 50.5 81.5 50.5 81.5 50.5V50.5C81.5 50.5 81.5 50.5 81.5 50.5V50.5C81.5 50.5 81.5 50.5 81.5 50.5C81.5 50.5 81.5 50.5 81.5 50.5V50.5C81.5 50.5 81.5 50.5 81.5 50.5V50.5C81.5 50.5 81.5 50.5 81.5 50.5V50.5C81.5 50.5 81.5 50.5 81.5 50.5V50.5C81.5 50.5 81.5 50.5 81.5 50.5V50.5V50.5C81.5 50.5 81.5 50.5 81.5 50.5V50.5C81.5 50.5 81.5 50.5 81.5 50.5V50.5C81.5 50.5 81.5 50.5 81.5 50.5V50.5C81.5 50.5 81.5 50.5 81.5 50.5V50.5C81.5 50.5 81.5 50.5 81.5 50.5V50.5V50.5C81.5 50.5 81.5 50.5 81.5 50.5V50.5C81.5 50.5 81.5 50.5 81.5 50.5V50.5C81.5 50.5 81.5 50.5 81.5 50.5V50.5C81.5 50.5 81.5 50.5 81.5 50.5V50.5C81.5 50.5 81.5 50.5 81.5 50.5C81.5 50.5 81.5 50.5 81.5 50.5V50.5C81.5 50.5 81.5 50.5 81.5 50.5V50.5C81.5 50.5 81.5 50.5 81.5 50.5V50.5C81.5 50.5 81.5 50.5 81.5 50.5V50.5C81.5 50.5 81.5 50.5 81.5 50.5001V50.5001C81.5 50.5001 81.5 50.5001 81.5 50.5001C81.5 50.5001 81.5 50.5001 81.5 50.5001V50.5001C81.5 50.5001 81.5 50.5001 81.5 50.5001V50.5001C81.5 50.5001 81.5 50.5001 81.5 50.5001V50.5001C81.5 50.5001 81.5 50.5001 81.5 50.5001V50.5001C81.5 50.5001 81.5 50.5001 81.5 50.5001V50.5001V50.5001C81.5 50.5001 81.5 50.5001 81.5 50.5001V50.5001C81.5 50.5001 81.5 50.5001 81.5 50.5001V50.5001C81.5 50.5001 81.5 50.5001 81.5 50.5001V50.5001C81.5 50.5001 81.5 50.5001 81.5 50.5001V50.5001C81.5 50.5001 81.5 50.5001 81.5 50.5001C81.5 50.5001 81.5 50.5001 81.5 50.5001V50.5001C81.5 50.5001 81.5 50.5001 81.5 50.5001V50.5001C81.5 50.5001 81.5 50.5001 81.5 50.5001V50.5001C81.5 50.5001 81.5 50.5001 81.5 50.5001V50.5001C81.5 50.5001 81.5 50.5001 81.5 50.5001V50.5001C81.5 50.5001 81.5 50.5001 81.5 50.5001C81.5 50.5001 81.5 50.5001 81.5 50.5001V50.5001C81.5 50.5001 81.5 50.5001 81.5 50.5001V50.5001C81.5 50.5001 81.5 50.5001 81.5 50.5001V50.5001C81.5 50.5001 81.5 50.5001 81.5 50.5001V50.5001C81.5 50.5001 81.5 50.5001 81.5 50.5001C81.5 50.5001 81.5 50.5001 81.5 50.5001V50.5001C81.5 50.5001 81.5 50.5001 81.5 50.5001V50.5001C81.5 50.5001 81.5 50.5001 81.5 50.5001V50.5001C81.5 50.5001 81.5 50.5001 81.5 50.5001V50.5001C81.5 50.5001 81.5 50.5001 81.5 50.5001V50.5001C81.5 50.5001 81.5 50.5001 81.5 50.5001C81.5 50.5001 81.5 50.5001 81.5 50.5001V50.5001C81.5 50.5001 81.5 50.5001 81.5 50.5001V50.5001C81.5 50.5001 81.5 50.5001 81.5 50.5001V50.5001C81.5 50.5001 81.5 50.5001 81.5 50.5001V50.5001C81.5 50.5001 81.5 50.5001 81.5 50.5001V50.5001V50.5001C81.5 50.5001 81.5 50.5001 81.5 50.5001V50.5001C81.5 50.5001 81.5 50.5001 81.5 50.5001V50.5001C81.5 50.5001 81.5 50.5001 81.5 50.5001V50.5001C81.5 50.5001 81.5 50.5001 81.5 50.5001V50.5001C81.5 50.5001 81.5 50.5001 81.5 50.5001C81.5 50.5001 81.5 50.5001 81.5 50.5001V50.5001C81.5 50.5001 81.5 50.5001 81.5 50.5001V50.5001C81.5 50.5001 81.5 50.5001 81.5 50.5001V50.5001C81.5 50.5001 81.5 50.5001 81.5 50.5001V50.5001C81.5 50.5001 81.5 50.5001 81.5 50.5001V50.5001V50.5001C81.5 50.5001 81.5 50.5001 81.5 50.5001V50.5001C81.5 50.5001 81.5 50.5001 81.5 50.5001V50.5001C81.5 50.5001 81.5 50.5001 81.5 50.5001V50.5001C81.5 50.5001 81.5 50.5001 81.5 50.5001V50.5001C81.5 50.5001 81.5 50.5001 81.5 50.5001C81.5 50.5001 81.5 50.5001 81.5 50.5001V50.5001C81.5 50.5001 81.5 50.5001 81.5 50.5001V50.5001C81.5 50.5001 81.5 50.5001 81.5 50.5001V50.5001C81.5 50.5001 81.5 50.5001 81.5 50.5001V50.5001C81.5 50.5001 81.5 50.5001 81.5 50.5001V50.5001C81.5 50.5001 81.5 50.5001 81.5 50.5001C81.5 50.5001 81.5 50.5001 81.5 50.5001V50.5001C81.5 50.5001 81.5 50.5001 81.5 50.5001V50.5001C81.5 50.5001 81.5 50.5001 81.5 50.5001V50.5001C81.5 50.5001 81.5 50.5001 81.5 50.5001V50.5001C81.5 50.5001 81.5 50.5001 81.5 50.5001C81.5 50.5001 81.5 50.5001 81.5 50.5001V50.5001C81.5 50.5001 81.5 50.5001 81.5 50.5001V50.5001C81.5 50.5001 81.5 50.5001 81.5 50.5001V50.5001C81.5 50.5001 81.5 50.5001 81.5 50.5001V50.5001C81.5 50.5001 81.5 50.5001 81.5 50.5001V50.5001C81.5 50.5001 81.5 50.5001 81.5 50.5001C81.5 50.5001 81.5 50.5001 81.5 50.5001V50.5001C81.5 50.5001 81.5 50.5001 81.5 50.5001V50.5001C81.5 50.5001 81.5 50.5001 81.5 50.5001V50.5001C81.5 50.5001 81.5 50.5001 81.5 50.5001V50.5001C81.5 50.5001 81.5 50.5001 81.5 50.5001V50.5001V50.5001C81.5 50.5001 81.5 50.5001 81.5 50.5001V50.5001C81.5 50.5001 81.5 50.5001 81.5 50.5001V50.5001C81.5 50.5001 81.5 50.5001 81.5 50.5001V50.5001C81.5 50.5001 81.5 50.5001 81.5 50.5001V50.5001C81.5 50.5001 81.5 50.5001 81.5 50.5001C81.5 50.5001 81.5 50.5001 81.5 50.5002V50.5002C81.5 50.5002 81.5 50.5002 81.5 50.5002V50.5002C81.5 50.5002 81.5 50.5002 81.5 50.5002V50.5002C81.5 50.5002 81.5 50.5002 81.5 50.5002V50.5002C81.5 50.5002 81.5 50.5002 81.5 50.5002V50.5002V50.5002C81.5 50.5002 81.5 50.5002 81.5 50.5002V50.5002C81.5 50.5002 81.5 50.5002 81.5 50.5002V50.5002C81.5 50.5002 81.5 50.5002 81.5 50.5002V50.5002C81.5 50.5002 81.5 50.5002 81.5 50.5002V50.5002C81.5 50.5002 81.5 50.5002 81.5 50.5002C81.5 50.5002 81.5 50.5002 81.5 50.5002V50.5002C81.5 50.5002 81.5 50.5002 81.5 50.5002V50.5002C81.5 50.5002 81.5 50.5002 81.5 50.5002V50.5002C81.5 50.5002 81.5 50.5002 81.5 50.5002V50.5002C81.5 50.5002 81.5 50.5002 81.5 50.5002V50.5002V50.5002C81.5 50.5002 81.5 50.5002 81.5 50.5002V50.5002C81.5 50.5002 81.5 50.5002 81.5 50.5002V50.5002C81.5 50.5002 81.5 50.5002 81.5 50.5002V50.5002C81.5 50.5002 81.5 50.5002 81.5 50.5002V50.5002C81.5 50.5002 81.5 50.5002 81.5 50.5002C81.5 50.5002 81.5 50.5002 81.5 50.5002V50.5002C81.5 50.5002 81.5 50.5002 81.5 50.5002V50.5002C81.5 50.5002 81.5 50.5002 81.5 50.5002V50.5002C81.5 50.5002 81.5 50.5002 81.5 50.5002V50.5002C81.5 50.5002 81.5 50.5002 81.5 50.5002V50.5002V50.5002C81.5 50.5002 81.5 50.5002 81.5 50.5002V50.5002C81.5 50.5002 81.5 50.5002 81.5 50.5002V50.5002C81.5 50.5002 81.5 50.5002 81.5 50.5002V50.5002C81.5 50.5002 81.5 50.5002 81.5 50.5002V50.5002C81.5 50.5002 81.5 50.5002 81.5 50.5002C81.5 50.5002 81.5 50.5002 81.5 50.5002V50.5002C81.5 50.5002 81.5 50.5002 81.5 50.5002V50.5002C81.5 50.5002 81.5 50.5002 81.5 50.5002V50.5002C81.5 50.5002 81.5 50.5002 81.5 50.5002V50.5002C81.5 50.5002 81.5 50.5002 81.5 50.5002V50.5002V50.5002C81.5 50.5002 81.5 50.5002 81.5 50.5002V50.5002C81.5 50.5002 81.5 50.5002 81.5 50.5002V50.5002C81.5 50.5002 81.5 50.5002 81.5 50.5002V50.5002C81.5 50.5002 81.5 50.5002 81.5 50.5002V50.5002C81.5 50.5002 81.5 50.5002 81.5 50.5002C81.5 50.5002 81.5 50.5002 81.5 50.5002V50.5002C81.5 50.5002 81.5 50.5002 81.5 50.5002V50.5002C81.5 50.5002 81.5 50.5002 81.5 50.5002V50.5002C81.5 50.5002 81.5 50.5002 81.5 50.5002V50.5002C81.5 50.5002 81.5 50.5002 81.5 50.5002V50.5002V50.5002C81.5 50.5002 81.5 50.5002 81.5 50.5002V50.5002C81.5 50.5002 81.5 50.5002 81.5 50.5002V50.5002C81.5 50.5002 81.5 50.5002 81.5 50.5002V50.5002C81.5 50.5002 81.5 50.5002 81.5 50.5002V50.5002C81.5 50.5002 81.5 50.5002 81.5 50.5002C81.5 50.5002 81.5 50.5002 81.5 50.5002V50.5002C81.5 50.5002 81.5 50.5002 81.5 50.5002V50.5002C81.5 50.5002 81.5 50.5002 81.5 50.5002V50.5002C81.5 50.5002 81.5 50.5002 81.5 50.5002V50.5002C81.5 50.5002 81.5 50.5002 81.5 50.5002V50.5002C81.5 50.5002 81.5 50.5002 81.5 50.5002C81.5 50.5002 81.5 50.5002 81.5 50.5002V50.5002C81.5 50.5002 81.5 50.5002 81.5 50.5002V50.5002C81.5 50.5002 81.5 50.5002 81.5 50.5002V50.5002C81.5 50.5002 81.5 50.5002 81.5 50.5002V50.5002C81.5 50.5002 81.5 50.5002 81.5 50.5002C81.5 50.5002 81.5 50.5002 81.5 50.5002V50.5002C81.5 50.5002 81.5 50.5002 81.5 50.5002V50.5002C81.5 50.5002 81.5 50.5002 81.5 50.5002V50.5002C81.5 50.5002 81.5 50.5002 81.5 50.5002V50.5002C81.5 50.5002 81.5 50.5002 81.5 50.5002V50.5002C81.5 50.5002 81.5 50.5002 81.5 50.5002C81.5 50.5002 81.5 50.5002 81.5 50.5002V50.5002C81.5 50.5002 81.5 50.5002 81.5 50.5002V50.5002C81.5 50.5002 81.5 50.5002 81.5 50.5002V50.5002C81.5 50.5002 81.5 50.5002 81.5 50.5002V50.5002C81.5 50.5002 81.5 50.5002 81.5 50.5002V50.5002V50.5002C81.5 50.5002 81.5 50.5002 81.5 50.5002V50.5002C81.5 50.5002 81.5 50.5002 81.5 50.5002V50.5003C81.5 50.5003 81.5 50.5003 81.5 50.5003V50.5003C81.5 50.5003 81.5 50.5003 81.5 50.5003V50.5003C81.5 50.5003 81.5 50.5003 81.5 50.5003C81.5 50.5003 81.5 50.5003 81.5 50.5003V50.5003C81.5 50.5003 81.5 50.5003 81.5 50.5003V50.5003C81.5 50.5003 81.5 50.5003 81.5 50.5003V50.5003C81.5 50.5003 81.5 50.5003 81.5 50.5003V50.5003C81.5 50.5003 81.5 50.5003 81.5 50.5003V50.5003V50.5003C81.5 50.5003 81.5 50.5003 81.5 50.5003V50.5003C81.5 50.5003 81.5 50.5003 81.5 50.5003V50.5003C81.5 50.5003 81.5 50.5003 81.5 50.5003V50.5003C81.5 50.5003 81.5 50.5003 81.5 50.5003V50.5003C81.5 50.5003 81.5 50.5003 81.5 50.5003C81.5 50.5003 81.5 50.5003 81.5 50.5003V50.5003C81.5 50.5003 81.5 50.5003 81.5 50.5003V50.5003C81.5 50.5003 81.5 50.5003 81.5 50.5003V50.5003C81.5 50.5003 81.5 50.5003 81.5 50.5003V50.5003C81.5 50.5003 81.5 50.5003 81.5 50.5003V50.5003C81.5 50.5003 81.5 50.5003 81.5 50.5003C81.5 50.5003 81.5 50.5003 81.5 50.5003V50.5003C81.5 50.5003 81.5 50.5003 81.5 50.5003V50.5003C81.5 50.5003 81.5 50.5003 81.5 50.5003V50.5003C81.5 50.5003 81.5 50.5003 81.5 50.5003V50.5003C81.5 50.5003 81.5 50.5003 81.5 50.5003C81.5 50.5003 81.5 50.5003 81.5 50.5003V50.5003C81.5 50.5003 81.5 50.5003 81.5 50.5003V50.5003C81.5 50.5003 81.5 50.5003 81.5 50.5003V50.5003C81.5 50.5003 81.5 50.5003 81.5 50.5003V50.5003C81.5 50.5003 81.5 50.5003 81.5 50.5003V50.5003C81.5 50.5003 81.5 50.5003 81.5 50.5003C81.5 50.5003 81.5 50.5003 81.5 50.5003V50.5003C81.5 50.5003 81.5 50.5003 81.5 50.5003V50.5003C81.5 50.5003 81.5 50.5003 81.5 50.5003V50.5003C81.5 50.5003 81.5 50.5003 81.5 50.5003V50.5003C81.5 50.5003 81.5 50.5003 81.5 50.5003V50.5003V50.5003C81.5 50.5003 81.5 50.5003 81.5 50.5003V50.5003C81.5 50.5003 81.5 50.5003 81.5 50.5003V50.5003C81.5 50.5003 81.5 50.5003 81.5 50.5003V50.5003C81.5 50.5003 81.5 50.5003 81.5 50.5003V50.5003C81.5 50.5003 81.5 50.5003 81.5 50.5003C81.5 50.5003 81.5 50.5003 81.5 50.5003V50.5003C81.5 50.5003 81.5 50.5003 81.5 50.5003V50.5003C81.5 50.5003 81.5 50.5003 81.5 50.5003V50.5003C81.5 50.5003 81.5 50.5003 81.5 50.5003V50.5003C81.5 50.5003 81.5 50.5003 81.5 50.5003V50.5003C81.5 50.5003 81.5 50.5003 81.5 50.5003C81.5 50.5003 81.5 50.5003 81.5 50.5003V50.5003C81.5 50.5003 81.5 50.5003 81.5 50.5003V50.5003C81.5 50.5003 81.5 50.5003 81.5 50.5003V50.5003C81.5 50.5003 81.5 50.5003 81.5 50.5003V50.5003C81.5 50.5003 81.5 50.5003 81.5 50.5003V50.5003V50.5003C81.5 50.5003 81.5 50.5003 81.5 50.5003V50.5003C81.5 50.5003 81.5 50.5003 81.5 50.5003V50.5003C81.5 50.5003 81.5 50.5003 81.5 50.5003V50.5003C81.5 50.5003 81.5 50.5003 81.5 50.5003V50.5003C81.5 50.5003 81.5 50.5003 81.5 50.5003V50.5003V50.5003C81.5 50.5003 81.5 50.5003 81.5 50.5003V50.5003C81.5 50.5003 81.5 50.5003 81.5 50.5003V50.5003C81.5 50.5003 81.5 50.5003 81.5 50.5003V50.5003C81.5 50.5003 81.5 50.5003 81.5 50.5003V50.5003C81.5 50.5003 81.5 50.5003 81.5 50.5003C81.5 50.5003 81.5 50.5003 81.5 50.5003V50.5003C81.5 50.5003 81.5 50.5003 81.5 50.5003V50.5003C81.5 50.5003 81.5 50.5003 81.5 50.5003V50.5003C81.5 50.5003 81.5 50.5003 81.5 50.5003V50.5003C81.5 50.5003 81.5 50.5003 81.5 50.5003V50.5003C81.5 50.5003 81.5 50.5003 81.5 50.5003C81.5 50.5003 81.5 50.5003 81.5 50.5003V50.5003C81.5 50.5003 81.5 50.5003 81.5 50.5003V50.5003C81.5 50.5003 81.5 50.5003 81.5 50.5003V50.5003C81.5 50.5003 81.5 50.5003 81.5 50.5003V50.5003C81.5 50.5003 81.5 50.5003 81.5 50.5003V50.5003C81.5 50.5003 81.5 50.5003 81.5 50.5003C81.5 50.5003 81.5 50.5003 81.5 50.5003V50.5003C81.5 50.5003 81.5 50.5003 81.5 50.5003V50.5003C81.5 50.5004 81.5 50.5004 81.5 50.5004V50.5004C81.5 50.5004 81.5 50.5004 81.5 50.5004V50.5004C81.5 50.5004 81.5 50.5004 81.5 50.5004V50.5004H84.5V50.5004C84.5 50.5004 84.5 50.5004 84.5 50.5004V50.5004C84.5 50.5004 84.5 50.5004 84.5 50.5004V50.5004C84.5 50.5004 84.5 50.5004 84.5 50.5003V50.5003C84.5 50.5003 84.5 50.5003 84.5 50.5003V50.5003C84.5 50.5003 84.5 50.5003 84.5 50.5003C84.5 50.5003 84.5 50.5003 84.5 50.5003V50.5003C84.5 50.5003 84.5 50.5003 84.5 50.5003V50.5003C84.5 50.5003 84.5 50.5003 84.5 50.5003V50.5003C84.5 50.5003 84.5 50.5003 84.5 50.5003V50.5003C84.5 50.5003 84.5 50.5003 84.5 50.5003V50.5003C84.5 50.5003 84.5 50.5003 84.5 50.5003C84.5 50.5003 84.5 50.5003 84.5 50.5003V50.5003C84.5 50.5003 84.5 50.5003 84.5 50.5003V50.5003C84.5 50.5003 84.5 50.5003 84.5 50.5003V50.5003C84.5 50.5003 84.5 50.5003 84.5 50.5003V50.5003C84.5 50.5003 84.5 50.5003 84.5 50.5003V50.5003C84.5 50.5003 84.5 50.5003 84.5 50.5003C84.5 50.5003 84.5 50.5003 84.5 50.5003V50.5003C84.5 50.5003 84.5 50.5003 84.5 50.5003V50.5003C84.5 50.5003 84.5 50.5003 84.5 50.5003V50.5003C84.5 50.5003 84.5 50.5003 84.5 50.5003V50.5003C84.5 50.5003 84.5 50.5003 84.5 50.5003V50.5003V50.5003C84.5 50.5003 84.5 50.5003 84.5 50.5003V50.5003C84.5 50.5003 84.5 50.5003 84.5 50.5003V50.5003C84.5 50.5003 84.5 50.5003 84.5 50.5003V50.5003C84.5 50.5003 84.5 50.5003 84.5 50.5003V50.5003C84.5 50.5003 84.5 50.5003 84.5 50.5003V50.5003V50.5003C84.5 50.5003 84.5 50.5003 84.5 50.5003V50.5003C84.5 50.5003 84.5 50.5003 84.5 50.5003V50.5003C84.5 50.5003 84.5 50.5003 84.5 50.5003V50.5003C84.5 50.5003 84.5 50.5003 84.5 50.5003V50.5003C84.5 50.5003 84.5 50.5003 84.5 50.5003C84.5 50.5003 84.5 50.5003 84.5 50.5003V50.5003C84.5 50.5003 84.5 50.5003 84.5 50.5003V50.5003C84.5 50.5003 84.5 50.5003 84.5 50.5003V50.5003C84.5 50.5003 84.5 50.5003 84.5 50.5003V50.5003C84.5 50.5003 84.5 50.5003 84.5 50.5003V50.5003C84.5 50.5003 84.5 50.5003 84.5 50.5003C84.5 50.5003 84.5 50.5003 84.5 50.5003V50.5003C84.5 50.5003 84.5 50.5003 84.5 50.5003V50.5003C84.5 50.5003 84.5 50.5003 84.5 50.5003V50.5003C84.5 50.5003 84.5 50.5003 84.5 50.5003V50.5003C84.5 50.5003 84.5 50.5003 84.5 50.5003V50.5003V50.5003C84.5 50.5003 84.5 50.5003 84.5 50.5003V50.5003C84.5 50.5003 84.5 50.5003 84.5 50.5003V50.5003C84.5 50.5003 84.5 50.5003 84.5 50.5003V50.5003C84.5 50.5003 84.5 50.5003 84.5 50.5003V50.5003C84.5 50.5003 84.5 50.5003 84.5 50.5003C84.5 50.5003 84.5 50.5003 84.5 50.5003V50.5003C84.5 50.5003 84.5 50.5003 84.5 50.5003V50.5003C84.5 50.5003 84.5 50.5003 84.5 50.5003V50.5003C84.5 50.5003 84.5 50.5003 84.5 50.5003V50.5003C84.5 50.5003 84.5 50.5003 84.5 50.5003V50.5003C84.5 50.5003 84.5 50.5003 84.5 50.5003C84.5 50.5003 84.5 50.5003 84.5 50.5003V50.5003C84.5 50.5003 84.5 50.5003 84.5 50.5003V50.5003C84.5 50.5003 84.5 50.5003 84.5 50.5003V50.5003C84.5 50.5003 84.5 50.5003 84.5 50.5003V50.5003C84.5 50.5003 84.5 50.5003 84.5 50.5003C84.5 50.5003 84.5 50.5003 84.5 50.5003V50.5003C84.5 50.5003 84.5 50.5003 84.5 50.5003V50.5003C84.5 50.5003 84.5 50.5003 84.5 50.5003V50.5003C84.5 50.5003 84.5 50.5003 84.5 50.5003V50.5003C84.5 50.5003 84.5 50.5003 84.5 50.5003V50.5003C84.5 50.5003 84.5 50.5003 84.5 50.5003C84.5 50.5003 84.5 50.5003 84.5 50.5003V50.5003C84.5 50.5003 84.5 50.5003 84.5 50.5003V50.5003C84.5 50.5003 84.5 50.5003 84.5 50.5003V50.5003C84.5 50.5003 84.5 50.5003 84.5 50.5003V50.5003C84.5 50.5003 84.5 50.5003 84.5 50.5003V50.5003V50.5003C84.5 50.5003 84.5 50.5003 84.5 50.5003V50.5003C84.5 50.5003 84.5 50.5003 84.5 50.5003V50.5003C84.5 50.5003 84.5 50.5003 84.5 50.5003V50.5003C84.5 50.5003 84.5 50.5003 84.5 50.5003V50.5003C84.5 50.5003 84.5 50.5003 84.5 50.5003C84.5 50.5003 84.5 50.5003 84.5 50.5003V50.5003C84.5 50.5003 84.5 50.5003 84.5 50.5003V50.5003C84.5 50.5003 84.5 50.5003 84.5 50.5003V50.5002C84.5 50.5002 84.5 50.5002 84.5 50.5002V50.5002C84.5 50.5002 84.5 50.5002 84.5 50.5002V50.5002V50.5002C84.5 50.5002 84.5 50.5002 84.5 50.5002V50.5002C84.5 50.5002 84.5 50.5002 84.5 50.5002V50.5002C84.5 50.5002 84.5 50.5002 84.5 50.5002V50.5002C84.5 50.5002 84.5 50.5002 84.5 50.5002V50.5002C84.5 50.5002 84.5 50.5002 84.5 50.5002C84.5 50.5002 84.5 50.5002 84.5 50.5002V50.5002C84.5 50.5002 84.5 50.5002 84.5 50.5002V50.5002C84.5 50.5002 84.5 50.5002 84.5 50.5002V50.5002C84.5 50.5002 84.5 50.5002 84.5 50.5002V50.5002C84.5 50.5002 84.5 50.5002 84.5 50.5002V50.5002C84.5 50.5002 84.5 50.5002 84.5 50.5002C84.5 50.5002 84.5 50.5002 84.5 50.5002V50.5002C84.5 50.5002 84.5 50.5002 84.5 50.5002V50.5002C84.5 50.5002 84.5 50.5002 84.5 50.5002V50.5002C84.5 50.5002 84.5 50.5002 84.5 50.5002V50.5002C84.5 50.5002 84.5 50.5002 84.5 50.5002C84.5 50.5002 84.5 50.5002 84.5 50.5002V50.5002C84.5 50.5002 84.5 50.5002 84.5 50.5002V50.5002C84.5 50.5002 84.5 50.5002 84.5 50.5002V50.5002C84.5 50.5002 84.5 50.5002 84.5 50.5002V50.5002C84.5 50.5002 84.5 50.5002 84.5 50.5002V50.5002C84.5 50.5002 84.5 50.5002 84.5 50.5002C84.5 50.5002 84.5 50.5002 84.5 50.5002V50.5002C84.5 50.5002 84.5 50.5002 84.5 50.5002V50.5002C84.5 50.5002 84.5 50.5002 84.5 50.5002V50.5002C84.5 50.5002 84.5 50.5002 84.5 50.5002V50.5002C84.5 50.5002 84.5 50.5002 84.5 50.5002V50.5002V50.5002C84.5 50.5002 84.5 50.5002 84.5 50.5002V50.5002C84.5 50.5002 84.5 50.5002 84.5 50.5002V50.5002C84.5 50.5002 84.5 50.5002 84.5 50.5002V50.5002C84.5 50.5002 84.5 50.5002 84.5 50.5002V50.5002C84.5 50.5002 84.5 50.5002 84.5 50.5002C84.5 50.5002 84.5 50.5002 84.5 50.5002V50.5002C84.5 50.5002 84.5 50.5002 84.5 50.5002V50.5002C84.5 50.5002 84.5 50.5002 84.5 50.5002V50.5002C84.5 50.5002 84.5 50.5002 84.5 50.5002V50.5002C84.5 50.5002 84.5 50.5002 84.5 50.5002V50.5002V50.5002C84.5 50.5002 84.5 50.5002 84.5 50.5002V50.5002C84.5 50.5002 84.5 50.5002 84.5 50.5002V50.5002C84.5 50.5002 84.5 50.5002 84.5 50.5002V50.5002C84.5 50.5002 84.5 50.5002 84.5 50.5002V50.5002C84.5 50.5002 84.5 50.5002 84.5 50.5002C84.5 50.5002 84.5 50.5002 84.5 50.5002V50.5002C84.5 50.5002 84.5 50.5002 84.5 50.5002V50.5002C84.5 50.5002 84.5 50.5002 84.5 50.5002V50.5002C84.5 50.5002 84.5 50.5002 84.5 50.5002V50.5002C84.5 50.5002 84.5 50.5002 84.5 50.5002V50.5002V50.5002C84.5 50.5002 84.5 50.5002 84.5 50.5002V50.5002C84.5 50.5002 84.5 50.5002 84.5 50.5002V50.5002C84.5 50.5002 84.5 50.5002 84.5 50.5002V50.5002C84.5 50.5002 84.5 50.5002 84.5 50.5002V50.5002C84.5 50.5002 84.5 50.5002 84.5 50.5002C84.5 50.5002 84.5 50.5002 84.5 50.5002V50.5002C84.5 50.5002 84.5 50.5002 84.5 50.5002V50.5002C84.5 50.5002 84.5 50.5002 84.5 50.5002V50.5002C84.5 50.5002 84.5 50.5002 84.5 50.5002V50.5002C84.5 50.5002 84.5 50.5002 84.5 50.5002V50.5002V50.5002C84.5 50.5002 84.5 50.5002 84.5 50.5002V50.5002C84.5 50.5002 84.5 50.5002 84.5 50.5002V50.5002C84.5 50.5002 84.5 50.5002 84.5 50.5002V50.5002C84.5 50.5002 84.5 50.5002 84.5 50.5002V50.5002C84.5 50.5002 84.5 50.5002 84.5 50.5002C84.5 50.5002 84.5 50.5002 84.5 50.5002V50.5002C84.5 50.5002 84.5 50.5002 84.5 50.5002V50.5002C84.5 50.5002 84.5 50.5002 84.5 50.5002V50.5002C84.5 50.5002 84.5 50.5002 84.5 50.5002V50.5002C84.5 50.5002 84.5 50.5002 84.5 50.5002V50.5002V50.5002C84.5 50.5002 84.5 50.5002 84.5 50.5002V50.5002C84.5 50.5002 84.5 50.5002 84.5 50.5002V50.5002C84.5 50.5002 84.5 50.5002 84.5 50.5002V50.5002C84.5 50.5002 84.5 50.5002 84.5 50.5002V50.5002C84.5 50.5001 84.5 50.5001 84.5 50.5001C84.5 50.5001 84.5 50.5001 84.5 50.5001V50.5001C84.5 50.5001 84.5 50.5001 84.5 50.5001V50.5001C84.5 50.5001 84.5 50.5001 84.5 50.5001V50.5001C84.5 50.5001 84.5 50.5001 84.5 50.5001V50.5001C84.5 50.5001 84.5 50.5001 84.5 50.5001V50.5001V50.5001C84.5 50.5001 84.5 50.5001 84.5 50.5001V50.5001C84.5 50.5001 84.5 50.5001 84.5 50.5001V50.5001C84.5 50.5001 84.5 50.5001 84.5 50.5001V50.5001C84.5 50.5001 84.5 50.5001 84.5 50.5001V50.5001C84.5 50.5001 84.5 50.5001 84.5 50.5001C84.5 50.5001 84.5 50.5001 84.5 50.5001V50.5001C84.5 50.5001 84.5 50.5001 84.5 50.5001V50.5001C84.5 50.5001 84.5 50.5001 84.5 50.5001V50.5001C84.5 50.5001 84.5 50.5001 84.5 50.5001V50.5001C84.5 50.5001 84.5 50.5001 84.5 50.5001V50.5001C84.5 50.5001 84.5 50.5001 84.5 50.5001C84.5 50.5001 84.5 50.5001 84.5 50.5001V50.5001C84.5 50.5001 84.5 50.5001 84.5 50.5001V50.5001C84.5 50.5001 84.5 50.5001 84.5 50.5001V50.5001C84.5 50.5001 84.5 50.5001 84.5 50.5001V50.5001C84.5 50.5001 84.5 50.5001 84.5 50.5001C84.5 50.5001 84.5 50.5001 84.5 50.5001V50.5001C84.5 50.5001 84.5 50.5001 84.5 50.5001V50.5001C84.5 50.5001 84.5 50.5001 84.5 50.5001V50.5001C84.5 50.5001 84.5 50.5001 84.5 50.5001V50.5001C84.5 50.5001 84.5 50.5001 84.5 50.5001V50.5001C84.5 50.5001 84.5 50.5001 84.5 50.5001C84.5 50.5001 84.5 50.5001 84.5 50.5001V50.5001C84.5 50.5001 84.5 50.5001 84.5 50.5001V50.5001C84.5 50.5001 84.5 50.5001 84.5 50.5001V50.5001C84.5 50.5001 84.5 50.5001 84.5 50.5001V50.5001C84.5 50.5001 84.5 50.5001 84.5 50.5001V50.5001V50.5001C84.5 50.5001 84.5 50.5001 84.5 50.5001V50.5001C84.5 50.5001 84.5 50.5001 84.5 50.5001V50.5001C84.5 50.5001 84.5 50.5001 84.5 50.5001V50.5001C84.5 50.5001 84.5 50.5001 84.5 50.5001V50.5001C84.5 50.5001 84.5 50.5001 84.5 50.5001C84.5 50.5001 84.5 50.5001 84.5 50.5001V50.5001C84.5 50.5001 84.5 50.5001 84.5 50.5001V50.5001C84.5 50.5001 84.5 50.5001 84.5 50.5001V50.5001C84.5 50.5001 84.5 50.5001 84.5 50.5001V50.5001C84.5 50.5001 84.5 50.5001 84.5 50.5001V50.5001V50.5001C84.5 50.5001 84.5 50.5001 84.5 50.5001V50.5001C84.5 50.5001 84.5 50.5001 84.5 50.5001V50.5001C84.5 50.5001 84.5 50.5001 84.5 50.5001V50.5001C84.5 50.5001 84.5 50.5001 84.5 50.5001V50.5001C84.5 50.5001 84.5 50.5001 84.5 50.5001C84.5 50.5001 84.5 50.5001 84.5 50.5001V50.5001C84.5 50.5001 84.5 50.5001 84.5 50.5001V50.5001C84.5 50.5001 84.5 50.5001 84.5 50.5001V50.5001C84.5 50.5001 84.5 50.5001 84.5 50.5001V50.5001C84.5 50.5001 84.5 50.5001 84.5 50.5001V50.5001C84.5 50.5001 84.5 50.5001 84.5 50.5001C84.5 50.5001 84.5 50.5001 84.5 50.5001V50.5001C84.5 50.5001 84.5 50.5001 84.5 50.5001V50.5001C84.5 50.5001 84.5 50.5001 84.5 50.5001V50.5001C84.5 50.5001 84.5 50.5001 84.5 50.5001V50.5001C84.5 50.5001 84.5 50.5001 84.5 50.5001C84.5 50.5001 84.5 50.5001 84.5 50.5001V50.5001C84.5 50.5001 84.5 50.5001 84.5 50.5001V50.5001C84.5 50.5001 84.5 50.5001 84.5 50.5001V50.5001C84.5 50.5001 84.5 50.5001 84.5 50.5001V50.5001C84.5 50.5001 84.5 50.5001 84.5 50.5001V50.5001C84.5 50.5001 84.5 50.5001 84.5 50.5001C84.5 50.5001 84.5 50.5001 84.5 50.5001V50.5001C84.5 50.5001 84.5 50.5001 84.5 50.5001V50.5001C84.5 50.5001 84.5 50.5001 84.5 50.5001V50.5001C84.5 50.5001 84.5 50.5001 84.5 50.5001V50.5001C84.5 50.5001 84.5 50.5001 84.5 50.5001V50.5001V50.5001C84.5 50.5001 84.5 50.5001 84.5 50.5001V50.5001C84.5 50.5001 84.5 50.5001 84.5 50.5001V50.5001C84.5 50.5001 84.5 50.5001 84.5 50.5001V50.5001C84.5 50.5001 84.5 50.5001 84.5 50.5001V50.5001C84.5 50.5001 84.5 50.5001 84.5 50.5001C84.5 50.5001 84.5 50.5001 84.5 50.5001V50.5001C84.5 50.5 84.5 50.5 84.5 50.5V50.5C84.5 50.5 84.5 50.5 84.5 50.5V50.5C84.5 50.5 84.5 50.5 84.5 50.5V50.5C84.5 50.5 84.5 50.5 84.5 50.5V50.5C84.5 50.5 84.5 50.5 84.5 50.5C84.5 50.5 84.5 50.5 84.5 50.5V50.5C84.5 50.5 84.5 50.5 84.5 50.5V50.5C84.5 50.5 84.5 50.5 84.5 50.5V50.5C84.5 50.5 84.5 50.5 84.5 50.5V50.5C84.5 50.5 84.5 50.5 84.5 50.5V50.5V50.5C84.5 50.5 84.5 50.5 84.5 50.5V50.5C84.5 50.5 84.5 50.5 84.5 50.5V50.5C84.5 50.5 84.5 50.5 84.5 50.5V50.5C84.5 50.5 84.5 50.5 84.5 50.5V50.5C84.5 50.5 84.5 50.5 84.5 50.5V50.5V50.5C84.5 50.5 84.5 50.5 84.5 50.5V50.5C84.5 50.5 84.5 50.5 84.5 50.5V50.5C84.5 50.5 84.5 50.5 84.5 50.5V50.5C84.5 50.5 84.5 50.5 84.5 50.5V50.5C84.5 50.5 84.5 50.5 84.5 50.5C84.5 50.5 84.5 50.5 84.5 50.5V50.5C84.5 50.5 84.5 50.5 84.5 50.5V50.5C84.5 50.5 84.5 50.5 84.5 50.5V50.5C84.5 50.5 84.5 50.5 84.5 50.5V50.5C84.5 50.5 84.5 50.5 84.5 50.5V50.5C84.5 50.5 84.5 50.5 84.5 50.5C84.5 50.5 84.5 50.5 84.5 50.5V50.5C84.5 50.5 84.5 50.5 84.5 50.5V50.5C84.5 50.5 84.5 50.5 84.5 50.5V50.5C84.5 50.5 84.5 50.5 84.5 50.5V50.5C84.5 50.5 84.5 50.5 84.5 50.5V50.5C84.5 50.5 84.5 50.5 84.5 50.5C84.5 50.5 84.5 50.5 84.5 50.5V50.5C84.5 50.5 84.5 50.5 84.5 50.5V50.5C84.5 50.5 84.5 50.5 84.5 50.5V50.5C84.5 50.5 84.5 50.5 84.5 50.5V50.5C84.5 50.5 84.5 50.5 84.5 50.5V50.5H81.5Z" fill="#D3A45D"/>
</svg>
