<svg width="31" height="20" viewBox="0 0 31 20" fill="none" xmlns="http://www.w3.org/2000/svg">
<path d="M18.3598 17.2801C20.3864 16.6401 22.0131 15.6801 23.2398 14.4001C24.4131 13.1201 24.8664 11.4668 24.5998 9.44012C24.0131 8.96012 23.1864 8.45345 22.1198 7.92012C21.0531 7.44012 20.1198 7.06678 19.3198 6.80012C19.1064 5.94678 19.1064 5.12012 19.3198 4.32012C19.5331 3.52012 19.8798 2.80012 20.3598 2.16012C20.8398 1.57345 21.3998 1.06678 22.0398 0.640117C22.6798 0.266786 23.2664 0.053449 23.7998 0.000113832C25.6664 0.160116 27.2931 0.853449 28.6798 2.08012C30.0664 3.30678 30.7598 5.06678 30.7598 7.36012C30.7598 8.69345 30.5464 10.0268 30.1198 11.3601C29.6398 12.6935 28.9464 13.9201 28.0398 15.0401C27.1331 16.2135 25.9864 17.2268 24.5998 18.0801C23.2131 18.9868 21.5598 19.6268 19.6398 20.0001L18.3598 17.2801Z" fill="#D3A45D"/>
<path d="M0.000393152 17.2801C2.02706 16.6401 3.65372 15.6801 4.88039 14.4001C6.05372 13.1201 6.50706 11.4668 6.24039 9.44012C5.65373 8.96012 4.82705 8.45345 3.76039 7.92012C2.69372 7.44012 1.76039 7.06678 0.960393 6.80012C0.74706 5.94678 0.74706 5.12011 0.960393 4.32012C1.17373 3.52012 1.52039 2.80012 2.00039 2.16012C2.48039 1.57345 3.0404 1.06678 3.68039 0.640115C4.3204 0.266784 4.90706 0.0534474 5.44039 0.000112227C7.30706 0.160114 8.93373 0.853447 10.3204 2.08011C11.7071 3.30678 12.4004 5.06678 12.4004 7.36012C12.4004 8.69345 12.1871 10.0268 11.7604 11.3601C11.2804 12.6935 10.5871 13.9201 9.68039 15.0401C8.77373 16.2135 7.62706 17.2268 6.24039 18.0801C4.85372 18.9868 3.20039 19.6268 1.28039 20.0001L0.000393152 17.2801Z" fill="#D3A45D"/>
</svg>
