<svg width="39" height="39" viewBox="0 0 39 39" fill="none" xmlns="http://www.w3.org/2000/svg">
<path fill-rule="evenodd" clip-rule="evenodd" d="M2 19.4877C11.6531 19.4991 19.4762 27.3223 19.4877 36.9753C19.4991 27.3223 27.3223 19.4991 36.9753 19.4877C27.3223 19.4762 19.4991 11.6531 19.4877 2C19.4762 11.6531 11.6531 19.4762 2 19.4877Z" fill="white"/>
<path d="M2 19.4877L1.99822 17.9877C1.17049 17.9887 0.5 18.6599 0.5 19.4877C0.5 20.3154 1.17049 20.9867 1.99822 20.9877L2 19.4877ZM19.4877 36.9753L17.9877 36.9771C17.9887 37.8048 18.6599 38.4753 19.4877 38.4753C20.3154 38.4753 20.9867 37.8048 20.9877 36.9771L19.4877 36.9753ZM36.9753 19.4877L36.9771 20.9877C37.8048 20.9867 38.4753 20.3154 38.4753 19.4877C38.4753 18.6599 37.8048 17.9887 36.9771 17.9877L36.9753 19.4877ZM19.4877 2L20.9877 1.99822C20.9867 1.17049 20.3154 0.5 19.4877 0.5C18.6599 0.5 17.9887 1.17049 17.9877 1.99822L19.4877 2ZM1.99822 20.9877C10.8242 20.9982 17.9772 28.1511 17.9877 36.9771L20.9877 36.9735C20.9752 26.4935 12.4819 18.0001 2.00178 17.9877L1.99822 20.9877ZM36.9735 17.9877C26.4935 18.0001 18.0001 26.4935 17.9877 36.9735L20.9877 36.9771C20.9982 28.1511 28.1511 20.9982 36.9771 20.9877L36.9735 17.9877ZM17.9877 2.00178C18.0001 12.4819 26.4935 20.9752 36.9735 20.9877L36.9771 17.9877C28.1511 17.9772 20.9982 10.8242 20.9877 1.99822L17.9877 2.00178ZM2.00178 20.9877C12.4819 20.9752 20.9752 12.4819 20.9877 2.00178L17.9877 1.99822C17.9772 10.8242 10.8242 17.9772 1.99822 17.9877L2.00178 20.9877Z" fill="#F4F2EB"/>
</svg>
