<svg width="16" height="16" viewBox="0 0 16 16" fill="none" xmlns="http://www.w3.org/2000/svg">
<path d="M9 1C9 0.447715 8.55228 0 8 0C7.44772 0 7 0.447715 7 1H9ZM1 8V7C0.447715 7 0 7.44772 0 8H1ZM15 9.00021C15.5523 9.00021 16 8.5525 16 8.00021C16 7.44793 15.5523 7.00021 15 7.00021V9.00021ZM8 15L7 15C7.00002 15.5523 7.44773 16 8 16C8.55227 16 8.99998 15.5523 9 15L8 15ZM1 8.00021H0C0 8.5525 0.447715 9.00021 1 9.00021L1 8.00021ZM7 1C7 4.31371 4.31371 7 1 7V9C5.41828 9 9 5.41828 9 1H7ZM9 1.00021V1H7V1.00021H9ZM15 7.00021C11.6863 7.00021 9 4.31392 9 1.00021H7C7 5.41849 10.5817 9.00021 15 9.00021V7.00021ZM9 15C9.0001 11.6864 11.6864 9.00021 15 9.00021V7.00021C10.5818 7.00021 7.00013 10.5818 7 15L9 15ZM1 9.00021C4.31365 9.00021 6.9999 11.6864 7 15L9 15C8.99987 10.5818 5.4182 7.00021 1 7.00021V9.00021ZM0 8V8C0 8 0 8 0 8C0 8 0 8 0 8C0 8 0 8 0 8C0 8 0 8 0 8C0 8 0 8 0 8V8V8C0 8 0 8 0 8C0 8 0 8 0 8C0 8.00001 0 8.00001 0 8.00001C0 8.00001 0 8.00001 0 8.00001C0 8.00001 0 8.00001 0 8.00001V8.00001V8.00001C0 8.00001 0 8.00001 0 8.00001C0 8.00001 0 8.00001 0 8.00001C0 8.00001 0 8.00001 0 8.00001C0 8.00001 0 8.00001 0 8.00001C0 8.00001 0 8.00001 0 8.00001V8.00001V8.00001C0 8.00001 0 8.00001 0 8.00001C0 8.00001 0 8.00001 0 8.00001C0 8.00001 0 8.00001 0 8.00001C0 8.00001 0 8.00001 0 8.00001V8.00001V8.00001V8.00001C0 8.00001 0 8.00001 0 8.00001C0 8.00001 0 8.00001 0 8.00001C0 8.00002 0 8.00002 0 8.00002C0 8.00002 0 8.00002 0 8.00002V8.00002V8.00002V8.00002C0 8.00002 0 8.00002 0 8.00002C0 8.00002 0 8.00002 0 8.00002C0 8.00002 0 8.00002 0 8.00002C0 8.00002 0 8.00002 0 8.00002V8.00002V8.00002V8.00002C0 8.00002 0 8.00002 0 8.00002C0 8.00002 0 8.00002 0 8.00002C0 8.00002 0 8.00002 0 8.00002C0 8.00002 0 8.00002 0 8.00002V8.00002V8.00002V8.00002C0 8.00002 0 8.00002 0 8.00002C0 8.00002 0 8.00002 0 8.00002C0 8.00003 0 8.00003 0 8.00003C0 8.00003 0 8.00003 0 8.00003V8.00003V8.00003V8.00003C0 8.00003 0 8.00003 0 8.00003C0 8.00003 0 8.00003 0 8.00003C0 8.00003 0 8.00003 0 8.00003C0 8.00003 0 8.00003 0 8.00003V8.00003V8.00003C0 8.00003 0 8.00003 0 8.00003C0 8.00003 0 8.00003 0 8.00003C0 8.00003 0 8.00003 0 8.00003C0 8.00003 0 8.00003 0 8.00003C0 8.00003 0 8.00003 0 8.00003V8.00003V8.00003C0 8.00003 0 8.00003 0 8.00003C0 8.00003 0 8.00003 0 8.00003C0 8.00003 0 8.00003 0 8.00003C0 8.00004 0 8.00004 0 8.00004C0 8.00004 0 8.00004 0 8.00004V8.00004V8.00004C0 8.00004 0 8.00004 0 8.00004C0 8.00004 0 8.00004 0 8.00004C0 8.00004 0 8.00004 0 8.00004C0 8.00004 0 8.00004 0 8.00004C0 8.00004 0 8.00004 0 8.00004V8.00004V8.00004C0 8.00004 0 8.00004 0 8.00004C0 8.00004 0 8.00004 0 8.00004C0 8.00004 0 8.00004 0 8.00004C0 8.00004 0 8.00004 0 8.00004C0 8.00004 0 8.00004 0 8.00004V8.00004V8.00004C0 8.00004 0 8.00004 0 8.00004C0 8.00004 0 8.00004 0 8.00004C0 8.00004 0 8.00004 0 8.00004C0 8.00005 0 8.00005 0 8.00005C0 8.00005 0 8.00005 0 8.00005V8.00005V8.00005C0 8.00005 0 8.00005 0 8.00005C0 8.00005 0 8.00005 0 8.00005C0 8.00005 0 8.00005 0 8.00005C0 8.00005 0 8.00005 0 8.00005C0 8.00005 0 8.00005 0 8.00005V8.00005V8.00005C0 8.00005 0 8.00005 0 8.00005C0 8.00005 0 8.00005 0 8.00005C0 8.00005 0 8.00005 0 8.00005C0 8.00005 0 8.00005 0 8.00005C0 8.00005 0 8.00005 0 8.00005V8.00005V8.00005C0 8.00005 0 8.00005 0 8.00005C0 8.00005 0 8.00005 0 8.00005C0 8.00005 0 8.00005 0 8.00005C0 8.00006 0 8.00006 0 8.00006C0 8.00006 0 8.00006 0 8.00006V8.00006V8.00006C0 8.00006 0 8.00006 0 8.00006C0 8.00006 0 8.00006 0 8.00006C0 8.00006 0 8.00006 0 8.00006C0 8.00006 0 8.00006 0 8.00006C0 8.00006 0 8.00006 0 8.00006V8.00006V8.00006C0 8.00006 0 8.00006 0 8.00006C0 8.00006 0 8.00006 0 8.00006C0 8.00006 0 8.00006 0 8.00006C0 8.00006 0 8.00006 0 8.00006C0 8.00006 0 8.00006 0 8.00006V8.00006V8.00006C0 8.00006 0 8.00006 0 8.00006C0 8.00006 0 8.00006 0 8.00006C0 8.00006 0 8.00006 0 8.00006C0 8.00007 0 8.00007 0 8.00007C0 8.00007 0 8.00007 0 8.00007V8.00007V8.00007V8.00007C0 8.00007 0 8.00007 0 8.00007C0 8.00007 0 8.00007 0 8.00007C0 8.00007 0 8.00007 0 8.00007C0 8.00007 0 8.00007 0 8.00007V8.00007V8.00007V8.00007C0 8.00007 0 8.00007 0 8.00007C0 8.00007 0 8.00007 0 8.00007C0 8.00007 0 8.00007 0 8.00007C0 8.00007 0 8.00007 0 8.00007V8.00007V8.00007V8.00007C0 8.00007 0 8.00007 0 8.00007C0 8.00007 0 8.00007 0 8.00007C0 8.00008 0 8.00008 0 8.00008C0 8.00008 0 8.00008 0 8.00008V8.00008V8.00008V8.00008C0 8.00008 0 8.00008 0 8.00008C0 8.00008 0 8.00008 0 8.00008C0 8.00008 0 8.00008 0 8.00008C0 8.00008 0 8.00008 0 8.00008V8.00008V8.00008V8.00008C0 8.00008 0 8.00008 0 8.00008C0 8.00008 0 8.00008 0 8.00008C0 8.00008 0 8.00008 0 8.00008C0 8.00008 0 8.00008 0 8.00008V8.00008V8.00008V8.00008C0 8.00008 0 8.00008 0 8.00008C0 8.00008 0 8.00008 0 8.00008C0 8.00009 0 8.00009 0 8.00009C0 8.00009 0 8.00009 0 8.00009V8.00009V8.00009V8.00009C0 8.00009 0 8.00009 0 8.00009C0 8.00009 0 8.00009 0 8.00009C0 8.00009 0 8.00009 0 8.00009C0 8.00009 0 8.00009 0 8.00009C0 8.00009 0 8.00009 0 8.00009V8.00009V8.00009C0 8.00009 0 8.00009 0 8.00009C0 8.00009 0 8.00009 0 8.00009C0 8.00009 0 8.00009 0 8.00009C0 8.00009 0 8.00009 0 8.00009C0 8.00009 0 8.00009 0 8.00009V8.00009V8.00009C0 8.00009 0 8.00009 0 8.00009C0 8.00009 0 8.00009 0 8.00009C0 8.0001 0 8.0001 0 8.0001C0 8.0001 0 8.0001 0 8.0001C0 8.0001 0 8.0001 0 8.0001V8.0001V8.0001C0 8.0001 0 8.0001 0 8.0001C0 8.0001 0 8.0001 0 8.0001C0 8.0001 0 8.0001 0 8.0001C0 8.0001 0 8.0001 0 8.0001C0 8.0001 0 8.0001 0 8.0001V8.0001V8.0001C0 8.0001 0 8.0001 0 8.0001C0 8.0001 0 8.0001 0 8.0001C0 8.0001 0 8.0001 0 8.0001C0 8.0001 0 8.0001 0 8.0001C0 8.0001 0 8.0001 0 8.0001V8.0001V8.0001C0 8.0001 0 8.0001 0 8.0001C0 8.0001 0 8.0001 0 8.0001C0 8.00011 0 8.00011 0 8.00011C0 8.00011 0 8.00011 0 8.00011C0 8.00011 0 8.00011 0 8.00011V8.00011V8.00011C0 8.00011 0 8.00011 0 8.00011C0 8.00011 0 8.00011 0 8.00011C0 8.00011 0 8.00011 0 8.00011C0 8.00011 0 8.00011 0 8.00011C0 8.00011 0 8.00011 0 8.00011V8.00011V8.00011C0 8.00011 0 8.00011 0 8.00011C0 8.00011 0 8.00011 0 8.00011C0 8.00011 0 8.00011 0 8.00011C0 8.00011 0 8.00011 0 8.00011C0 8.00011 0 8.00011 0 8.00011V8.00011V8.00011C0 8.00011 0 8.00011 0 8.00011C0 8.00011 0 8.00011 0 8.00011C0 8.00011 0 8.00011 0 8.00012C0 8.00012 0 8.00012 0 8.00012C0 8.00012 0 8.00012 0 8.00012V8.00012V8.00012C0 8.00012 0 8.00012 0 8.00012C0 8.00012 0 8.00012 0 8.00012C0 8.00012 0 8.00012 0 8.00012C0 8.00012 0 8.00012 0 8.00012C0 8.00012 0 8.00012 0 8.00012V8.00012V8.00012C0 8.00012 0 8.00012 0 8.00012C0 8.00012 0 8.00012 0 8.00012C0 8.00012 0 8.00012 0 8.00012C0 8.00012 0 8.00012 0 8.00012C0 8.00012 0 8.00012 0 8.00012V8.00012V8.00012C0 8.00012 0 8.00012 0 8.00012C0 8.00012 0 8.00012 0 8.00012C0 8.00012 0 8.00012 0 8.00013C0 8.00013 0 8.00013 0 8.00013C0 8.00013 0 8.00013 0 8.00013V8.00013V8.00013V8.00013C0 8.00013 0 8.00013 0 8.00013C0 8.00013 0 8.00013 0 8.00013C0 8.00013 0 8.00013 0 8.00013C0 8.00013 0 8.00013 0 8.00013V8.00013V8.00013V8.00013C0 8.00013 0 8.00013 0 8.00013C0 8.00013 0 8.00013 0 8.00013C0 8.00013 0 8.00013 0 8.00013C0 8.00013 0 8.00013 0 8.00013V8.00013V8.00013V8.00013C0 8.00013 0 8.00013 0 8.00013C0 8.00013 0 8.00013 0 8.00014C0 8.00014 0 8.00014 0 8.00014C0 8.00014 0 8.00014 0 8.00014V8.00014V8.00014V8.00014C0 8.00014 0 8.00014 0 8.00014C0 8.00014 0 8.00014 0 8.00014C0 8.00014 0 8.00014 0 8.00014C0 8.00014 0 8.00014 0 8.00014V8.00014V8.00014V8.00014C0 8.00014 0 8.00014 0 8.00014C0 8.00014 0 8.00014 0 8.00014C0 8.00014 0 8.00014 0 8.00014C0 8.00014 0 8.00014 0 8.00014V8.00014V8.00014V8.00014C0 8.00014 0 8.00014 0 8.00014C0 8.00014 0 8.00014 0 8.00015C0 8.00015 0 8.00015 0 8.00015C0 8.00015 0 8.00015 0 8.00015V8.00015V8.00015V8.00015C0 8.00015 0 8.00015 0 8.00015C0 8.00015 0 8.00015 0 8.00015C0 8.00015 0 8.00015 0 8.00015C0 8.00015 0 8.00015 0 8.00015C0 8.00015 0 8.00015 0 8.00015V8.00015V8.00015C0 8.00015 0 8.00015 0 8.00015C0 8.00015 0 8.00015 0 8.00015C0 8.00015 0 8.00015 0 8.00015C0 8.00015 0 8.00015 0 8.00015C0 8.00015 0 8.00015 0 8.00015V8.00015V8.00015C0 8.00015 0 8.00015 0 8.00015C0 8.00015 0 8.00015 0 8.00016C0 8.00016 0 8.00016 0 8.00016C0 8.00016 0 8.00016 0 8.00016C0 8.00016 0 8.00016 0 8.00016V8.00016V8.00016C0 8.00016 0 8.00016 0 8.00016C0 8.00016 0 8.00016 0 8.00016C0 8.00016 0 8.00016 0 8.00016C0 8.00016 0 8.00016 0 8.00016C0 8.00016 0 8.00016 0 8.00016V8.00016V8.00016C0 8.00016 0 8.00016 0 8.00016C0 8.00016 0 8.00016 0 8.00016C0 8.00016 0 8.00016 0 8.00016C0 8.00016 0 8.00016 0 8.00016C0 8.00016 0 8.00016 0 8.00016V8.00016V8.00016C0 8.00016 0 8.00016 0 8.00016C0 8.00016 0 8.00016 0 8.00017C0 8.00017 0 8.00017 0 8.00017C0 8.00017 0 8.00017 0 8.00017C0 8.00017 0 8.00017 0 8.00017V8.00017V8.00017C0 8.00017 0 8.00017 0 8.00017C0 8.00017 0 8.00017 0 8.00017C0 8.00017 0 8.00017 0 8.00017C0 8.00017 0 8.00017 0 8.00017C0 8.00017 0 8.00017 0 8.00017V8.00017V8.00017C0 8.00017 0 8.00017 0 8.00017C0 8.00017 0 8.00017 0 8.00017C0 8.00017 0 8.00017 0 8.00017C0 8.00017 0 8.00017 0 8.00017C0 8.00017 0 8.00017 0 8.00017V8.00017V8.00017C0 8.00017 0 8.00017 0 8.00017C0 8.00017 0 8.00017 0 8.00018C0 8.00018 0 8.00018 0 8.00018C0 8.00018 0 8.00018 0 8.00018C0 8.00018 0 8.00018 0 8.00018V8.00018V8.00018C0 8.00018 0 8.00018 0 8.00018C0 8.00018 0 8.00018 0 8.00018C0 8.00018 0 8.00018 0 8.00018C0 8.00018 0 8.00018 0 8.00018C0 8.00018 0 8.00018 0 8.00018V8.00018V8.00018C0 8.00018 0 8.00018 0 8.00018C0 8.00018 0 8.00018 0 8.00018C0 8.00018 0 8.00018 0 8.00018C0 8.00018 0 8.00018 0 8.00018C0 8.00018 0 8.00018 0 8.00018V8.00018V8.00018C0 8.00018 0 8.00018 0 8.00019C0 8.00019 0 8.00019 0 8.00019C0 8.00019 0 8.00019 0 8.00019C0 8.00019 0 8.00019 0 8.00019V8.00019V8.00019V8.00019C0 8.00019 0 8.00019 0 8.00019C0 8.00019 0 8.00019 0 8.00019C0 8.00019 0 8.00019 0 8.00019C0 8.00019 0 8.00019 0 8.00019V8.00019V8.00019V8.00019C0 8.00019 0 8.00019 0 8.00019C0 8.00019 0 8.00019 0 8.00019C0 8.00019 0 8.00019 0 8.00019C0 8.00019 0 8.00019 0 8.00019V8.00019V8.00019V8.00019C0 8.00019 0 8.00019 0 8.0002C0 8.0002 0 8.0002 0 8.0002C0 8.0002 0 8.0002 0 8.0002C0 8.0002 0 8.0002 0 8.0002V8.0002V8.0002V8.0002C0 8.0002 0 8.0002 0 8.0002C0 8.0002 0 8.0002 0 8.0002C0 8.0002 0 8.0002 0 8.0002C0 8.0002 0 8.0002 0 8.0002V8.0002V8.0002V8.0002C0 8.0002 0 8.0002 0 8.0002C0 8.0002 0 8.0002 0 8.0002C0 8.0002 0 8.0002 0 8.0002C0 8.0002 0 8.0002 0 8.0002V8.0002V8.0002C0 8.0002 0 8.0002 0 8.0002C0 8.0002 0 8.0002 0 8.00021C0 8.00021 0 8.00021 0 8.00021C0 8.00021 0 8.00021 0 8.00021C0 8.00021 0 8.00021 0 8.00021V8.00021V8.00021C0 8.00021 0 8.00021 0 8.00021C0 8.00021 0 8.00021 0 8.00021C0 8.00021 0 8.00021 0 8.00021C0 8.00021 0 8.00021 0 8.00021C0 8.00021 0 8.00021 0 8.00021V8.00021V8.00021C0 8.00021 0 8.00021 0 8.00021C0 8.00021 0 8.00021 0 8.00021C0 8.00021 0 8.00021 0 8.00021C0 8.00021 0 8.00021 0 8.00021C0 8.00021 0 8.00021 0 8.00021V8.00021H2V8.00021C2 8.00021 2 8.00021 2 8.00021C2 8.00021 2 8.00021 2 8.00021C2 8.00021 2 8.00021 2 8.00021C2 8.00021 2 8.00021 2 8.00021C2 8.00021 2 8.00021 2 8.00021V8.00021V8.00021C2 8.00021 2 8.00021 2 8.00021C2 8.00021 2 8.00021 2 8.00021C2 8.00021 2 8.00021 2 8.00021C2 8.00021 2 8.00021 2 8.00021C2 8.00021 2 8.00021 2 8.00021V8.00021V8.00021C2 8.00021 2 8.00021 2 8.00021C2 8.00021 2 8.00021 2 8.00021C2 8.00021 2 8.00021 2 8.00021C2 8.0002 2 8.0002 2 8.0002C2 8.0002 2 8.0002 2 8.0002V8.0002V8.0002C2 8.0002 2 8.0002 2 8.0002C2 8.0002 2 8.0002 2 8.0002C2 8.0002 2 8.0002 2 8.0002C2 8.0002 2 8.0002 2 8.0002V8.0002V8.0002V8.0002C2 8.0002 2 8.0002 2 8.0002C2 8.0002 2 8.0002 2 8.0002C2 8.0002 2 8.0002 2 8.0002C2 8.0002 2 8.0002 2 8.0002V8.0002V8.0002V8.0002C2 8.0002 2 8.0002 2 8.0002C2 8.0002 2 8.0002 2 8.0002C2 8.0002 2 8.0002 2 8.0002C2 8.00019 2 8.00019 2 8.00019V8.00019V8.00019V8.00019C2 8.00019 2 8.00019 2 8.00019C2 8.00019 2 8.00019 2 8.00019C2 8.00019 2 8.00019 2 8.00019C2 8.00019 2 8.00019 2 8.00019V8.00019V8.00019V8.00019C2 8.00019 2 8.00019 2 8.00019C2 8.00019 2 8.00019 2 8.00019C2 8.00019 2 8.00019 2 8.00019C2 8.00019 2 8.00019 2 8.00019V8.00019V8.00019V8.00019C2 8.00019 2 8.00019 2 8.00019C2 8.00019 2 8.00019 2 8.00019C2 8.00019 2 8.00019 2 8.00019C2 8.00018 2 8.00018 2 8.00018V8.00018V8.00018C2 8.00018 2 8.00018 2 8.00018C2 8.00018 2 8.00018 2 8.00018C2 8.00018 2 8.00018 2 8.00018C2 8.00018 2 8.00018 2 8.00018C2 8.00018 2 8.00018 2 8.00018V8.00018V8.00018C2 8.00018 2 8.00018 2 8.00018C2 8.00018 2 8.00018 2 8.00018C2 8.00018 2 8.00018 2 8.00018C2 8.00018 2 8.00018 2 8.00018C2 8.00018 2 8.00018 2 8.00018V8.00018V8.00018C2 8.00018 2 8.00018 2 8.00018C2 8.00018 2 8.00018 2 8.00018C2 8.00018 2 8.00018 2 8.00018C2 8.00017 2 8.00017 2 8.00017C2 8.00017 2 8.00017 2 8.00017V8.00017V8.00017C2 8.00017 2 8.00017 2 8.00017C2 8.00017 2 8.00017 2 8.00017C2 8.00017 2 8.00017 2 8.00017C2 8.00017 2 8.00017 2 8.00017C2 8.00017 2 8.00017 2 8.00017V8.00017V8.00017C2 8.00017 2 8.00017 2 8.00017C2 8.00017 2 8.00017 2 8.00017C2 8.00017 2 8.00017 2 8.00017C2 8.00017 2 8.00017 2 8.00017C2 8.00017 2 8.00017 2 8.00017V8.00017V8.00017C2 8.00017 2 8.00017 2 8.00017C2 8.00017 2 8.00017 2 8.00017C2 8.00017 2 8.00017 2 8.00017C2 8.00016 2 8.00016 2 8.00016C2 8.00016 2 8.00016 2 8.00016V8.00016V8.00016C2 8.00016 2 8.00016 2 8.00016C2 8.00016 2 8.00016 2 8.00016C2 8.00016 2 8.00016 2 8.00016C2 8.00016 2 8.00016 2 8.00016C2 8.00016 2 8.00016 2 8.00016V8.00016V8.00016C2 8.00016 2 8.00016 2 8.00016C2 8.00016 2 8.00016 2 8.00016C2 8.00016 2 8.00016 2 8.00016C2 8.00016 2 8.00016 2 8.00016C2 8.00016 2 8.00016 2 8.00016V8.00016V8.00016C2 8.00016 2 8.00016 2 8.00016C2 8.00016 2 8.00016 2 8.00016C2 8.00016 2 8.00016 2 8.00016C2 8.00015 2 8.00015 2 8.00015C2 8.00015 2 8.00015 2 8.00015V8.00015V8.00015C2 8.00015 2 8.00015 2 8.00015C2 8.00015 2 8.00015 2 8.00015C2 8.00015 2 8.00015 2 8.00015C2 8.00015 2 8.00015 2 8.00015C2 8.00015 2 8.00015 2 8.00015V8.00015V8.00015C2 8.00015 2 8.00015 2 8.00015C2 8.00015 2 8.00015 2 8.00015C2 8.00015 2 8.00015 2 8.00015C2 8.00015 2 8.00015 2 8.00015C2 8.00015 2 8.00015 2 8.00015V8.00015V8.00015V8.00015C2 8.00015 2 8.00015 2 8.00015C2 8.00015 2 8.00015 2 8.00015C2 8.00014 2 8.00014 2 8.00014C2 8.00014 2 8.00014 2 8.00014V8.00014V8.00014V8.00014C2 8.00014 2 8.00014 2 8.00014C2 8.00014 2 8.00014 2 8.00014C2 8.00014 2 8.00014 2 8.00014C2 8.00014 2 8.00014 2 8.00014V8.00014V8.00014V8.00014C2 8.00014 2 8.00014 2 8.00014C2 8.00014 2 8.00014 2 8.00014C2 8.00014 2 8.00014 2 8.00014C2 8.00014 2 8.00014 2 8.00014V8.00014V8.00014V8.00014C2 8.00014 2 8.00014 2 8.00014C2 8.00014 2 8.00014 2 8.00014C2 8.00013 2 8.00013 2 8.00013C2 8.00013 2 8.00013 2 8.00013V8.00013V8.00013V8.00013C2 8.00013 2 8.00013 2 8.00013C2 8.00013 2 8.00013 2 8.00013C2 8.00013 2 8.00013 2 8.00013C2 8.00013 2 8.00013 2 8.00013V8.00013V8.00013V8.00013C2 8.00013 2 8.00013 2 8.00013C2 8.00013 2 8.00013 2 8.00013C2 8.00013 2 8.00013 2 8.00013C2 8.00013 2 8.00013 2 8.00013V8.00013V8.00013V8.00013C2 8.00013 2 8.00013 2 8.00013C2 8.00013 2 8.00013 2 8.00013C2 8.00012 2 8.00012 2 8.00012C2 8.00012 2 8.00012 2 8.00012C2 8.00012 2 8.00012 2 8.00012V8.00012V8.00012C2 8.00012 2 8.00012 2 8.00012C2 8.00012 2 8.00012 2 8.00012C2 8.00012 2 8.00012 2 8.00012C2 8.00012 2 8.00012 2 8.00012C2 8.00012 2 8.00012 2 8.00012V8.00012V8.00012C2 8.00012 2 8.00012 2 8.00012C2 8.00012 2 8.00012 2 8.00012C2 8.00012 2 8.00012 2 8.00012C2 8.00012 2 8.00012 2 8.00012C2 8.00012 2 8.00012 2 8.00012V8.00012V8.00012C2 8.00012 2 8.00012 2 8.00012C2 8.00012 2 8.00012 2 8.00012C2 8.00011 2 8.00011 2 8.00011C2 8.00011 2 8.00011 2 8.00011C2 8.00011 2 8.00011 2 8.00011V8.00011V8.00011C2 8.00011 2 8.00011 2 8.00011C2 8.00011 2 8.00011 2 8.00011C2 8.00011 2 8.00011 2 8.00011C2 8.00011 2 8.00011 2 8.00011C2 8.00011 2 8.00011 2 8.00011V8.00011V8.00011C2 8.00011 2 8.00011 2 8.00011C2 8.00011 2 8.00011 2 8.00011C2 8.00011 2 8.00011 2 8.00011C2 8.00011 2 8.00011 2 8.00011C2 8.00011 2 8.00011 2 8.00011V8.00011V8.00011C2 8.00011 2 8.00011 2 8.00011C2 8.00011 2 8.00011 2 8.00011C2 8.00011 2 8.00011 2 8.0001C2 8.0001 2 8.0001 2 8.0001C2 8.0001 2 8.0001 2 8.0001V8.0001V8.0001C2 8.0001 2 8.0001 2 8.0001C2 8.0001 2 8.0001 2 8.0001C2 8.0001 2 8.0001 2 8.0001C2 8.0001 2 8.0001 2 8.0001C2 8.0001 2 8.0001 2 8.0001V8.0001V8.0001C2 8.0001 2 8.0001 2 8.0001C2 8.0001 2 8.0001 2 8.0001C2 8.0001 2 8.0001 2 8.0001C2 8.0001 2 8.0001 2 8.0001C2 8.0001 2 8.0001 2 8.0001V8.0001V8.0001C2 8.0001 2 8.0001 2 8.0001C2 8.0001 2 8.0001 2 8.0001C2 8.0001 2 8.0001 2 8.00009C2 8.00009 2 8.00009 2 8.00009C2 8.00009 2 8.00009 2 8.00009V8.00009V8.00009C2 8.00009 2 8.00009 2 8.00009C2 8.00009 2 8.00009 2 8.00009C2 8.00009 2 8.00009 2 8.00009C2 8.00009 2 8.00009 2 8.00009C2 8.00009 2 8.00009 2 8.00009V8.00009V8.00009C2 8.00009 2 8.00009 2 8.00009C2 8.00009 2 8.00009 2 8.00009C2 8.00009 2 8.00009 2 8.00009C2 8.00009 2 8.00009 2 8.00009C2 8.00009 2 8.00009 2 8.00009V8.00009V8.00009V8.00009C2 8.00009 2 8.00009 2 8.00009C2 8.00009 2 8.00009 2 8.00008C2 8.00008 2 8.00008 2 8.00008C2 8.00008 2 8.00008 2 8.00008V8.00008V8.00008V8.00008C2 8.00008 2 8.00008 2 8.00008C2 8.00008 2 8.00008 2 8.00008C2 8.00008 2 8.00008 2 8.00008C2 8.00008 2 8.00008 2 8.00008V8.00008V8.00008V8.00008C2 8.00008 2 8.00008 2 8.00008C2 8.00008 2 8.00008 2 8.00008C2 8.00008 2 8.00008 2 8.00008C2 8.00008 2 8.00008 2 8.00008V8.00008V8.00008V8.00008C2 8.00008 2 8.00008 2 8.00008C2 8.00008 2 8.00008 2 8.00007C2 8.00007 2 8.00007 2 8.00007C2 8.00007 2 8.00007 2 8.00007V8.00007V8.00007V8.00007C2 8.00007 2 8.00007 2 8.00007C2 8.00007 2 8.00007 2 8.00007C2 8.00007 2 8.00007 2 8.00007C2 8.00007 2 8.00007 2 8.00007V8.00007V8.00007V8.00007C2 8.00007 2 8.00007 2 8.00007C2 8.00007 2 8.00007 2 8.00007C2 8.00007 2 8.00007 2 8.00007C2 8.00007 2 8.00007 2 8.00007V8.00007V8.00007V8.00007C2 8.00007 2 8.00007 2 8.00007C2 8.00007 2 8.00007 2 8.00006C2 8.00006 2 8.00006 2 8.00006C2 8.00006 2 8.00006 2 8.00006C2 8.00006 2 8.00006 2 8.00006V8.00006V8.00006C2 8.00006 2 8.00006 2 8.00006C2 8.00006 2 8.00006 2 8.00006C2 8.00006 2 8.00006 2 8.00006C2 8.00006 2 8.00006 2 8.00006C2 8.00006 2 8.00006 2 8.00006V8.00006V8.00006C2 8.00006 2 8.00006 2 8.00006C2 8.00006 2 8.00006 2 8.00006C2 8.00006 2 8.00006 2 8.00006C2 8.00006 2 8.00006 2 8.00006C2 8.00006 2 8.00006 2 8.00006V8.00006V8.00006C2 8.00006 2 8.00006 2 8.00006C2 8.00006 2 8.00006 2 8.00005C2 8.00005 2 8.00005 2 8.00005C2 8.00005 2 8.00005 2 8.00005C2 8.00005 2 8.00005 2 8.00005V8.00005V8.00005C2 8.00005 2 8.00005 2 8.00005C2 8.00005 2 8.00005 2 8.00005C2 8.00005 2 8.00005 2 8.00005C2 8.00005 2 8.00005 2 8.00005C2 8.00005 2 8.00005 2 8.00005V8.00005V8.00005C2 8.00005 2 8.00005 2 8.00005C2 8.00005 2 8.00005 2 8.00005C2 8.00005 2 8.00005 2 8.00005C2 8.00005 2 8.00005 2 8.00005C2 8.00005 2 8.00005 2 8.00005V8.00005V8.00005C2 8.00005 2 8.00005 2 8.00005C2 8.00005 2 8.00005 2 8.00004C2 8.00004 2 8.00004 2 8.00004C2 8.00004 2 8.00004 2 8.00004C2 8.00004 2 8.00004 2 8.00004V8.00004V8.00004C2 8.00004 2 8.00004 2 8.00004C2 8.00004 2 8.00004 2 8.00004C2 8.00004 2 8.00004 2 8.00004C2 8.00004 2 8.00004 2 8.00004C2 8.00004 2 8.00004 2 8.00004V8.00004V8.00004C2 8.00004 2 8.00004 2 8.00004C2 8.00004 2 8.00004 2 8.00004C2 8.00004 2 8.00004 2 8.00004C2 8.00004 2 8.00004 2 8.00004C2 8.00004 2 8.00004 2 8.00004V8.00004V8.00004C2 8.00004 2 8.00004 2 8.00004C2 8.00004 2 8.00004 2 8.00003C2 8.00003 2 8.00003 2 8.00003C2 8.00003 2 8.00003 2 8.00003C2 8.00003 2 8.00003 2 8.00003V8.00003V8.00003C2 8.00003 2 8.00003 2 8.00003C2 8.00003 2 8.00003 2 8.00003C2 8.00003 2 8.00003 2 8.00003C2 8.00003 2 8.00003 2 8.00003C2 8.00003 2 8.00003 2 8.00003V8.00003V8.00003C2 8.00003 2 8.00003 2 8.00003C2 8.00003 2 8.00003 2 8.00003C2 8.00003 2 8.00003 2 8.00003C2 8.00003 2 8.00003 2 8.00003V8.00003V8.00003V8.00003C2 8.00003 2 8.00003 2 8.00003C2 8.00003 2 8.00003 2 8.00002C2 8.00002 2 8.00002 2 8.00002C2 8.00002 2 8.00002 2 8.00002V8.00002V8.00002V8.00002C2 8.00002 2 8.00002 2 8.00002C2 8.00002 2 8.00002 2 8.00002C2 8.00002 2 8.00002 2 8.00002C2 8.00002 2 8.00002 2 8.00002V8.00002V8.00002V8.00002C2 8.00002 2 8.00002 2 8.00002C2 8.00002 2 8.00002 2 8.00002C2 8.00002 2 8.00002 2 8.00002C2 8.00002 2 8.00002 2 8.00002V8.00002V8.00002V8.00002C2 8.00002 2 8.00002 2 8.00002C2 8.00002 2 8.00002 2 8.00001C2 8.00001 2 8.00001 2 8.00001C2 8.00001 2 8.00001 2 8.00001V8.00001V8.00001V8.00001C2 8.00001 2 8.00001 2 8.00001C2 8.00001 2 8.00001 2 8.00001C2 8.00001 2 8.00001 2 8.00001C2 8.00001 2 8.00001 2 8.00001V8.00001V8.00001C2 8.00001 2 8.00001 2 8.00001C2 8.00001 2 8.00001 2 8.00001C2 8.00001 2 8.00001 2 8.00001C2 8.00001 2 8.00001 2 8.00001C2 8.00001 2 8.00001 2 8.00001V8.00001V8.00001C2 8.00001 2 8.00001 2 8.00001C2 8.00001 2 8.00001 2 8.00001C2 8.00001 2 8.00001 2 8C2 8 2 8 2 8C2 8 2 8 2 8V8V8C2 8 2 8 2 8C2 8 2 8 2 8C2 8 2 8 2 8C2 8 2 8 2 8C2 8 2 8 2 8V8H0Z" fill="#D3A45D"/>
</svg>
