<svg width="18" height="18" viewBox="0 0 18 18" fill="none" xmlns="http://www.w3.org/2000/svg">
<path d="M10 0.999951C10 0.447666 9.55229 -4.91142e-05 9 -4.91142e-05C8.44772 -4.91142e-05 8 0.447666 8 0.999951H10ZM1 8.99998L0.999996 7.99998C0.447715 7.99999 3.21865e-06 8.4477 3.21865e-06 8.99998C3.21865e-06 9.55226 0.447715 9.99998 0.999996 9.99998L1 8.99998ZM17 9.99998C17.5523 9.99998 18 9.55227 18 8.99998C18 8.4477 17.5523 7.99998 17 7.99998V9.99998ZM9 17L8 17C8 17.5523 8.44772 18 9 18C9.55228 18 10 17.5523 10 17L9 17ZM8 0.999951C8 4.86595 4.86599 7.99997 0.999996 7.99998L1 9.99998C5.97057 9.99996 10 5.97052 10 0.999951H8ZM17 7.99998C13.134 7.99998 10 4.86596 10 0.999951H8C8 5.97053 12.0295 9.99998 17 9.99998V7.99998ZM10 17C10 13.134 13.134 9.99998 17 9.99998V7.99998C12.0295 7.99998 8.00003 12.0294 8 17L10 17ZM0.999996 9.99998C4.86598 10 7.99998 13.134 8 17L10 17C9.99997 12.0294 5.97055 8 1 7.99998L0.999996 9.99998Z" fill="#D3A45D"/>
</svg>
