<svg width="169" height="30" viewBox="0 0 169 30" fill="none" xmlns="http://www.w3.org/2000/svg">
<path d="M8.80664 11.0732H10.8316V21.1999H10.8283C8.7433 21.1999 6.45164 19.9332 4.82664 17.5999C2.38664 14.1799 1.71997 11.5949 1.71997 11.0749" stroke="white" stroke-width="2" stroke-linecap="round" stroke-linejoin="round"/>
<path d="M18.7633 21.2C18.7633 21.2 18.0266 19.6466 16.5316 17.9383C15.535 16.77 14.1316 16.1383 12.855 16.1383C14.1316 16.1383 15.535 15.505 16.5316 14.3383C18.0266 12.6283 18.7633 11.075 18.7633 11.075" stroke="white" stroke-width="2" stroke-linecap="round" stroke-linejoin="round"/>
<path d="M32.598 19.132C32.004 19.132 31.4503 19.0367 30.937 18.846C30.431 18.648 29.991 18.3693 29.617 18.01C29.243 17.6507 28.9497 17.229 28.737 16.745C28.5317 16.261 28.429 15.7293 28.429 15.15C28.429 14.5707 28.5317 14.039 28.737 13.555C28.9497 13.071 29.243 12.6493 29.617 12.29C29.9983 11.9307 30.442 11.6557 30.948 11.465C31.454 11.267 32.0077 11.168 32.609 11.168C33.2763 11.168 33.8777 11.2853 34.413 11.52C34.9557 11.7473 35.4103 12.0847 35.777 12.532L34.633 13.588C34.369 13.2873 34.0757 13.0637 33.753 12.917C33.4303 12.763 33.0783 12.686 32.697 12.686C32.3377 12.686 32.0077 12.7447 31.707 12.862C31.4063 12.9793 31.146 13.148 30.926 13.368C30.706 13.588 30.5337 13.8483 30.409 14.149C30.2917 14.4497 30.233 14.7833 30.233 15.15C30.233 15.5167 30.2917 15.8503 30.409 16.151C30.5337 16.4517 30.706 16.712 30.926 16.932C31.146 17.152 31.4063 17.3207 31.707 17.438C32.0077 17.5553 32.3377 17.614 32.697 17.614C33.0783 17.614 33.4303 17.5407 33.753 17.394C34.0757 17.24 34.369 17.009 34.633 16.701L35.777 17.757C35.4103 18.2043 34.9557 18.5453 34.413 18.78C33.8777 19.0147 33.2727 19.132 32.598 19.132ZM37.9103 19V14.094L38.2953 14.49H35.9083V13.082H41.6173V14.49H39.2303L39.6153 14.094V19H37.9103ZM46.019 19.088C45.5204 19.088 45.084 18.978 44.71 18.758C44.336 18.538 44.0427 18.2043 43.83 17.757C43.6247 17.3023 43.522 16.7303 43.522 16.041C43.522 15.3443 43.621 14.7723 43.819 14.325C44.017 13.8777 44.303 13.544 44.677 13.324C45.051 13.104 45.4984 12.994 46.019 12.994C46.5764 12.994 47.075 13.1223 47.515 13.379C47.9624 13.6283 48.3144 13.9803 48.571 14.435C48.835 14.8897 48.967 15.425 48.967 16.041C48.967 16.6643 48.835 17.2033 48.571 17.658C48.3144 18.1127 47.9624 18.4647 47.515 18.714C47.075 18.9633 46.5764 19.088 46.019 19.088ZM42.521 21.134V13.082H44.16V14.292L44.127 16.052L44.237 17.801V21.134H42.521ZM45.722 17.68C46.008 17.68 46.261 17.614 46.481 17.482C46.7084 17.35 46.888 17.163 47.02 16.921C47.1594 16.6717 47.229 16.3783 47.229 16.041C47.229 15.6963 47.1594 15.403 47.02 15.161C46.888 14.919 46.7084 14.732 46.481 14.6C46.261 14.468 46.008 14.402 45.722 14.402C45.436 14.402 45.1794 14.468 44.952 14.6C44.7247 14.732 44.545 14.919 44.413 15.161C44.281 15.403 44.215 15.6963 44.215 16.041C44.215 16.3783 44.281 16.6717 44.413 16.921C44.545 17.163 44.7247 17.35 44.952 17.482C45.1794 17.614 45.436 17.68 45.722 17.68ZM53.615 19V17.845L53.505 17.592V15.524C53.505 15.1573 53.3914 14.8713 53.164 14.666C52.944 14.4607 52.603 14.358 52.141 14.358C51.8257 14.358 51.514 14.4093 51.206 14.512C50.9054 14.6073 50.6487 14.7393 50.436 14.908L49.82 13.709C50.1427 13.4817 50.5314 13.3057 50.986 13.181C51.4407 13.0563 51.9027 12.994 52.372 12.994C53.274 12.994 53.9744 13.2067 54.473 13.632C54.9717 14.0573 55.221 14.721 55.221 15.623V19H53.615ZM51.811 19.088C51.349 19.088 50.953 19.011 50.623 18.857C50.293 18.6957 50.04 18.4793 49.864 18.208C49.688 17.9367 49.6 17.6323 49.6 17.295C49.6 16.943 49.6844 16.635 49.853 16.371C50.029 16.107 50.304 15.9017 50.678 15.755C51.052 15.601 51.5397 15.524 52.141 15.524H53.714V16.525H52.328C51.9247 16.525 51.646 16.591 51.492 16.723C51.3454 16.855 51.272 17.02 51.272 17.218C51.272 17.438 51.3564 17.614 51.525 17.746C51.701 17.8707 51.9394 17.933 52.24 17.933C52.526 17.933 52.7827 17.867 53.01 17.735C53.2374 17.5957 53.4024 17.394 53.505 17.13L53.769 17.922C53.6444 18.3033 53.417 18.593 53.087 18.791C52.757 18.989 52.3317 19.088 51.811 19.088ZM56.7117 19V13.082H58.4167V15.392H60.9907V13.082H62.7067V19H60.9907V16.789H58.4167V19H56.7117ZM64.3494 19V13.082H66.0544V16.602L68.9364 13.082H70.5094V19H68.8044V15.48L65.9334 19H64.3494ZM72.159 19V13.082H73.864V17.592H76.251V13.082H77.967V19H72.159ZM77.23 20.276V18.978L77.626 19H76.251V17.592H78.825V20.276H77.23ZM83.4461 19V17.845L83.3361 17.592V15.524C83.3361 15.1573 83.2224 14.8713 82.9951 14.666C82.7751 14.4607 82.4341 14.358 81.9721 14.358C81.6568 14.358 81.3451 14.4093 81.0371 14.512C80.7364 14.6073 80.4798 14.7393 80.2671 14.908L79.6511 13.709C79.9738 13.4817 80.3624 13.3057 80.8171 13.181C81.2718 13.0563 81.7338 12.994 82.2031 12.994C83.1051 12.994 83.8054 13.2067 84.3041 13.632C84.8028 14.0573 85.0521 14.721 85.0521 15.623V19H83.4461ZM81.6421 19.088C81.1801 19.088 80.7841 19.011 80.4541 18.857C80.1241 18.6957 79.8711 18.4793 79.6951 18.208C79.5191 17.9367 79.4311 17.6323 79.4311 17.295C79.4311 16.943 79.5154 16.635 79.6841 16.371C79.8601 16.107 80.1351 15.9017 80.5091 15.755C80.8831 15.601 81.3708 15.524 81.9721 15.524H83.5451V16.525H82.1591C81.7558 16.525 81.4771 16.591 81.3231 16.723C81.1764 16.855 81.1031 17.02 81.1031 17.218C81.1031 17.438 81.1874 17.614 81.3561 17.746C81.5321 17.8707 81.7704 17.933 82.0711 17.933C82.3571 17.933 82.6138 17.867 82.8411 17.735C83.0684 17.5957 83.2334 17.394 83.3361 17.13L83.6001 17.922C83.4754 18.3033 83.2481 18.593 82.9181 18.791C82.5881 18.989 82.1628 19.088 81.6421 19.088ZM89.79 19V11.3H93.376C94.2707 11.3 94.9673 11.4723 95.466 11.817C95.9647 12.1617 96.214 12.653 96.214 13.291C96.214 13.9217 95.9793 14.413 95.51 14.765C95.0407 15.1097 94.4173 15.282 93.64 15.282L93.849 14.82C94.7143 14.82 95.3853 14.9923 95.862 15.337C96.3387 15.6817 96.577 16.1803 96.577 16.833C96.577 17.5077 96.3203 18.0393 95.807 18.428C95.301 18.8093 94.5603 19 93.585 19H89.79ZM91.561 17.68H93.519C93.9297 17.68 94.2413 17.5993 94.454 17.438C94.6667 17.2767 94.773 17.0273 94.773 16.69C94.773 16.3673 94.6667 16.129 94.454 15.975C94.2413 15.8137 93.9297 15.733 93.519 15.733H91.561V17.68ZM91.561 14.49H93.222C93.6107 14.49 93.904 14.413 94.102 14.259C94.3 14.0977 94.399 13.863 94.399 13.555C94.399 13.247 94.3 13.016 94.102 12.862C93.904 12.7007 93.6107 12.62 93.222 12.62H91.561V14.49ZM102.045 19L100.065 16.195L101.462 15.37L104.069 19H102.045ZM97.8543 19V13.082H99.5703V19H97.8543ZM99.0643 16.756V15.381H101.132V16.756H99.0643ZM101.627 16.239L100.021 16.063L102.1 13.082H103.926L101.627 16.239ZM107.501 19.088C106.871 19.088 106.31 18.956 105.818 18.692C105.334 18.428 104.949 18.0687 104.663 17.614C104.385 17.152 104.245 16.6277 104.245 16.041C104.245 15.447 104.385 14.9227 104.663 14.468C104.949 14.006 105.334 13.6467 105.818 13.39C106.31 13.126 106.871 12.994 107.501 12.994C108.125 12.994 108.682 13.126 109.173 13.39C109.665 13.6467 110.05 14.0023 110.328 14.457C110.607 14.9117 110.746 15.4397 110.746 16.041C110.746 16.6277 110.607 17.152 110.328 17.614C110.05 18.0687 109.665 18.428 109.173 18.692C108.682 18.956 108.125 19.088 107.501 19.088ZM107.501 17.68C107.787 17.68 108.044 17.614 108.271 17.482C108.499 17.35 108.678 17.163 108.81 16.921C108.942 16.6717 109.008 16.3783 109.008 16.041C109.008 15.6963 108.942 15.403 108.81 15.161C108.678 14.919 108.499 14.732 108.271 14.6C108.044 14.468 107.787 14.402 107.501 14.402C107.215 14.402 106.959 14.468 106.731 14.6C106.504 14.732 106.321 14.919 106.181 15.161C106.049 15.403 105.983 15.6963 105.983 16.041C105.983 16.3783 106.049 16.6717 106.181 16.921C106.321 17.163 106.504 17.35 106.731 17.482C106.959 17.614 107.215 17.68 107.501 17.68ZM111.927 19V13.082H113.632V15.392H116.206V13.082H117.922V19H116.206V16.789H113.632V19H111.927ZM120.829 19V14.094L121.214 14.49H118.827V13.082H124.536V14.49H122.149L122.534 14.094V19H120.829ZM128.993 19V17.845L128.883 17.592V15.524C128.883 15.1573 128.769 14.8713 128.542 14.666C128.322 14.4607 127.981 14.358 127.519 14.358C127.204 14.358 126.892 14.4093 126.584 14.512C126.283 14.6073 126.027 14.7393 125.814 14.908L125.198 13.709C125.521 13.4817 125.909 13.3057 126.364 13.181C126.819 13.0563 127.281 12.994 127.75 12.994C128.652 12.994 129.352 13.2067 129.851 13.632C130.35 14.0573 130.599 14.721 130.599 15.623V19H128.993ZM127.189 19.088C126.727 19.088 126.331 19.011 126.001 18.857C125.671 18.6957 125.418 18.4793 125.242 18.208C125.066 17.9367 124.978 17.6323 124.978 17.295C124.978 16.943 125.062 16.635 125.231 16.371C125.407 16.107 125.682 15.9017 126.056 15.755C126.43 15.601 126.918 15.524 127.519 15.524H129.092V16.525H127.706C127.303 16.525 127.024 16.591 126.87 16.723C126.723 16.855 126.65 17.02 126.65 17.218C126.65 17.438 126.734 17.614 126.903 17.746C127.079 17.8707 127.317 17.933 127.618 17.933C127.904 17.933 128.161 17.867 128.388 17.735C128.615 17.5957 128.78 17.394 128.883 17.13L129.147 17.922C129.022 18.3033 128.795 18.593 128.465 18.791C128.135 18.989 127.71 19.088 127.189 19.088ZM136.281 19L134.301 16.195L135.698 15.37L138.305 19H136.281ZM132.09 19V13.082H133.806V19H132.09ZM133.3 16.756V15.381H135.368V16.756H133.3ZM135.863 16.239L134.257 16.063L136.336 13.082H138.162L135.863 16.239ZM140.359 19V14.094L140.744 14.49H138.357V13.082H144.066V14.49H141.679L142.064 14.094V19H140.359ZM147.626 19.088C146.952 19.088 146.358 18.956 145.844 18.692C145.338 18.428 144.946 18.0687 144.667 17.614C144.389 17.152 144.249 16.6277 144.249 16.041C144.249 15.447 144.385 14.9227 144.656 14.468C144.935 14.006 145.313 13.6467 145.789 13.39C146.266 13.126 146.805 12.994 147.406 12.994C147.986 12.994 148.506 13.1187 148.968 13.368C149.438 13.61 149.808 13.962 150.079 14.424C150.351 14.8787 150.486 15.425 150.486 16.063C150.486 16.129 150.483 16.206 150.475 16.294C150.468 16.3747 150.461 16.4517 150.453 16.525H145.646V15.524H149.551L148.891 15.821C148.891 15.513 148.829 15.2453 148.704 15.018C148.58 14.7907 148.407 14.6147 148.187 14.49C147.967 14.358 147.711 14.292 147.417 14.292C147.124 14.292 146.864 14.358 146.636 14.49C146.416 14.6147 146.244 14.7943 146.119 15.029C145.995 15.2563 145.932 15.5277 145.932 15.843V16.107C145.932 16.4297 146.002 16.7157 146.141 16.965C146.288 17.207 146.49 17.394 146.746 17.526C147.01 17.6507 147.318 17.713 147.67 17.713C147.986 17.713 148.261 17.6653 148.495 17.57C148.737 17.4747 148.957 17.3317 149.155 17.141L150.068 18.131C149.797 18.439 149.456 18.6773 149.045 18.846C148.635 19.0073 148.162 19.088 147.626 19.088Z" fill="white"/>
<path d="M12.855 16.14H10.8283" stroke="white" stroke-width="2" stroke-linecap="round" stroke-linejoin="round"/>
</svg>
