<svg width="90" height="280" viewBox="0 0 90 280" fill="none" xmlns="http://www.w3.org/2000/svg">
<circle r="19" transform="matrix(-1 0 0 1 20 20)" stroke="#E7E3DE" stroke-width="2"/>
<path d="M22 14C21.6667 15.5 20 18.8 16 20C20 21.2 21.6667 24.5 22 26" stroke="#E7E3DE" stroke-width="2" stroke-linecap="round" stroke-linejoin="round"/>
<circle cx="70" cy="20" r="19" stroke="#E7E3DE" stroke-width="2"/>
<path d="M68 14C68.3333 15.5 70 18.8 74 20C70 21.2 68.3333 24.5 68 26" stroke="#E7E3DE" stroke-width="2" stroke-linecap="round" stroke-linejoin="round"/>
<circle r="19" transform="matrix(-1 0 0 1 20 100)" stroke="#D3A45D" stroke-width="2"/>
<path d="M22 94C21.6667 95.5 20 98.8 16 100C20 101.2 21.6667 104.5 22 106" stroke="#D3A45D" stroke-width="2" stroke-linecap="round" stroke-linejoin="round"/>
<circle cx="70" cy="100" r="19" stroke="#D3A45D" stroke-width="2"/>
<path d="M68 94C68.3333 95.5 70 98.8 74 100C70 101.2 68.3333 104.5 68 106" stroke="#D3A45D" stroke-width="2" stroke-linecap="round" stroke-linejoin="round"/>
<circle r="20" transform="matrix(-1 0 0 1 20 180)" fill="#D3A45D"/>
<path d="M22 174C21.6667 175.5 20 178.8 16 180C20 181.2 21.6667 184.5 22 186" stroke="white" stroke-width="2" stroke-linecap="round" stroke-linejoin="round"/>
<circle cx="70" cy="180" r="20" fill="#D3A45D"/>
<path d="M68 174C68.3333 175.5 70 178.8 74 180C70 181.2 68.3333 184.5 68 186" stroke="white" stroke-width="2" stroke-linecap="round" stroke-linejoin="round"/>
<circle r="20" transform="matrix(-1 0 0 1 20 260)" fill="#AB7C44"/>
<path d="M22 254C21.6667 255.5 20 258.8 16 260C20 261.2 21.6667 264.5 22 266" stroke="white" stroke-width="2" stroke-linecap="round" stroke-linejoin="round"/>
<circle cx="70" cy="260" r="20" fill="#AB7C44"/>
<path d="M68 254C68.3333 255.5 70 258.8 74 260C70 261.2 68.3333 264.5 68 266" stroke="white" stroke-width="2" stroke-linecap="round" stroke-linejoin="round"/>
</svg>
