<svg width="90" height="280" fill="none" xmlns="http://www.w3.org/2000/svg"><circle r="19" transform="matrix(-1 0 0 1 20 20)" stroke="#E7E3DE" stroke-width="2"/><path d="M22 14c-.333 1.5-2 4.8-6 6 4 1.2 5.667 4.5 6 6" stroke="#E7E3DE" stroke-width="2" stroke-linecap="round" stroke-linejoin="round"/><circle cx="70" cy="20" r="19" stroke="#E7E3DE" stroke-width="2"/><path d="M68 14c.333 1.5 2 4.8 6 6-4 1.2-5.667 4.5-6 6" stroke="#E7E3DE" stroke-width="2" stroke-linecap="round" stroke-linejoin="round"/><circle r="19" transform="matrix(-1 0 0 1 20 100)" stroke="#D3A45D" stroke-width="2"/><path d="M22 94c-.333 1.5-2 4.8-6 6 4 1.2 5.667 4.5 6 6" stroke="#D3A45D" stroke-width="2" stroke-linecap="round" stroke-linejoin="round"/><circle cx="70" cy="100" r="19" stroke="#D3A45D" stroke-width="2"/><path d="M68 94c.333 1.5 2 4.8 6 6-4 1.2-5.667 4.5-6 6" stroke="#D3A45D" stroke-width="2" stroke-linecap="round" stroke-linejoin="round"/><circle r="20" transform="matrix(-1 0 0 1 20 180)" fill="#D3A45D"/><path d="M22 174c-.333 1.5-2 4.8-6 6 4 1.2 5.667 4.5 6 6" stroke="#fff" stroke-width="2" stroke-linecap="round" stroke-linejoin="round"/><circle cx="70" cy="180" r="20" fill="#D3A45D"/><path d="M68 174c.333 1.5 2 4.8 6 6-4 1.2-5.667 4.5-6 6" stroke="#fff" stroke-width="2" stroke-linecap="round" stroke-linejoin="round"/><circle r="20" transform="matrix(-1 0 0 1 20 260)" fill="#AB7C44"/><path d="M22 254c-.333 1.5-2 4.8-6 6 4 1.2 5.667 4.5 6 6" stroke="#fff" stroke-width="2" stroke-linecap="round" stroke-linejoin="round"/><circle cx="70" cy="260" r="20" fill="#AB7C44"/><path d="M68 254c.333 1.5 2 4.8 6 6-4 1.2-5.667 4.5-6 6" stroke="#fff" stroke-width="2" stroke-linecap="round" stroke-linejoin="round"/></svg>