<svg width="28" height="28" fill="none" xmlns="http://www.w3.org/2000/svg"><path d="M15.5 2a1.5 1.5 0 00-3 0h3zM2 14v-1.5A1.5 1.5 0 00.5 14H2zm24 1.5a1.5 1.5 0 000-3v3zM14 26h-1.5a1.5 1.5 0 003 0H14zM2 14H.5A1.5 1.5 0 002 15.5V14zM12.5 2c0 5.799-4.701 10.5-10.5 10.5v3c7.456 0 13.5-6.044 13.5-13.5h-3zm3 0h-3 3zM26 12.5c-5.799 0-10.5-4.7-10.5-10.5h-3c0 7.456 6.044 13.5 13.5 13.5v-3zM15.5 26c0-5.799 4.701-10.5 10.5-10.5v-3c-7.456 0-13.5 6.044-13.5 13.5h3zM2 15.5c5.799 0 10.5 4.701 10.5 10.5h3c0-7.456-6.044-13.5-13.5-13.5v3zM.5 14h3-3z" fill="#D3A45D"/></svg>