<svg width="100" height="76" fill="none" xmlns="http://www.w3.org/2000/svg"><path d="M15.5 50a1.5 1.5 0 00-3 0h3zM2 62v-1.5A1.5 1.5 0 00.5 62H2zm24 1.5a1.5 1.5 0 000-3v3zM14 74h-1.5a1.5 1.5 0 003 0H14zM2 62H.5A1.5 1.5 0 002 63.5V62zm10.5-12c0 5.799-4.701 10.5-10.5 10.5v3c7.456 0 13.5-6.044 13.5-13.5h-3zm3 0h-3 3zM26 60.5c-5.799 0-10.5-4.7-10.5-10.5h-3c0 7.456 6.044 13.5 13.5 13.5v-3zM15.5 74c0-5.799 4.701-10.5 10.5-10.5v-3c-7.456 0-13.5 6.044-13.5 13.5h3zM2 63.5c5.799 0 10.5 4.701 10.5 10.5h3c0-7.456-6.044-13.5-13.5-13.5v3zM.5 62h3-3zm54-60a1.5 1.5 0 00-3 0h3zM22 33v-1.5a1.5 1.5 0 00-1.5 1.5H22zm62 1.501a1.5 1.5 0 000-3v3zM53 64h-1.5a1.5 1.5 0 003 0H53zM22 33.001h-1.5a1.5 1.5 0 001.5 1.5v-1.5zM51.5 2c0 16.292-13.208 29.5-29.5 29.5v3c17.95 0 32.5-14.55 32.5-32.5h-3zm3 .001V2h-3v.001h3zm29.5 29.5c-16.292 0-29.5-13.207-29.5-29.5h-3c0 17.95 14.55 32.5 32.5 32.5v-3zm-29.5 32.5c0-16.293 13.208-29.5 29.5-29.5v-3c-17.949 0-32.5 14.55-32.5 32.499h3zM22 34.5c16.292 0 29.5 13.207 29.5 29.5l3-.001C54.5 46.05 39.949 31.5 22 31.5v3zM20.5 33v.001h3V33h-3zM92 43a1.5 1.5 0 00-3 0h3zm-9 7.5V49a1.5 1.5 0 00-1.5 1.5H83zM98 52a1.5 1.5 0 000-3v3zm-7.5 6H89a1.5 1.5 0 003 0h-1.5zM83 50.5h-1.5A1.5 1.5 0 0083 52v-1.5zm6-7.5a6 6 0 01-6 6v3a9 9 0 009-9h-3zm3 0h-3 3zm6 6a6 6 0 01-6-6h-3a9 9 0 009 9v-3zm-6 9a6 6 0 016-6v-3a9 9 0 00-9 9h3zm-9-6a6 6 0 016 6h3a9 9 0 00-9-9v3zm-1.5-1.5h3-3z" fill="#D3A45D"/></svg>